<svg width="77" height="18" viewBox="0 0 77 18" fill="none" xmlns="http://www.w3.org/2000/svg">
<rect width="77" height="17.1111" rx="8.55556" fill="#BCF5E3"/>
<g clip-path="url(#clip0_0_1532)">
<path d="M17.8419 8.03486C17.8419 7.18762 17.2047 6.59217 16.422 6.59217C15.6392 6.59217 15.002 7.19766 15.002 8.03486C15.002 8.86202 15.6392 9.47758 16.422 9.47758C17.2055 9.47679 17.8419 8.88209 17.8419 8.03486ZM17.8531 10.5565V9.9008C17.4669 10.355 16.8921 10.6368 16.2037 10.6368C14.7733 10.6368 13.6875 9.52699 13.6875 8.03486C13.6875 6.552 14.8149 5.42285 16.2357 5.42285C16.9041 5.42285 17.4678 5.70552 17.8539 6.14884V5.51321H19.138V10.5565H17.8531Z" fill="black"/>
<path d="M25.3734 9.43659C24.924 9.43659 24.7993 9.27516 24.7993 8.85193V6.61294H25.6244V5.51316H24.7993V4.28284H23.4833V5.51316H21.7882V5.20654C21.7882 4.78254 21.9553 4.62112 22.4151 4.62112H22.7037V3.64258H22.0705C20.9847 3.64258 20.473 3.98549 20.473 5.03431V5.51238H19.7422V6.61218H20.473V10.5557H21.789V6.61218H23.4841V9.08361C23.4841 10.1124 23.891 10.5565 24.956 10.5565H25.6348V9.43659H25.3734Z" fill="black"/>
<path d="M30.0936 7.58054C30 6.92481 29.446 6.5317 28.7991 6.5317C28.1515 6.5317 27.619 6.91478 27.4839 7.58054H30.0936ZM27.4727 8.36754C27.567 9.1136 28.1203 9.53762 28.8199 9.53762C29.3732 9.53762 29.8018 9.28505 30.052 8.88189H31.3993C31.0858 9.95081 30.0936 10.6366 28.7888 10.6366C27.212 10.6366 26.1055 9.56772 26.1055 8.04469C26.1055 6.52166 27.2752 5.42188 28.8207 5.42188C30.3767 5.42188 31.504 6.53173 31.504 8.04469C31.504 8.15593 31.4936 8.26637 31.4728 8.36754H27.4727Z" fill="black"/>
<path d="M39.8735 8.03486C39.8735 7.21773 39.2363 6.59217 38.4535 6.59217C37.6708 6.59217 37.0335 7.19766 37.0335 8.03486C37.0335 8.86202 37.6708 9.47758 38.4535 9.47758C39.2363 9.47679 39.8735 8.85199 39.8735 8.03486ZM35.7383 5.51321H37.0223V6.16892C37.4085 5.70475 37.9826 5.42285 38.6718 5.42285C40.0814 5.42285 41.188 6.54272 41.188 8.02482C41.188 9.50768 40.0606 10.6376 38.6406 10.6376C37.9826 10.6376 37.4397 10.3851 37.0639 9.96183V12.6318H35.7383V5.51321Z" fill="black"/>
<path d="M45.8146 8.03486C45.8146 7.18762 45.1782 6.59217 44.3945 6.59217C43.6118 6.59217 42.9746 7.19766 42.9746 8.03486C42.9746 8.86202 43.6118 9.47758 44.3945 9.47758C45.1782 9.47679 45.8146 8.88209 45.8146 8.03486ZM45.8259 10.5565V9.9008C45.4397 10.355 44.8646 10.6368 44.1762 10.6368C42.7459 10.6368 41.6602 9.52699 41.6602 8.03486C41.6602 6.552 42.7875 5.42285 44.2075 5.42285C44.8759 5.42285 45.4397 5.70552 45.8259 6.14884V5.51321H47.11V10.5565H45.8259Z" fill="black"/>
<path d="M33.4208 6.0075C33.4208 6.0075 33.7478 5.42285 34.5481 5.42285C34.8903 5.42285 35.1118 5.53638 35.1118 5.53638V6.82309C35.1118 6.82309 34.6289 6.535 34.1851 6.59293C33.7414 6.65085 33.4608 7.04473 33.4624 7.57147V10.5573H32.1367V5.51399H33.4208V6.0075Z" fill="black"/>
<path d="M53.1098 5.5127L49.8677 12.615H48.5005L49.7734 9.86939L47.6211 5.5127H49.1707L50.4299 8.4236L51.722 5.5127H53.1098Z" fill="black"/>
<path d="M63.4585 5.3988L60.2443 3.607C59.3007 3.08105 58.1215 3.7383 58.1215 4.79098V4.9748C58.1215 5.14085 58.2133 5.29454 58.362 5.37718L58.969 5.71546C59.1472 5.81509 59.3695 5.69074 59.3695 5.49226V5.03504C59.3695 4.80643 59.6255 4.66355 59.8302 4.77785L62.614 6.33023C62.819 6.44454 62.819 6.7303 62.614 6.84384L59.8302 8.39622C59.6255 8.51052 59.3695 8.36763 59.3695 8.13902V7.89573C59.3695 6.84305 58.1902 6.18503 57.2461 6.71175L54.0319 8.50356C53.0883 9.02953 53.0883 10.3456 54.0319 10.8715L57.2461 12.6633C58.1893 13.1893 59.3695 12.532 59.3695 11.4793V11.2955C59.3695 11.1295 59.2776 10.9765 59.1289 10.8931L58.522 10.5541C58.3438 10.4545 58.1215 10.5788 58.1215 10.7773V11.2345C58.1215 11.4631 57.8658 11.606 57.6608 11.4917L54.8769 9.93932C54.6723 9.82501 54.6723 9.53926 54.8769 9.42496L57.6608 7.87256C57.8658 7.75825 58.1215 7.90114 58.1215 8.12975V8.37305C58.1215 9.42572 59.3007 10.0838 60.2443 9.55702L63.4585 7.76521C64.402 7.24079 64.402 5.92476 63.4585 5.3988Z" fill="black"/>
</g>
<defs>
<clipPath id="clip0_0_1532">
<rect width="50.4778" height="9.42657" fill="white" transform="translate(13.6875 3.42188)"/>
</clipPath>
</defs>
</svg>
