<svg width="33" height="28" viewBox="0 0 33 28" fill="none" xmlns="http://www.w3.org/2000/svg">
<rect x="0.618774" y="5.0874" width="21.6562" height="13.8188" fill="#197AFF"/>
<path fill-rule="evenodd" clip-rule="evenodd" d="M5.5 0.55V1.1H6.05H6.6V0.55V0H6.05H5.5V0.55ZM7.7 0.55V1.1H11H14.3V0.55V0H11H7.7V0.55ZM9.9 2.75V3.3H13.2H16.5V2.75V2.2H13.2H9.9V2.75ZM0.168781 4.56878L0 4.73749V14.3V23.8625L0.168781 24.0312C0.331925 24.1944 0.369531 24.2 1.30316 24.2C2.07343 24.2 2.26875 24.219 2.26875 24.2939C2.26875 24.5141 2.77214 25.3716 3.05387 25.6313C3.38924 25.9405 3.91909 26.2323 4.31379 26.3253C4.48188 26.365 3.77486 26.3886 2.28594 26.3931L0 26.4V26.95V27.5H16.5H33V26.95V26.4L30.7141 26.3954C28.77 26.3914 28.4744 26.378 28.7375 26.3055C29.5371 26.0854 30.1207 25.6083 30.4878 24.8744C30.6217 24.6068 30.7313 24.3455 30.7313 24.2939C30.7313 24.219 30.9266 24.2 31.6968 24.2C32.6305 24.2 32.6681 24.1944 32.8312 24.0312L33 23.8625V20.658C33 18.6598 32.9742 17.4052 32.9315 17.3254C32.8938 17.2549 32.2753 16.8625 31.5571 16.4534L30.2514 15.7094L30.2507 13.5174C30.2502 11.9991 30.2243 11.2384 30.1664 11.0423C30.0548 10.6647 29.4853 10.0952 29.1077 9.9836C28.9053 9.92386 28.0087 9.9 25.9623 9.9H23.1V7.31878V4.73749L22.9312 4.56878L22.7625 4.4H11.55H0.337494L0.168781 4.56878ZM22 12.1V18.7H11.55H1.1V12.1V5.5H11.55H22V12.1ZM2.91878 10.0688L2.75 10.2375V12.8188V15.4H3.3H3.85V14.3V13.2H4.675H5.5V12.65V12.1H4.675H3.85V11.55V11H4.95H6.05V10.45V9.9H4.56878C3.0877 9.9 3.08749 9.9 2.91878 10.0688ZM7.31878 10.0688L7.15 10.2375V12.8188V15.4H7.7H8.25V14.3V13.2H8.90622C9.51136 13.2 9.57564 13.2131 9.73122 13.3688C9.89381 13.5313 9.9 13.5717 9.9 14.4688V15.4H10.45H11V14.4477C11 13.4753 10.9466 13.179 10.7098 12.8391C10.5801 12.6528 10.5801 12.6472 10.7098 12.4609C11.1704 11.7996 11.0844 11.011 10.4867 10.4133C10.0304 9.95699 9.81317 9.9 8.53112 9.9C7.51472 9.9 7.48309 9.9044 7.31878 10.0688ZM12.2688 10.0688L12.1 10.2375V12.65V15.0625L12.2688 15.2312C12.4375 15.4 12.4377 15.4 13.9188 15.4H15.4V14.85V14.3H14.3H13.2V13.75V13.2H14.025H14.85V12.65V12.1H14.025H13.2V11.55V11H14.3H15.4V10.45V9.9H13.9188C12.4377 9.9 12.4375 9.9 12.2688 10.0688ZM16.6688 10.0688L16.5 10.2375V12.65V15.0625L16.6688 15.2312C16.8375 15.4 16.8377 15.4 18.3188 15.4H19.8V14.85V14.3H18.7H17.6V13.75V13.2H18.425H19.25V12.65V12.1H18.425H17.6V11.55V11H18.7H19.8V10.45V9.9H18.3188C16.8377 9.9 16.8375 9.9 16.6688 10.0688ZM9.73122 11.1688C9.83764 11.2751 9.9 11.4161 9.9 11.55C9.9 11.6839 9.83764 11.8249 9.73122 11.9312C9.57564 12.0869 9.51136 12.1 8.90622 12.1H8.25V11.55V11H8.90622C9.51136 11 9.57564 11.0131 9.73122 11.1688ZM25.85 13.5812V16.1625L26.0188 16.3312L26.1875 16.5H27.8052H29.4228L30.6597 17.2047C32.24 18.105 32.2547 18.15 30.9688 18.15C30.0717 18.15 30.0313 18.1562 29.8688 18.3188C29.7014 18.4861 29.7 18.4981 29.7 19.8C29.7 21.1019 29.7014 21.1139 29.8688 21.2812C30.0313 21.4438 30.0717 21.45 30.9688 21.45H31.9V22.275V23.1H31.3156C30.8676 23.1 30.7313 23.0781 30.7313 23.0061C30.7313 22.9545 30.6226 22.6951 30.4899 22.4298C30.1966 21.8437 29.7841 21.4465 29.1624 21.152C28.7471 20.9552 28.6406 20.9344 28.05 20.9344C27.4594 20.9344 27.3529 20.9552 26.9376 21.152C26.3159 21.4465 25.9034 21.8437 25.6101 22.4298C25.4774 22.6951 25.3687 22.9545 25.3687 23.0061C25.3687 23.0816 25.1473 23.1 24.2344 23.1H23.1V17.05V11H24.475H25.85V13.5812ZM28.9812 11.1688L29.15 11.3375V13.3688V15.4H28.05H26.95V13.2V11H27.8812C28.7783 11 28.8187 11.0062 28.9812 11.1688ZM26.4 18.15V18.7H27.5H28.6V18.15V17.6H27.5H26.4V18.15ZM31.9 19.8V20.35H31.35H30.8V19.8V19.25H31.35H31.9V19.8ZM22 21.45V23.1H17.2906C13.3563 23.1 12.5813 23.0845 12.5813 23.0061C12.5813 22.9545 12.4726 22.6951 12.3399 22.4298C12.0467 21.8437 11.6341 21.4465 11.0124 21.152C10.5965 20.9549 10.4911 20.9344 9.89643 20.9344C9.27548 20.9344 9.21119 20.9485 8.71496 21.1937C8.20022 21.4481 7.71327 21.8903 7.54325 22.2578C7.50386 22.3429 7.45064 22.4125 7.425 22.4125C7.39936 22.4125 7.34614 22.3429 7.30675 22.2578C7.13673 21.8903 6.64978 21.4481 6.13504 21.1937C5.63881 20.9485 5.57453 20.9344 4.95358 20.9344C4.35889 20.9344 4.25349 20.9549 3.83763 21.152C3.21592 21.4465 2.80335 21.8437 2.51006 22.4298C2.37737 22.6951 2.26875 22.9545 2.26875 23.0061C2.26875 23.0781 2.13242 23.1 1.68438 23.1H1.1V21.45V19.8H11.55H22V21.45ZM5.45765 22.0836C6.04849 22.2582 6.6 23.0144 6.6 23.65C6.6 24.5019 5.80188 25.3 4.95 25.3C4.51756 25.3 4.16934 25.1428 3.81329 24.7867C3.11774 24.0912 3.11774 23.2096 3.81329 22.5125C4.29557 22.0292 4.81504 21.8937 5.45765 22.0836ZM10.4076 22.0836C10.7853 22.1952 11.3548 22.7647 11.4664 23.1424C11.6568 23.787 11.5226 24.3009 11.0367 24.7867C10.6807 25.1428 10.3324 25.3 9.9 25.3C9.04812 25.3 8.25 24.5019 8.25 23.65C8.25 23.2179 8.4073 22.8693 8.76329 22.5125C9.24557 22.0292 9.76504 21.8937 10.4076 22.0836ZM28.5577 22.0836C29.1485 22.2582 29.7 23.0144 29.7 23.65C29.7 24.5019 28.9019 25.3 28.05 25.3C27.6176 25.3 27.2693 25.1428 26.9133 24.7867C26.2177 24.0912 26.2177 23.2096 26.9133 22.5125C27.3956 22.0292 27.915 21.8937 28.5577 22.0836ZM4.4 23.65V24.2H4.95H5.5V23.65V23.1H4.95H4.4V23.65ZM9.35 23.65V24.2H9.9H10.45V23.65V23.1H9.9H9.35V23.65ZM27.5 23.65V24.2H28.05H28.6V23.65V23.1H28.05H27.5V23.65ZM25.3687 24.2939C25.3687 24.5141 25.8721 25.3716 26.1539 25.6313C26.4892 25.9405 27.0191 26.2323 27.4138 26.3253C27.5679 26.3616 24.1665 26.3862 18.975 26.3862C13.7836 26.3862 10.3821 26.3616 10.5362 26.3253C10.9309 26.2323 11.4608 25.9405 11.7961 25.6313C12.0779 25.3716 12.5813 24.5141 12.5813 24.2939C12.5813 24.2152 13.6171 24.2 18.975 24.2C24.3329 24.2 25.3687 24.2152 25.3687 24.2939ZM7.54325 25.0422C7.77638 25.5461 8.61403 26.1731 9.25499 26.3236C9.43463 26.3657 8.83644 26.3862 7.425 26.3862C6.06052 26.3862 5.41826 26.3649 5.58621 26.3253C6.03323 26.22 6.54651 25.9153 6.91797 25.5348C7.11528 25.3328 7.29664 25.1045 7.32112 25.0275C7.37894 24.8452 7.45443 24.8502 7.54325 25.0422Z" fill="#11346F"/>
<path fill-rule="evenodd" clip-rule="evenodd" d="M2.75 10.2374L2.91878 10.0687C3.08749 9.8999 3.0877 9.8999 4.56878 9.8999H6.05V10.4499V10.9999H4.95H3.85V11.5499V12.0999H4.675H5.5V12.6499V13.1999H4.675H3.85V14.2999V15.3999H3.3H2.75V12.8187V10.2374ZM7.15 10.2374L7.31878 10.0687C7.48309 9.9043 7.51472 9.8999 8.53112 9.8999C9.81317 9.8999 10.0304 9.9569 10.4867 10.4132C11.0844 11.0109 11.1704 11.7995 10.7098 12.4608C10.5801 12.6471 10.5801 12.6527 10.7098 12.839C10.9466 13.1789 11 13.4752 11 14.4476V15.3999H10.45H9.9V14.4687C9.9 13.5716 9.89381 13.5312 9.73122 13.3687C9.57564 13.213 9.51136 13.1999 8.90622 13.1999H8.25V14.2999V15.3999H7.7H7.15V12.8187V10.2374ZM12.1 10.2374L12.2688 10.0687C12.4375 9.8999 12.4377 9.8999 13.9188 9.8999H15.4V10.4499V10.9999H14.3H13.2V11.5499V12.0999H14.025H14.85V12.6499V13.1999H14.025H13.2V13.7499V14.2999H14.3H15.4V14.8499V15.3999H13.9188H13.9188C12.4377 15.3999 12.4375 15.3999 12.2688 15.2311L12.1 15.0624V12.6499V10.2374ZM16.5 10.2374L16.6688 10.0687C16.8375 9.8999 16.8377 9.8999 18.3188 9.8999H19.8V10.4499V10.9999H18.7H17.6V11.5499V12.0999H18.425H19.25V12.6499V13.1999H18.425H17.6V13.7499V14.2999H18.7H19.8V14.8499V15.3999H18.3188H18.3188C16.8377 15.3999 16.8375 15.3999 16.6688 15.2311L16.5 15.0624V12.6499V10.2374ZM9.9 11.5499C9.9 11.416 9.83764 11.275 9.73122 11.1687C9.57564 11.013 9.51136 10.9999 8.90622 10.9999H8.25V11.5499V12.0999H8.90622C9.51136 12.0999 9.57564 12.0868 9.73122 11.9311C9.83764 11.8248 9.9 11.6838 9.9 11.5499Z" fill="white"/>
</svg>
