<svg width="25" height="25" viewBox="0 0 25 25" fill="none" xmlns="http://www.w3.org/2000/svg">
<mask id="path-1-outside-1_0_1595" maskUnits="userSpaceOnUse" x="0" y="0" width="25" height="25" fill="black">
<rect fill="white" width="25" height="25"/>
<path fill-rule="evenodd" clip-rule="evenodd" d="M12.1626 1.03281C11.7443 1.13299 11.3266 1.45097 10.7899 2.07787C10.6089 2.28935 10.5709 2.31078 10.3776 2.31078C10.2261 2.31078 10.0999 2.2694 9.93992 2.16716C9.5032 1.88826 9.21762 1.80279 8.71037 1.79921C8.29722 1.79632 8.21695 1.81064 7.99778 1.9264C7.54522 2.1654 7.19843 2.64048 7.01773 3.26905C6.83551 3.90291 6.69378 4.00559 6.10405 3.93106C5.67404 3.87668 5.11788 3.9365 4.81735 4.06953C4.12122 4.37761 3.78359 5.12155 3.90401 6.08212C3.94371 6.39893 3.94062 6.51975 3.8896 6.64175C3.7979 6.86132 3.72503 6.90795 3.30649 7.01504C2.63785 7.18612 2.17172 7.49538 1.91065 7.94105C1.80782 8.11659 1.77749 8.24187 1.76122 8.55809C1.73784 9.01248 1.83497 9.37377 2.12212 9.90044C2.34198 10.3037 2.3533 10.5906 2.15535 10.7425C2.0812 10.7995 1.90633 10.9328 1.7667 11.0389C1.28161 11.4075 0.999951 11.9604 1 12.5441C1 12.8408 1.0246 12.9472 1.15384 13.2098C1.30058 13.5081 1.485 13.7096 2.08708 14.2298C2.36222 14.4675 2.36457 14.6676 2.09816 15.1661C1.75333 15.8116 1.66173 16.398 1.82904 16.8893C1.99921 17.389 2.56198 17.8153 3.29252 17.998C3.70317 18.1007 3.78065 18.147 3.88754 18.3537C3.9467 18.4682 3.95013 18.5649 3.90724 18.9101C3.76825 20.0296 4.16886 20.7604 5.06426 21.0208C5.29235 21.0871 5.4731 21.0988 5.95271 21.0781C6.51308 21.0538 6.56577 21.0594 6.71363 21.1587C6.8236 21.2325 6.89227 21.3328 6.93672 21.4845C7.2298 22.4854 7.61908 22.9915 8.23719 23.1752C8.71895 23.3183 9.21919 23.2316 9.83759 22.8977C10.4036 22.5923 10.5684 22.6224 10.9435 23.1002C11.3998 23.6812 11.9507 24.003 12.4841 24C13.0973 23.9964 13.5199 23.7274 14.2293 22.889C14.4407 22.6391 14.6538 22.6423 15.1658 22.9031C16.0876 23.3725 16.7528 23.3583 17.3006 22.8575C17.61 22.5746 17.8283 22.1903 17.9696 21.68C18.0313 21.4574 18.1184 21.2664 18.1917 21.193C18.3097 21.075 18.3297 21.0723 19.1107 21.0693C19.8815 21.0663 19.9187 21.0615 20.1865 20.9299C20.8705 20.5938 21.2028 19.8261 21.0701 18.888C21.0228 18.553 21.0249 18.4617 21.0827 18.3498C21.1849 18.1522 21.2425 18.1175 21.7402 17.9547C22.2714 17.7811 22.5511 17.6268 22.817 17.3607C23.0863 17.0913 23.1852 16.8609 23.208 16.4503C23.2314 16.0267 23.1402 15.6777 22.8697 15.1559C22.7422 14.9101 22.6781 14.722 22.6781 14.5941C22.6781 14.4233 22.7067 14.3769 22.9345 14.179C23.8733 13.3634 24.1464 12.7951 23.9301 12.107C23.8228 11.7657 23.4437 11.2592 23.0929 10.9885C22.9423 10.8722 22.7873 10.7317 22.7486 10.6764C22.6254 10.5003 22.6639 10.2394 22.8701 9.85351C22.9756 9.65591 23.0969 9.3744 23.1396 9.22789C23.2271 8.92746 23.241 8.44869 23.1693 8.19877C23.047 7.77217 22.5887 7.36529 21.9754 7.13895C21.7823 7.06765 21.5262 6.97238 21.4062 6.92722C21.2617 6.87279 21.157 6.79203 21.0963 6.68798C21.013 6.54525 21.0098 6.49597 21.0622 6.15028C21.2883 4.65852 20.38 3.72433 18.8977 3.92395C18.5877 3.96567 18.4736 3.96307 18.3499 3.91134C18.1389 3.82313 18.1023 3.76728 17.9755 3.34049C17.7689 2.64529 17.4084 2.13127 16.9699 1.90699C16.7249 1.78166 16.2647 1.74267 15.9069 1.81701C15.7554 1.84844 15.436 1.9724 15.1972 2.09238C14.6641 2.36026 14.4501 2.37781 14.2569 2.16947C14.1849 2.09175 14.0429 1.91684 13.9414 1.78072C13.5198 1.21566 12.7502 0.892084 12.1626 1.03281ZM12.7479 2.12092C12.8147 2.15137 12.9852 2.31926 13.127 2.49407C13.5834 3.05693 14.0573 3.3475 14.5188 3.3475C14.8591 3.3475 15.1092 3.27596 15.6749 3.01677C16.2218 2.76621 16.4294 2.74556 16.6378 2.92101C16.742 3.00878 16.7967 3.11704 16.8421 3.32554C17.0078 4.08728 17.486 4.70383 18.0537 4.88785C18.2904 4.96449 18.4648 4.97881 19.047 4.9692C19.8401 4.95616 19.9496 4.9893 20.0207 5.2637C20.0431 5.35029 20.0421 5.55427 20.0184 5.71697C19.9637 6.09306 20.0005 6.68656 20.0955 6.95944C20.2822 7.49567 20.653 7.79767 21.4667 8.07609C21.8329 8.20137 22.0246 8.29453 22.0915 8.37956C22.2434 8.5728 22.2154 8.82258 21.9957 9.23304C21.4102 10.3271 21.5611 11.1086 22.5062 11.8758C22.7303 12.0577 22.8457 12.1927 22.901 12.3376C23.0132 12.6316 22.9322 12.791 22.5066 13.1144C21.5541 13.8378 21.3963 14.6641 21.996 15.7866C22.2924 16.3413 22.238 16.6299 21.8015 16.8177C21.6671 16.8756 21.5282 16.9235 21.4928 16.9242C21.3499 16.9271 20.7467 17.2217 20.5452 17.3868C20.2241 17.6501 20.0352 18.069 20.0017 18.592C19.9871 18.8201 19.9945 19.1399 20.0183 19.3027C20.07 19.6575 20.0193 19.8894 19.8712 19.9741C19.7963 20.0169 19.5234 20.0373 19.0024 20.039C18.3326 20.0412 18.2095 20.0546 17.9623 20.1523C17.4391 20.3592 17.0469 20.8803 16.8634 21.6129C16.7608 22.0227 16.5928 22.2185 16.344 22.2185C16.2508 22.2185 15.9425 22.1134 15.6419 21.979C14.9623 21.6752 14.6363 21.6037 14.2739 21.679C13.9319 21.75 13.5301 22.0408 13.1474 22.4942C12.8304 22.8699 12.7203 22.9498 12.516 22.9523C12.2902 22.9551 12.0837 22.8211 11.8225 22.5021C11.5194 22.1319 11.0968 21.8132 10.7983 21.7296C10.6607 21.691 10.4289 21.6755 10.2055 21.6898C9.88969 21.7101 9.76653 21.7485 9.31946 21.966C9.03389 22.1049 8.73762 22.2185 8.66107 22.2185C8.4368 22.2185 8.24336 22.0124 8.09614 21.6167C7.75831 20.7089 7.55091 20.3942 7.15726 20.192C6.88536 20.0523 6.45422 19.9988 5.88444 20.0339C5.43595 20.0615 5.3098 20.0538 5.18875 19.9911C5.10739 19.949 5.02295 19.8869 5.00099 19.853C4.97908 19.8191 4.96017 19.4493 4.95889 19.0313C4.95703 18.3808 4.94208 18.235 4.85553 18.0197C4.64023 17.484 4.24982 17.1601 3.55663 16.9422C3.01022 16.7705 2.93088 16.7289 2.84957 16.5715C2.74028 16.3601 2.76694 16.1659 2.95126 15.8303C3.30928 15.1787 3.40999 14.5935 3.24473 14.1249C3.13927 13.8258 2.82629 13.4306 2.45906 13.1327C2.07478 12.821 1.93706 12.5455 2.04969 12.3138C2.08757 12.2359 2.27263 12.0432 2.46088 11.8857C3.42161 11.0818 3.56437 10.3414 2.97219 9.23304C2.75709 8.83052 2.73484 8.63767 2.87653 8.40515C2.95244 8.28065 3.03179 8.23123 3.2562 8.16896C3.95415 7.97512 4.38327 7.72946 4.64449 7.37412C4.91297 7.00886 4.95409 6.82474 4.95776 5.97189L4.96114 5.19549L5.09646 5.07894C5.22751 4.96606 5.25559 4.96268 5.97863 4.97273C6.61889 4.98166 6.76283 4.9693 6.9871 4.88609C7.49474 4.69775 7.75768 4.35437 8.05409 3.4925C8.30918 2.75091 8.55658 2.64397 9.20895 2.99348C9.70674 3.26017 10.0737 3.35785 10.471 3.32931C10.9677 3.29362 11.2981 3.09194 11.8182 2.50692C11.9741 2.33162 12.1491 2.16137 12.2071 2.12862C12.341 2.05301 12.5911 2.04948 12.7479 2.12092ZM11.3569 5.27586C9.75614 5.54603 8.39603 6.25026 7.27484 7.38937C5.91012 8.7759 5.18169 10.5578 5.18169 12.5098C5.18169 15.9711 7.56478 18.9161 10.9798 19.6751C11.6859 19.8321 12.9289 19.8555 13.6848 19.7261C15.2204 19.4633 16.5732 18.7606 17.6609 17.6608C18.6802 16.6302 19.3281 15.436 19.6526 13.9898C19.7432 13.5866 19.7592 13.3635 19.7592 12.5098C19.7592 11.6561 19.7432 11.4331 19.6526 11.0298C19.4994 10.3469 19.3284 9.86317 19.0233 9.24907C17.9913 7.17224 16.0006 5.69049 13.7167 5.2991C13.069 5.18809 11.9426 5.17701 11.3569 5.27586ZM13.8074 6.37539C15.0282 6.65386 16.0085 7.19725 16.9013 8.09045C17.811 9.00067 18.3682 10.0243 18.6397 11.284C18.7652 11.8667 18.7652 13.1529 18.6397 13.7357C18.3682 14.9953 17.811 16.019 16.9013 16.9292C15.9918 17.8392 14.9706 18.3957 13.7093 18.6688C13.0913 18.8026 11.7896 18.7924 11.1799 18.6489C9.90969 18.35 8.96586 17.8285 8.06693 16.9292C7.15716 16.019 6.59997 14.9953 6.32856 13.7357C6.203 13.1529 6.203 11.8667 6.32856 11.284C6.60257 10.0122 7.14628 9.01489 8.06859 8.09212C8.78889 7.37147 9.47688 6.92742 10.3713 6.606C10.7437 6.47214 11.4269 6.30645 11.7735 6.26595C12.1974 6.21638 13.392 6.28066 13.8074 6.37539Z"/>
</mask>
<path fill-rule="evenodd" clip-rule="evenodd" d="M12.1626 1.03281C11.7443 1.13299 11.3266 1.45097 10.7899 2.07787C10.6089 2.28935 10.5709 2.31078 10.3776 2.31078C10.2261 2.31078 10.0999 2.2694 9.93992 2.16716C9.5032 1.88826 9.21762 1.80279 8.71037 1.79921C8.29722 1.79632 8.21695 1.81064 7.99778 1.9264C7.54522 2.1654 7.19843 2.64048 7.01773 3.26905C6.83551 3.90291 6.69378 4.00559 6.10405 3.93106C5.67404 3.87668 5.11788 3.9365 4.81735 4.06953C4.12122 4.37761 3.78359 5.12155 3.90401 6.08212C3.94371 6.39893 3.94062 6.51975 3.8896 6.64175C3.7979 6.86132 3.72503 6.90795 3.30649 7.01504C2.63785 7.18612 2.17172 7.49538 1.91065 7.94105C1.80782 8.11659 1.77749 8.24187 1.76122 8.55809C1.73784 9.01248 1.83497 9.37377 2.12212 9.90044C2.34198 10.3037 2.3533 10.5906 2.15535 10.7425C2.0812 10.7995 1.90633 10.9328 1.7667 11.0389C1.28161 11.4075 0.999951 11.9604 1 12.5441C1 12.8408 1.0246 12.9472 1.15384 13.2098C1.30058 13.5081 1.485 13.7096 2.08708 14.2298C2.36222 14.4675 2.36457 14.6676 2.09816 15.1661C1.75333 15.8116 1.66173 16.398 1.82904 16.8893C1.99921 17.389 2.56198 17.8153 3.29252 17.998C3.70317 18.1007 3.78065 18.147 3.88754 18.3537C3.9467 18.4682 3.95013 18.5649 3.90724 18.9101C3.76825 20.0296 4.16886 20.7604 5.06426 21.0208C5.29235 21.0871 5.4731 21.0988 5.95271 21.0781C6.51308 21.0538 6.56577 21.0594 6.71363 21.1587C6.8236 21.2325 6.89227 21.3328 6.93672 21.4845C7.2298 22.4854 7.61908 22.9915 8.23719 23.1752C8.71895 23.3183 9.21919 23.2316 9.83759 22.8977C10.4036 22.5923 10.5684 22.6224 10.9435 23.1002C11.3998 23.6812 11.9507 24.003 12.4841 24C13.0973 23.9964 13.5199 23.7274 14.2293 22.889C14.4407 22.6391 14.6538 22.6423 15.1658 22.9031C16.0876 23.3725 16.7528 23.3583 17.3006 22.8575C17.61 22.5746 17.8283 22.1903 17.9696 21.68C18.0313 21.4574 18.1184 21.2664 18.1917 21.193C18.3097 21.075 18.3297 21.0723 19.1107 21.0693C19.8815 21.0663 19.9187 21.0615 20.1865 20.9299C20.8705 20.5938 21.2028 19.8261 21.0701 18.888C21.0228 18.553 21.0249 18.4617 21.0827 18.3498C21.1849 18.1522 21.2425 18.1175 21.7402 17.9547C22.2714 17.7811 22.5511 17.6268 22.817 17.3607C23.0863 17.0913 23.1852 16.8609 23.208 16.4503C23.2314 16.0267 23.1402 15.6777 22.8697 15.1559C22.7422 14.9101 22.6781 14.722 22.6781 14.5941C22.6781 14.4233 22.7067 14.3769 22.9345 14.179C23.8733 13.3634 24.1464 12.7951 23.9301 12.107C23.8228 11.7657 23.4437 11.2592 23.0929 10.9885C22.9423 10.8722 22.7873 10.7317 22.7486 10.6764C22.6254 10.5003 22.6639 10.2394 22.8701 9.85351C22.9756 9.65591 23.0969 9.3744 23.1396 9.22789C23.2271 8.92746 23.241 8.44869 23.1693 8.19877C23.047 7.77217 22.5887 7.36529 21.9754 7.13895C21.7823 7.06765 21.5262 6.97238 21.4062 6.92722C21.2617 6.87279 21.157 6.79203 21.0963 6.68798C21.013 6.54525 21.0098 6.49597 21.0622 6.15028C21.2883 4.65852 20.38 3.72433 18.8977 3.92395C18.5877 3.96567 18.4736 3.96307 18.3499 3.91134C18.1389 3.82313 18.1023 3.76728 17.9755 3.34049C17.7689 2.64529 17.4084 2.13127 16.9699 1.90699C16.7249 1.78166 16.2647 1.74267 15.9069 1.81701C15.7554 1.84844 15.436 1.9724 15.1972 2.09238C14.6641 2.36026 14.4501 2.37781 14.2569 2.16947C14.1849 2.09175 14.0429 1.91684 13.9414 1.78072C13.5198 1.21566 12.7502 0.892084 12.1626 1.03281ZM12.7479 2.12092C12.8147 2.15137 12.9852 2.31926 13.127 2.49407C13.5834 3.05693 14.0573 3.3475 14.5188 3.3475C14.8591 3.3475 15.1092 3.27596 15.6749 3.01677C16.2218 2.76621 16.4294 2.74556 16.6378 2.92101C16.742 3.00878 16.7967 3.11704 16.8421 3.32554C17.0078 4.08728 17.486 4.70383 18.0537 4.88785C18.2904 4.96449 18.4648 4.97881 19.047 4.9692C19.8401 4.95616 19.9496 4.9893 20.0207 5.2637C20.0431 5.35029 20.0421 5.55427 20.0184 5.71697C19.9637 6.09306 20.0005 6.68656 20.0955 6.95944C20.2822 7.49567 20.653 7.79767 21.4667 8.07609C21.8329 8.20137 22.0246 8.29453 22.0915 8.37956C22.2434 8.5728 22.2154 8.82258 21.9957 9.23304C21.4102 10.3271 21.5611 11.1086 22.5062 11.8758C22.7303 12.0577 22.8457 12.1927 22.901 12.3376C23.0132 12.6316 22.9322 12.791 22.5066 13.1144C21.5541 13.8378 21.3963 14.6641 21.996 15.7866C22.2924 16.3413 22.238 16.6299 21.8015 16.8177C21.6671 16.8756 21.5282 16.9235 21.4928 16.9242C21.3499 16.9271 20.7467 17.2217 20.5452 17.3868C20.2241 17.6501 20.0352 18.069 20.0017 18.592C19.9871 18.8201 19.9945 19.1399 20.0183 19.3027C20.07 19.6575 20.0193 19.8894 19.8712 19.9741C19.7963 20.0169 19.5234 20.0373 19.0024 20.039C18.3326 20.0412 18.2095 20.0546 17.9623 20.1523C17.4391 20.3592 17.0469 20.8803 16.8634 21.6129C16.7608 22.0227 16.5928 22.2185 16.344 22.2185C16.2508 22.2185 15.9425 22.1134 15.6419 21.979C14.9623 21.6752 14.6363 21.6037 14.2739 21.679C13.9319 21.75 13.5301 22.0408 13.1474 22.4942C12.8304 22.8699 12.7203 22.9498 12.516 22.9523C12.2902 22.9551 12.0837 22.8211 11.8225 22.5021C11.5194 22.1319 11.0968 21.8132 10.7983 21.7296C10.6607 21.691 10.4289 21.6755 10.2055 21.6898C9.88969 21.7101 9.76653 21.7485 9.31946 21.966C9.03389 22.1049 8.73762 22.2185 8.66107 22.2185C8.4368 22.2185 8.24336 22.0124 8.09614 21.6167C7.75831 20.7089 7.55091 20.3942 7.15726 20.192C6.88536 20.0523 6.45422 19.9988 5.88444 20.0339C5.43595 20.0615 5.3098 20.0538 5.18875 19.9911C5.10739 19.949 5.02295 19.8869 5.00099 19.853C4.97908 19.8191 4.96017 19.4493 4.95889 19.0313C4.95703 18.3808 4.94208 18.235 4.85553 18.0197C4.64023 17.484 4.24982 17.1601 3.55663 16.9422C3.01022 16.7705 2.93088 16.7289 2.84957 16.5715C2.74028 16.3601 2.76694 16.1659 2.95126 15.8303C3.30928 15.1787 3.40999 14.5935 3.24473 14.1249C3.13927 13.8258 2.82629 13.4306 2.45906 13.1327C2.07478 12.821 1.93706 12.5455 2.04969 12.3138C2.08757 12.2359 2.27263 12.0432 2.46088 11.8857C3.42161 11.0818 3.56437 10.3414 2.97219 9.23304C2.75709 8.83052 2.73484 8.63767 2.87653 8.40515C2.95244 8.28065 3.03179 8.23123 3.2562 8.16896C3.95415 7.97512 4.38327 7.72946 4.64449 7.37412C4.91297 7.00886 4.95409 6.82474 4.95776 5.97189L4.96114 5.19549L5.09646 5.07894C5.22751 4.96606 5.25559 4.96268 5.97863 4.97273C6.61889 4.98166 6.76283 4.9693 6.9871 4.88609C7.49474 4.69775 7.75768 4.35437 8.05409 3.4925C8.30918 2.75091 8.55658 2.64397 9.20895 2.99348C9.70674 3.26017 10.0737 3.35785 10.471 3.32931C10.9677 3.29362 11.2981 3.09194 11.8182 2.50692C11.9741 2.33162 12.1491 2.16137 12.2071 2.12862C12.341 2.05301 12.5911 2.04948 12.7479 2.12092ZM11.3569 5.27586C9.75614 5.54603 8.39603 6.25026 7.27484 7.38937C5.91012 8.7759 5.18169 10.5578 5.18169 12.5098C5.18169 15.9711 7.56478 18.9161 10.9798 19.6751C11.6859 19.8321 12.9289 19.8555 13.6848 19.7261C15.2204 19.4633 16.5732 18.7606 17.6609 17.6608C18.6802 16.6302 19.3281 15.436 19.6526 13.9898C19.7432 13.5866 19.7592 13.3635 19.7592 12.5098C19.7592 11.6561 19.7432 11.4331 19.6526 11.0298C19.4994 10.3469 19.3284 9.86317 19.0233 9.24907C17.9913 7.17224 16.0006 5.69049 13.7167 5.2991C13.069 5.18809 11.9426 5.17701 11.3569 5.27586ZM13.8074 6.37539C15.0282 6.65386 16.0085 7.19725 16.9013 8.09045C17.811 9.00067 18.3682 10.0243 18.6397 11.284C18.7652 11.8667 18.7652 13.1529 18.6397 13.7357C18.3682 14.9953 17.811 16.019 16.9013 16.9292C15.9918 17.8392 14.9706 18.3957 13.7093 18.6688C13.0913 18.8026 11.7896 18.7924 11.1799 18.6489C9.90969 18.35 8.96586 17.8285 8.06693 16.9292C7.15716 16.019 6.59997 14.9953 6.32856 13.7357C6.203 13.1529 6.203 11.8667 6.32856 11.284C6.60257 10.0122 7.14628 9.01489 8.06859 8.09212C8.78889 7.37147 9.47688 6.92742 10.3713 6.606C10.7437 6.47214 11.4269 6.30645 11.7735 6.26595C12.1974 6.21638 13.392 6.28066 13.8074 6.37539Z" fill="#197AFF"/>
<path d="M13.4299 11.8828L13.3593 11.8121L13.4299 11.8828ZM11.4569 13.8546L11.3865 13.9257L11.4572 13.9957L11.5276 13.9254L11.4569 13.8546ZM10.537 12.9432L10.4666 13.0142L10.4666 13.0142L10.537 12.9432ZM9.46007 11.9977L9.43888 12.0954L9.43889 12.0954L9.46007 11.9977ZM8.83535 12.6225L8.73758 12.6435L8.73759 12.6435L8.83535 12.6225ZM9.95374 13.8746L10.0248 13.8042L10.0248 13.8042L9.95374 13.8746ZM11.1707 15.0391L11.1241 15.1277L11.1242 15.1277L11.1707 15.0391ZM13.3593 11.8121L11.3862 13.7839L11.5276 13.9254L13.5006 11.9536L13.3593 11.8121ZM11.5273 13.7836L10.6073 12.8721L10.4666 13.0142L11.3865 13.9257L11.5273 13.7836ZM10.6073 12.8722C10.266 12.534 10.024 12.302 9.85222 12.1512C9.76639 12.0758 9.69621 12.019 9.63866 11.9789C9.58348 11.9405 9.53072 11.9107 9.48126 11.9L9.43889 12.0954C9.44767 12.0973 9.47332 12.1075 9.52434 12.143C9.57298 12.1769 9.63675 12.2281 9.72027 12.3015C9.88713 12.448 10.1253 12.6761 10.4666 13.0142L10.6073 12.8722ZM9.48127 11.9C9.26702 11.8535 9.05876 11.9386 8.91771 12.0797C8.77666 12.2207 8.69151 12.429 8.73758 12.6435L8.93312 12.6014C8.90396 12.4658 8.9564 12.3238 9.05913 12.2211C9.16187 12.1183 9.30359 12.0661 9.43888 12.0954L9.48127 11.9ZM8.73759 12.6435C8.74867 12.695 8.78198 12.7511 8.82498 12.8106C8.87024 12.8733 8.93538 12.9518 9.02343 13.0504C9.19973 13.2478 9.47462 13.533 9.8827 13.945L10.0248 13.8042C9.61666 13.3921 9.34507 13.1103 9.17259 12.9172C9.08624 12.8205 9.02641 12.7479 8.98712 12.6935C8.94557 12.636 8.93474 12.609 8.93311 12.6014L8.73759 12.6435ZM9.88269 13.945C10.1814 14.2466 10.4681 14.5288 10.6895 14.7406C10.8001 14.8465 10.8948 14.9351 10.9667 15C11.0026 15.0324 11.0335 15.0594 11.0581 15.0798C11.0797 15.0977 11.1042 15.1172 11.1241 15.1277L11.2172 14.9506C11.2189 14.9515 11.2104 14.9463 11.1858 14.9259C11.1642 14.9079 11.1356 14.883 11.1006 14.8515C11.0308 14.7885 10.9377 14.7014 10.8277 14.5961C10.6079 14.3858 10.3226 14.1049 10.0248 13.8042L9.88269 13.945ZM11.1242 15.1277C11.1718 15.1527 11.2354 15.1724 11.2971 15.1859C11.3596 15.1996 11.4281 15.2086 11.4879 15.2086V15.0086C11.446 15.0086 11.3923 15.002 11.3399 14.9905C11.2865 14.9788 11.2423 14.9638 11.2171 14.9506L11.1242 15.1277ZM16.1856 10.6453C16.362 10.2379 16.0473 9.81103 15.6033 9.81103V10.011C15.9201 10.011 16.1148 10.3054 16.002 10.5658L16.1856 10.6453ZM15.6033 9.81103C15.5468 9.81103 15.4891 9.81276 15.4076 9.85636C15.3352 9.89507 15.2449 9.96616 15.1077 10.0906C14.8311 10.3416 14.335 10.837 13.3593 11.8121L13.5006 11.9536C14.4788 10.976 14.9701 10.4855 15.2421 10.2388C15.3792 10.1144 15.4535 10.0586 15.5019 10.0327C15.5412 10.0117 15.5606 10.011 15.6033 10.011V9.81103ZM12.1626 1.03281L12.2092 1.22731L12.2092 1.22731L12.1626 1.03281ZM10.7899 2.07787L10.638 1.94779L10.638 1.94781L10.7899 2.07787ZM9.93992 2.16716L10.0476 1.99862L10.0476 1.9986L9.93992 2.16716ZM8.71037 1.79921L8.71178 1.59922L8.71177 1.59922L8.71037 1.79921ZM7.99778 1.9264L8.09117 2.10326L8.09119 2.10325L7.99778 1.9264ZM7.01773 3.26905L6.82552 3.21379L6.82552 3.21379L7.01773 3.26905ZM6.10405 3.93106L6.07895 4.12948L6.07897 4.12948L6.10405 3.93106ZM4.81735 4.06953L4.89829 4.25242L4.89831 4.25241L4.81735 4.06953ZM3.90401 6.08212L4.10246 6.05726L4.10246 6.05725L3.90401 6.08212ZM3.8896 6.64175L3.70509 6.56458L3.70505 6.56467L3.8896 6.64175ZM3.30649 7.01504L3.35606 7.2088L3.35606 7.2088L3.30649 7.01504ZM1.91065 7.94105L1.73808 7.83995L1.73807 7.83996L1.91065 7.94105ZM1.76122 8.55809L1.56148 8.54781L1.56148 8.54781L1.76122 8.55809ZM2.12212 9.90044L2.29772 9.80471L2.29772 9.8047L2.12212 9.90044ZM2.15535 10.7425L2.03357 10.5839L2.03356 10.5839L2.15535 10.7425ZM1.7667 11.0389L1.64573 10.8796L1.64571 10.8797L1.7667 11.0389ZM1 12.5441H1.2V12.5441L1 12.5441ZM1.15384 13.2098L1.33329 13.1215L1.33329 13.1215L1.15384 13.2098ZM2.08708 14.2298L1.95632 14.3812L1.95633 14.3812L2.08708 14.2298ZM2.09816 15.1661L1.92176 15.0719L1.92175 15.0719L2.09816 15.1661ZM1.82904 16.8893L1.63972 16.9538L1.63972 16.9538L1.82904 16.8893ZM3.29252 17.998L3.34103 17.804H3.34103L3.29252 17.998ZM3.88754 18.3537L4.06523 18.2619L4.0652 18.2619L3.88754 18.3537ZM3.90724 18.9101L3.70877 18.8855L3.70877 18.8855L3.90724 18.9101ZM5.06426 21.0208L5.12012 20.8287L5.12011 20.8287L5.06426 21.0208ZM5.95271 21.0781L5.94407 20.8782H5.94406L5.95271 21.0781ZM6.71363 21.1587L6.82512 20.9926L6.82509 20.9926L6.71363 21.1587ZM6.93672 21.4845L7.12866 21.4283L7.12865 21.4283L6.93672 21.4845ZM8.23719 23.1752L8.18022 23.3669L8.18023 23.3669L8.23719 23.1752ZM9.83759 22.8977L9.7426 22.7217L9.74258 22.7218L9.83759 22.8977ZM10.9435 23.1002L10.7862 23.2237L10.7862 23.2237L10.9435 23.1002ZM12.4841 24L12.4852 24.2H12.4853L12.4841 24ZM14.2293 22.889L14.382 23.0181L14.382 23.0181L14.2293 22.889ZM15.1658 22.9031L15.2566 22.7249H15.2566L15.1658 22.9031ZM17.3006 22.8575L17.4355 23.0051L17.4355 23.0051L17.3006 22.8575ZM17.9696 21.68L18.1624 21.7334L17.9696 21.68ZM18.1917 21.193L18.0502 21.0516L18.1917 21.193ZM19.1107 21.0693L19.1115 21.2693H19.1115L19.1107 21.0693ZM20.1865 20.9299L20.0983 20.7504L20.0983 20.7504L20.1865 20.9299ZM21.0701 18.888L20.8721 18.916L20.8721 18.916L21.0701 18.888ZM21.0827 18.3498L21.2604 18.4417L21.2604 18.4417L21.0827 18.3498ZM21.7402 17.9547L21.6781 17.7646L21.6781 17.7646L21.7402 17.9547ZM22.817 17.3607L22.6756 17.2194L22.817 17.3607ZM23.208 16.4503L23.4077 16.4613L23.4077 16.4613L23.208 16.4503ZM22.8697 15.1559L23.0472 15.0638L23.0472 15.0638L22.8697 15.1559ZM22.9345 14.179L23.0656 14.33L23.0656 14.33L22.9345 14.179ZM23.9301 12.107L24.1209 12.047L24.1209 12.047L23.9301 12.107ZM23.0929 10.9885L23.2151 10.8301L23.2151 10.8301L23.0929 10.9885ZM22.7486 10.6764L22.5847 10.791L22.5847 10.7911L22.7486 10.6764ZM22.8701 9.85351L23.0465 9.94776L23.0465 9.94775L22.8701 9.85351ZM23.1396 9.22789L23.3316 9.28383L23.1396 9.22789ZM23.1693 8.19877L22.9771 8.25388L22.9771 8.25389L23.1693 8.19877ZM21.9754 7.13895L21.9062 7.32657L21.9062 7.32658L21.9754 7.13895ZM21.4062 6.92722L21.3357 7.11439L21.3358 7.11441L21.4062 6.92722ZM21.0963 6.68798L21.269 6.58718L21.269 6.58716L21.0963 6.68798ZM21.0622 6.15028L21.26 6.18025V6.18024L21.0622 6.15028ZM18.8977 3.92395L18.9244 4.12216L18.9244 4.12216L18.8977 3.92395ZM18.3499 3.91134L18.4271 3.72684L18.4271 3.72682L18.3499 3.91134ZM17.9755 3.34049L18.1672 3.28354L18.1672 3.28352L17.9755 3.34049ZM16.9699 1.90699L16.8788 2.08503L16.8788 2.08505L16.9699 1.90699ZM15.9069 1.81701L15.9475 2.01284L15.9476 2.01283L15.9069 1.81701ZM15.1972 2.09238L15.1074 1.91367L15.1074 1.91367L15.1972 2.09238ZM14.2569 2.16947L14.1103 2.30543L14.1103 2.30544L14.2569 2.16947ZM13.9414 1.78072L14.1017 1.66117L14.1017 1.66114L13.9414 1.78072ZM12.7479 2.12092L12.8309 1.93896L12.8308 1.93892L12.7479 2.12092ZM13.127 2.49407L13.2824 2.3681L13.2823 2.36808L13.127 2.49407ZM15.6749 3.01677L15.5916 2.83495L15.5916 2.83495L15.6749 3.01677ZM16.6378 2.92101L16.7666 2.76802L16.7666 2.76801L16.6378 2.92101ZM16.8421 3.32554L17.0375 3.28303L17.0375 3.283L16.8421 3.32554ZM18.0537 4.88785L17.9921 5.07811L17.9921 5.07812L18.0537 4.88785ZM19.047 4.9692L19.0437 4.76923H19.0437L19.047 4.9692ZM20.0207 5.2637L20.2143 5.21362L20.2143 5.21356L20.0207 5.2637ZM20.0184 5.71697L20.2164 5.74578L20.2164 5.74576L20.0184 5.71697ZM20.0955 6.95944L20.2844 6.8937L20.2844 6.89369L20.0955 6.95944ZM21.4667 8.07609L21.4019 8.26531L21.4019 8.26532L21.4667 8.07609ZM22.0915 8.37956L22.2488 8.25597L22.2487 8.25588L22.0915 8.37956ZM21.9957 9.23304L22.1721 9.32742L22.1721 9.32741L21.9957 9.23304ZM22.5062 11.8758L22.3801 12.031L22.3801 12.0311L22.5062 11.8758ZM22.901 12.3376L22.7141 12.4089L22.7141 12.4089L22.901 12.3376ZM22.5066 13.1144L22.3856 12.9551L22.3856 12.9551L22.5066 13.1144ZM21.996 15.7866L21.8196 15.8809L21.8196 15.8809L21.996 15.7866ZM21.8015 16.8177L21.7224 16.634L21.7224 16.634L21.8015 16.8177ZM21.4928 16.9242L21.4969 17.1242H21.4969L21.4928 16.9242ZM20.5452 17.3868L20.4185 17.2322L20.4184 17.2322L20.5452 17.3868ZM20.0017 18.592L19.8021 18.5792V18.5792L20.0017 18.592ZM20.0183 19.3027L20.2162 19.2738L20.2162 19.2738L20.0183 19.3027ZM19.8712 19.9741L19.7719 19.8005L19.7719 19.8005L19.8712 19.9741ZM19.0024 20.039L19.0017 19.839L19.0024 20.039ZM17.9623 20.1523L18.0359 20.3383L18.0359 20.3383L17.9623 20.1523ZM16.8634 21.6129L16.6694 21.5643L16.6694 21.5643L16.8634 21.6129ZM15.6419 21.979L15.7236 21.7964L15.7236 21.7964L15.6419 21.979ZM14.2739 21.679L14.2332 21.4831L14.2332 21.4831L14.2739 21.679ZM13.1474 22.4942L13.3003 22.6232L13.3003 22.6232L13.1474 22.4942ZM12.516 22.9523L12.5185 23.1523L12.5185 23.1523L12.516 22.9523ZM11.8225 22.5021L11.6677 22.6288L11.6677 22.6288L11.8225 22.5021ZM10.7983 21.7296L10.7443 21.9222L10.7444 21.9222L10.7983 21.7296ZM10.2055 21.6898L10.2183 21.8894L10.2183 21.8894L10.2055 21.6898ZM9.31946 21.966L9.40695 22.1458L9.31946 21.966ZM8.09614 21.6167L8.28358 21.547L8.28358 21.547L8.09614 21.6167ZM7.15726 20.192L7.06586 20.3699L7.06589 20.3699L7.15726 20.192ZM5.88444 20.0339L5.87214 19.8343H5.87213L5.88444 20.0339ZM5.18875 19.9911L5.28069 19.8135L5.28061 19.8135L5.18875 19.9911ZM5.00099 19.853L4.83304 19.9616L4.83308 19.9616L5.00099 19.853ZM4.95889 19.0313L4.75889 19.0319V19.0319L4.95889 19.0313ZM4.85553 18.0197L5.0411 17.9451L5.0411 17.9451L4.85553 18.0197ZM3.55663 16.9422L3.61661 16.7514L3.61659 16.7514L3.55663 16.9422ZM2.84957 16.5715L3.02725 16.4797L3.02724 16.4797L2.84957 16.5715ZM2.95126 15.8303L2.77598 15.734L2.77597 15.7341L2.95126 15.8303ZM3.24473 14.1249L3.43335 14.0583L3.43334 14.0583L3.24473 14.1249ZM2.45906 13.1327L2.58506 12.9774L2.58505 12.9774L2.45906 13.1327ZM2.04969 12.3138L2.22955 12.4013L2.22957 12.4012L2.04969 12.3138ZM2.46088 11.8857L2.33253 11.7323L2.33251 11.7323L2.46088 11.8857ZM2.97219 9.23304L3.14859 9.13879L3.14859 9.13878L2.97219 9.23304ZM2.87653 8.40515L2.70577 8.30103L2.70574 8.30108L2.87653 8.40515ZM3.2562 8.16896L3.30968 8.36167L3.30972 8.36166L3.2562 8.16896ZM4.64449 7.37412L4.80564 7.49257L4.80564 7.49257L4.64449 7.37412ZM4.95776 5.97189L4.75777 5.97102V5.97103L4.95776 5.97189ZM4.96114 5.19549L4.83062 5.04396L4.76154 5.10345L4.76115 5.19462L4.96114 5.19549ZM5.09646 5.07894L4.96594 4.9274L4.96593 4.9274L5.09646 5.07894ZM5.97863 4.97273L5.98142 4.77275L5.98141 4.77275L5.97863 4.97273ZM6.9871 4.88609L6.91753 4.69858L6.91753 4.69858L6.9871 4.88609ZM8.05409 3.4925L7.86496 3.42744L7.86496 3.42745L8.05409 3.4925ZM9.20895 2.99348L9.1145 3.16977L9.1145 3.16977L9.20895 2.99348ZM10.471 3.32931L10.4854 3.5288L10.4854 3.5288L10.471 3.32931ZM11.8182 2.50692L11.6688 2.37401L11.6687 2.37403L11.8182 2.50692ZM12.2071 2.12862L12.3054 2.30279L12.3054 2.30279L12.2071 2.12862ZM11.3569 5.27586L11.3236 5.07865H11.3236L11.3569 5.27586ZM7.27484 7.38937L7.1323 7.24907H7.1323L7.27484 7.38937ZM10.9798 19.6751L11.0232 19.4799L11.0232 19.4799L10.9798 19.6751ZM13.6848 19.7261L13.6511 19.529L13.6511 19.529L13.6848 19.7261ZM17.6609 17.6608L17.8031 17.8015L17.8031 17.8015L17.6609 17.6608ZM19.6526 13.9898L19.4575 13.946L19.4575 13.946L19.6526 13.9898ZM19.6526 11.0298L19.4575 11.0736L19.4575 11.0736L19.6526 11.0298ZM19.0233 9.24907L19.2024 9.16008L19.2024 9.16007L19.0233 9.24907ZM13.7167 5.2991L13.683 5.49623L13.683 5.49623L13.7167 5.2991ZM13.8074 6.37539L13.8518 6.1804L13.8518 6.1804L13.8074 6.37539ZM16.9013 8.09045L17.0427 7.94907L16.9013 8.09045ZM18.6397 11.284L18.8352 11.2419V11.2419L18.6397 11.284ZM18.6397 13.7357L18.8352 13.7778V13.7778L18.6397 13.7357ZM16.9013 16.9292L16.7598 16.7878L16.9013 16.9292ZM13.7093 18.6688L13.667 18.4733L13.667 18.4733L13.7093 18.6688ZM11.1799 18.6489L11.2257 18.4542L11.2257 18.4542L11.1799 18.6489ZM8.06693 16.9292L7.92547 17.0706L7.92547 17.0706L8.06693 16.9292ZM6.32856 13.7357L6.13305 13.7778V13.7778L6.32856 13.7357ZM6.32856 11.284L6.13305 11.2419V11.2419L6.32856 11.284ZM8.06859 8.09212L8.21005 8.2335L8.06859 8.09212ZM10.3713 6.606L10.4389 6.79421L10.4389 6.79421L10.3713 6.606ZM11.7735 6.26595L11.7967 6.4646L11.7967 6.4646L11.7735 6.26595ZM12.116 0.83831C11.6333 0.953907 11.1807 1.3139 10.638 1.94779L10.9418 2.20795C11.4726 1.58804 11.8552 1.31207 12.2092 1.22731L12.116 0.83831ZM10.638 1.94781C10.5421 2.05981 10.5099 2.08823 10.49 2.0995C10.4831 2.10336 10.4726 2.11078 10.3776 2.11078V2.51078C10.4759 2.51078 10.581 2.50749 10.6867 2.44776C10.7793 2.39545 10.8567 2.30741 10.9418 2.20793L10.638 1.94781ZM10.3776 2.11078C10.2728 2.11078 10.1836 2.08549 10.0476 1.99862L9.83224 2.3357C10.0163 2.4533 10.1793 2.51078 10.3776 2.51078V2.11078ZM10.0476 1.9986C9.82049 1.85358 9.62251 1.75225 9.40893 1.68833C9.19512 1.62435 8.97645 1.60108 8.71178 1.59922L8.70896 1.99921C8.95155 2.00092 9.12929 2.02218 9.29426 2.07154C9.45946 2.12098 9.62263 2.20183 9.83228 2.33572L10.0476 1.9986ZM8.71177 1.59922C8.50797 1.59779 8.36633 1.59998 8.24619 1.62142C8.11697 1.64448 8.02067 1.68812 7.90436 1.74956L8.09119 2.10325C8.19405 2.04892 8.24747 2.02751 8.31647 2.0152C8.39455 2.00126 8.49962 1.99774 8.70897 1.99921L8.71177 1.59922ZM7.90438 1.74955C7.39124 2.02054 7.01684 2.54827 6.82552 3.21379L7.20995 3.32431C7.38002 2.7327 7.69921 2.31025 8.09117 2.10326L7.90438 1.74955ZM6.82552 3.21379C6.73215 3.53858 6.66496 3.65404 6.59636 3.70374C6.53499 3.74821 6.42795 3.7704 6.12912 3.73263L6.07897 4.12948C6.36988 4.16624 6.62857 4.17436 6.83105 4.02766C7.02631 3.88619 7.1211 3.63338 7.20995 3.32431L6.82552 3.21379ZM6.12914 3.73264C5.89625 3.70318 5.63388 3.705 5.39075 3.73116C5.14993 3.75707 4.91303 3.80846 4.7364 3.88664L4.89831 4.25241C5.0222 4.19757 5.21365 4.15253 5.43354 4.12887C5.65112 4.10545 5.88184 4.10455 6.07895 4.12948L6.12914 3.73264ZM4.73641 3.88664C3.93424 4.24165 3.57805 5.08978 3.70556 6.107L4.10246 6.05725C3.98914 5.15332 4.3082 4.51357 4.89829 4.25242L4.73641 3.88664ZM3.70556 6.10699C3.74546 6.42543 3.73336 6.49697 3.70509 6.56458L4.07412 6.71891C4.14788 6.54253 4.14195 6.37243 4.10246 6.05726L3.70556 6.10699ZM3.70505 6.56467C3.66516 6.6602 3.64408 6.68209 3.61278 6.70213C3.56257 6.73427 3.47231 6.76617 3.25691 6.82128L3.35606 7.2088C3.5592 7.15682 3.71465 7.11186 3.82844 7.03902C3.96114 6.95407 4.02235 6.84287 4.07415 6.71882L3.70505 6.56467ZM3.25691 6.82128C2.55452 7.001 2.03426 7.33436 1.73808 7.83995L2.08322 8.04214C2.30918 7.6564 2.72118 7.37124 3.35606 7.2088L3.25691 6.82128ZM1.73807 7.83996C1.67934 7.94023 1.63721 8.03364 1.60909 8.14974C1.58208 8.26128 1.56976 8.38685 1.56148 8.54781L1.96095 8.56836C1.96894 8.4131 1.97992 8.31793 1.99786 8.24389C2.01468 8.17441 2.03913 8.1174 2.08322 8.04213L1.73807 7.83996ZM1.56148 8.54781C1.53569 9.04909 1.64719 9.44715 1.94652 9.99618L2.29772 9.8047C2.02276 9.30038 1.93999 8.97588 1.96095 8.56836L1.56148 8.54781ZM1.94652 9.99617C2.04974 10.1855 2.09174 10.3265 2.09557 10.4236C2.09899 10.5104 2.07317 10.5535 2.03357 10.5839L2.27713 10.9012C2.43548 10.7796 2.50297 10.6033 2.49526 10.4079C2.48795 10.2227 2.41436 10.0187 2.29772 9.80471L1.94652 9.99617ZM2.03356 10.5839C1.9598 10.6405 1.78524 10.7737 1.64573 10.8796L1.88768 11.1982C2.02742 11.092 2.2026 10.9584 2.27714 10.9012L2.03356 10.5839ZM1.64571 10.8797C1.11338 11.2841 0.799945 11.8948 0.8 12.5442L1.2 12.5441C1.19996 12.0261 1.44984 11.5309 1.8877 11.1982L1.64571 10.8797ZM0.8 12.5441C0.8 12.6964 0.806034 12.8155 0.833593 12.9348C0.861195 13.0542 0.907921 13.1631 0.974392 13.2981L1.33329 13.1215C1.27052 12.994 1.24033 12.9183 1.22332 12.8447C1.20627 12.7709 1.2 12.6886 1.2 12.5441H0.8ZM0.974387 13.2981C1.14091 13.6366 1.35458 13.8613 1.95632 14.3812L2.21784 14.0785C1.61541 13.558 1.46024 13.3795 1.33329 13.1215L0.974387 13.2981ZM1.95633 14.3812C2.07246 14.4815 2.09499 14.5415 2.09572 14.6025C2.09673 14.6884 2.05501 14.8225 1.92176 15.0719L2.27455 15.2604C2.40772 15.0112 2.49803 14.796 2.49569 14.5978C2.49305 14.3748 2.37683 14.2159 2.21783 14.0785L1.95633 14.3812ZM1.92175 15.0719C1.56177 15.7457 1.44824 16.3915 1.63972 16.9538L2.01837 16.8249C1.87521 16.4045 1.94488 15.8775 2.27456 15.2604L1.92175 15.0719ZM1.63972 16.9538C1.84029 17.5428 2.47812 18.0005 3.24401 18.192L3.34103 17.804C2.64584 17.6301 2.15812 17.2352 2.01837 16.8249L1.63972 16.9538ZM3.244 18.192C3.4541 18.2445 3.54681 18.2759 3.60131 18.3085C3.63922 18.3312 3.66388 18.3566 3.70989 18.4456L4.0652 18.2619C4.00432 18.1441 3.93679 18.043 3.80657 17.9652C3.69294 17.8972 3.54159 17.8541 3.34103 17.804L3.244 18.192ZM3.70986 18.4455C3.73658 18.4973 3.75263 18.5324 3.70877 18.8855L4.10572 18.9348C4.14762 18.5975 4.15681 18.4392 4.06523 18.2619L3.70986 18.4455ZM3.70877 18.8855C3.63598 19.4717 3.70129 19.9802 3.92248 20.3837C4.14623 20.7919 4.5172 21.07 5.00841 21.2128L5.12011 20.8287C4.71592 20.7112 4.43889 20.4936 4.27323 20.1914C4.10501 19.8846 4.03951 19.468 4.10572 18.9348L3.70877 18.8855ZM5.0084 21.2128C5.2694 21.2887 5.47747 21.2988 5.96135 21.2779L5.94406 20.8782C5.46872 20.8988 5.3153 20.8855 5.12012 20.8287L5.0084 21.2128ZM5.96134 21.2779C6.24798 21.2655 6.38347 21.2621 6.46679 21.2709C6.50326 21.2748 6.5221 21.2805 6.53546 21.2859C6.55062 21.2921 6.56803 21.3018 6.60217 21.3247L6.82509 20.9926C6.78529 20.9659 6.74067 20.9377 6.68685 20.9157C6.63124 20.8929 6.57416 20.8801 6.50893 20.8732C6.38885 20.8604 6.21781 20.8664 5.94407 20.8782L5.96134 21.2779ZM6.60214 21.3247C6.66612 21.3677 6.71083 21.4248 6.74479 21.5407L7.12865 21.4283C7.0737 21.2407 6.98109 21.0974 6.82512 20.9926L6.60214 21.3247ZM6.74478 21.5407C7.04479 22.5653 7.46432 23.1542 8.18022 23.3669L8.29416 22.9835C7.77384 22.8288 7.4148 22.4055 7.12866 21.4283L6.74478 21.5407ZM8.18023 23.3669C8.7301 23.5303 9.28645 23.4226 9.93261 23.0737L9.74258 22.7218C9.15193 23.0406 8.7078 23.1064 8.29415 22.9835L8.18023 23.3669ZM9.93259 23.0737C10.2228 22.9171 10.3456 22.8872 10.4261 22.902C10.5018 22.9158 10.5949 22.9801 10.7862 23.2237L11.1008 22.9766C10.917 22.7425 10.7401 22.5528 10.4981 22.5085C10.2609 22.4651 10.0183 22.5729 9.7426 22.7217L9.93259 23.0737ZM10.7862 23.2237C11.265 23.8334 11.8686 24.2035 12.4852 24.2L12.483 23.8C12.0329 23.8025 11.5345 23.529 11.1008 22.9766L10.7862 23.2237ZM12.4853 24.2C12.8266 24.198 13.123 24.1205 13.428 23.9263C13.7252 23.7371 14.0239 23.4413 14.382 23.0181L14.0766 22.7598C13.7253 23.175 13.458 23.433 13.2132 23.5888C12.9763 23.7397 12.7547 23.7984 12.483 23.8L12.4853 24.2ZM14.382 23.0181C14.4618 22.9238 14.5153 22.9035 14.5818 22.9045C14.675 22.9059 14.8197 22.9513 15.075 23.0813L15.2566 22.7249C14.9998 22.5941 14.782 22.5075 14.5878 22.5046C14.3669 22.5012 14.2082 22.6043 14.0766 22.7598L14.382 23.0181ZM15.075 23.0813C15.5515 23.3239 15.9821 23.4526 16.3777 23.4441C16.7806 23.4355 17.1292 23.2851 17.4355 23.0051L17.1656 22.7099C16.9242 22.9307 16.6664 23.0378 16.3692 23.0442C16.0649 23.0507 15.702 22.9517 15.2566 22.7249L15.075 23.0813ZM17.4355 23.0051C17.7791 22.6909 18.0136 22.2705 18.1624 21.7334L17.7769 21.6266C17.643 22.1102 17.4408 22.4582 17.1656 22.7099L17.4355 23.0051ZM18.1624 21.7334C18.1909 21.6306 18.2246 21.5373 18.2583 21.4635C18.2943 21.3844 18.3225 21.3451 18.3332 21.3344L18.0502 21.0516C17.9876 21.1143 17.9356 21.2072 17.8943 21.2976C17.8507 21.3933 17.8101 21.5068 17.7769 21.6266L18.1624 21.7334ZM18.3332 21.3344C18.3633 21.3042 18.3688 21.3011 18.3717 21.2995C18.3728 21.2989 18.3841 21.2923 18.4293 21.2863C18.5301 21.2727 18.7127 21.2708 19.1115 21.2693L19.1099 20.8693C18.7277 20.8708 18.5098 20.8718 18.3759 20.8898C18.3037 20.8995 18.239 20.9159 18.1787 20.9492C18.1203 20.9813 18.0791 21.0228 18.0502 21.0516L18.3332 21.3344ZM19.1115 21.2693C19.4906 21.2678 19.7082 21.2662 19.8629 21.2462C20.0352 21.2239 20.1352 21.178 20.2747 21.1094L20.0983 20.7504C19.97 20.8135 19.9175 20.8358 19.8115 20.8495C19.6879 20.8655 19.5016 20.8678 19.1099 20.8693L19.1115 21.2693ZM20.2747 21.1094C21.0582 20.7244 21.4091 19.8568 21.2682 18.86L20.8721 18.916C20.9964 19.7954 20.6827 20.4632 20.0983 20.7504L20.2747 21.1094ZM21.2682 18.86C21.2197 18.5169 21.236 18.4889 21.2604 18.4417L20.9051 18.2579C20.8138 18.4344 20.8259 18.5891 20.8721 18.916L21.2682 18.86ZM21.2604 18.4417C21.3039 18.3575 21.3225 18.3369 21.3662 18.3106C21.432 18.2711 21.5462 18.2286 21.8024 18.1448L21.6781 17.7646C21.4366 17.8436 21.2731 17.8999 21.1602 17.9678C21.0251 18.0489 20.9637 18.1445 20.9051 18.258L21.2604 18.4417ZM21.8024 18.1448C22.35 17.9658 22.6622 17.7986 22.9585 17.5021L22.6756 17.2194C22.4401 17.455 22.1927 17.5964 21.6781 17.7646L21.8024 18.1448ZM22.9585 17.5021C23.1051 17.3555 23.2146 17.21 23.2887 17.0374C23.3624 16.8657 23.3956 16.6802 23.4077 16.4613L23.0083 16.4392C22.9977 16.6311 22.97 16.766 22.9212 16.8796C22.8729 16.9921 22.7983 17.0966 22.6756 17.2194L22.9585 17.5021ZM23.4077 16.4613C23.4337 15.9908 23.3282 15.6057 23.0472 15.0638L22.6921 15.2479C22.9522 15.7497 23.0291 16.0626 23.0083 16.4392L23.4077 16.4613ZM23.0472 15.0638C22.9212 14.8207 22.8781 14.6699 22.8781 14.5941H22.4781C22.4781 14.7741 22.5633 14.9995 22.6921 15.2479L23.0472 15.0638ZM22.8781 14.5941C22.8781 14.5203 22.885 14.5116 22.891 14.5018C22.9078 14.4747 22.9467 14.4333 23.0656 14.33L22.8033 14.0281C22.6945 14.1226 22.6052 14.2033 22.5507 14.2916C22.4855 14.3972 22.4781 14.4971 22.4781 14.5941H22.8781ZM23.0656 14.33C23.5414 13.9166 23.8693 13.549 24.0457 13.1818C24.2277 12.8031 24.2433 12.4364 24.1209 12.047L23.7393 12.167C23.8332 12.4657 23.8204 12.7271 23.6852 13.0086C23.5445 13.3014 23.2663 13.6258 22.8033 14.0281L23.0656 14.33ZM24.1209 12.047C24.0576 11.8459 23.9214 11.6132 23.7629 11.4014C23.603 11.1877 23.4083 10.9792 23.2151 10.8301L22.9708 11.1468C23.1284 11.2684 23.2986 11.4485 23.4427 11.6411C23.5882 11.8356 23.6952 12.0268 23.7393 12.167L24.1209 12.047ZM23.2151 10.8301C23.144 10.7752 23.0716 10.7144 23.0131 10.6614C22.9839 10.6349 22.9591 10.6113 22.9403 10.5921C22.9195 10.5708 22.9122 10.5613 22.9124 10.5616L22.5847 10.7911C22.6189 10.8399 22.684 10.903 22.7445 10.9578C22.8108 11.0179 22.8913 11.0855 22.9708 11.1468L23.2151 10.8301ZM22.9124 10.5617C22.887 10.5254 22.8691 10.471 22.8836 10.3728C22.8988 10.2699 22.9483 10.1315 23.0465 9.94776L22.6937 9.75926C22.5856 9.96141 22.5127 10.1464 22.4879 10.3144C22.4624 10.4872 22.4869 10.6513 22.5847 10.791L22.9124 10.5617ZM23.0465 9.94775C23.1558 9.74307 23.2837 9.44822 23.3316 9.28383L22.9476 9.17195C22.9101 9.30059 22.7954 9.56874 22.6936 9.75927L23.0465 9.94775ZM23.3316 9.28383C23.3815 9.11256 23.4083 8.89988 23.4141 8.70016C23.4198 8.50257 23.4055 8.29702 23.3616 8.14365L22.9771 8.25389C23.0047 8.35044 23.0194 8.50923 23.0142 8.68862C23.0091 8.86587 22.9852 9.04278 22.9476 9.17195L23.3316 9.28383ZM23.3616 8.14366C23.2145 7.63074 22.6881 7.18878 22.0447 6.95132L21.9062 7.32658C22.4893 7.5418 22.8795 7.9136 22.9771 8.25388L23.3616 8.14366ZM22.0447 6.95133C21.8518 6.88011 21.5961 6.78499 21.4766 6.74003L21.3358 7.11441C21.4563 7.15977 21.7129 7.2552 21.9062 7.32657L22.0447 6.95133ZM21.4767 6.74005C21.3628 6.69716 21.3007 6.64148 21.269 6.58718L20.9236 6.78879C21.0133 6.94259 21.1605 7.04842 21.3357 7.11439L21.4767 6.74005ZM21.269 6.58716C21.2337 6.52663 21.2297 6.51051 21.228 6.48259C21.225 6.43502 21.2328 6.3594 21.26 6.18025L20.8645 6.12031C20.8393 6.28685 20.8225 6.40871 20.8288 6.50789C20.8363 6.62671 20.8756 6.7066 20.9236 6.78881L21.269 6.58716ZM21.26 6.18024C21.3797 5.38993 21.2027 4.71463 20.764 4.26343C20.325 3.81186 19.6579 3.61977 18.871 3.72574L18.9244 4.12216C19.6198 4.02851 20.148 4.20371 20.4772 4.54226C20.8067 4.8812 20.9708 5.41887 20.8645 6.12032L21.26 6.18024ZM18.871 3.72573C18.5608 3.7675 18.4959 3.75563 18.4271 3.72684L18.2727 4.09585C18.4512 4.17052 18.6147 4.16385 18.9244 4.12216L18.871 3.72573ZM18.4271 3.72682C18.3328 3.68741 18.3164 3.67074 18.2984 3.64321C18.2664 3.59441 18.2331 3.50513 18.1672 3.28354L17.7838 3.39745C17.8448 3.60265 17.8932 3.75468 17.9639 3.86256C18.0486 3.9917 18.1561 4.04707 18.2728 4.09587L18.4271 3.72682ZM18.1672 3.28352C17.9525 2.56075 17.5672 1.98786 17.061 1.72893L16.8788 2.08505C17.2496 2.27467 17.5854 2.72983 17.7838 3.39746L18.1672 3.28352ZM17.061 1.72894C16.9064 1.64985 16.7015 1.6051 16.4976 1.58784C16.2908 1.57033 16.0667 1.57954 15.8662 1.62119L15.9476 2.01283C16.1049 1.98015 16.2897 1.97167 16.4638 1.98641C16.6407 2.00139 16.7884 2.03879 16.8788 2.08503L17.061 1.72894ZM15.8663 1.62118C15.6897 1.65781 15.3523 1.79067 15.1074 1.91367L15.287 2.2711C15.5198 2.15413 15.8211 2.03907 15.9475 2.01284L15.8663 1.62118ZM15.1074 1.91367C14.8408 2.04762 14.685 2.10183 14.5832 2.11017C14.538 2.11388 14.5096 2.10778 14.4882 2.09875C14.4657 2.08924 14.4385 2.07112 14.4036 2.03349L14.1103 2.30544C14.1719 2.37198 14.2439 2.4298 14.3325 2.46722C14.4223 2.50513 14.5168 2.51696 14.6159 2.50884C14.8027 2.49352 15.0204 2.40502 15.287 2.2711L15.1074 1.91367ZM14.4036 2.0335C14.3384 1.96312 14.2011 1.79449 14.1017 1.66117L13.781 1.90028C13.8846 2.0392 14.0314 2.22037 14.1103 2.30543L14.4036 2.0335ZM14.1017 1.66114C13.8678 1.34768 13.5404 1.10431 13.1918 0.95773C12.8444 0.81167 12.461 0.755696 12.116 0.838311L12.2092 1.22731C12.4518 1.1692 12.747 1.20465 13.0367 1.32646C13.3252 1.44775 13.5934 1.64871 13.781 1.90031L14.1017 1.66114ZM12.6649 2.30288C12.6563 2.29894 12.6625 2.30068 12.6881 2.32179C12.7099 2.3397 12.7374 2.36474 12.769 2.39589C12.8322 2.45808 12.9053 2.5382 12.9717 2.62006L13.2823 2.36808C13.2069 2.27513 13.1239 2.1839 13.0496 2.11083C13.0126 2.07435 12.9761 2.04079 12.9426 2.01319C12.913 1.98879 12.8729 1.95813 12.8309 1.93896L12.6649 2.30288ZM12.9717 2.62004C13.4443 3.20294 13.9694 3.5475 14.5188 3.5475V3.1475C14.1452 3.1475 13.7225 2.91092 13.2824 2.3681L12.9717 2.62004ZM14.5188 3.5475C14.9027 3.5475 15.1845 3.46145 15.7582 3.1986L15.5916 2.83495C15.0339 3.09047 14.8154 3.1475 14.5188 3.1475V3.5475ZM15.7582 3.1986C16.0318 3.07324 16.1934 3.01907 16.3031 3.00815C16.3909 2.99942 16.4422 3.01782 16.509 3.074L16.7666 2.76801C16.6249 2.64876 16.4683 2.58975 16.2635 2.61012C16.0806 2.62831 15.8649 2.70974 15.5916 2.83495L15.7582 3.1986ZM16.5089 3.074C16.565 3.12123 16.6057 3.17987 16.6467 3.36807L17.0375 3.283C16.9877 3.05422 16.919 2.89633 16.7666 2.76802L16.5089 3.074ZM16.6467 3.36805C16.8222 4.17496 17.3358 4.86541 17.9921 5.07811L18.1154 4.6976C17.6361 4.54225 17.1934 3.99959 17.0375 3.28303L16.6467 3.36805ZM17.9921 5.07812C18.2634 5.16599 18.4677 5.17879 19.0503 5.16917L19.0437 4.76923C18.4619 4.77883 18.3173 4.763 18.1154 4.69759L17.9921 5.07812ZM19.0503 5.16917C19.2482 5.16592 19.3984 5.16566 19.5147 5.17092C19.6328 5.17627 19.7032 5.18693 19.7467 5.2001C19.7847 5.21158 19.7912 5.22153 19.7929 5.22378C19.7993 5.23191 19.8112 5.25251 19.8271 5.31384L20.2143 5.21356C20.1947 5.13769 20.1662 5.05125 20.1073 4.97639C20.0437 4.89567 19.96 4.8467 19.8625 4.81723C19.7706 4.78943 19.6604 4.77711 19.5328 4.77133C19.4032 4.76547 19.2423 4.76596 19.0437 4.76923L19.0503 5.16917ZM19.8271 5.31378C19.8315 5.33075 19.8372 5.38174 19.8368 5.46081C19.8365 5.53476 19.8309 5.61706 19.8205 5.68817L20.2164 5.74576C20.2297 5.65418 20.2364 5.55315 20.2368 5.46278C20.2373 5.37753 20.2323 5.28324 20.2143 5.21362L19.8271 5.31378ZM19.8205 5.68816C19.7906 5.89394 19.7864 6.15091 19.8012 6.3893C19.8158 6.62465 19.8501 6.86283 19.9066 7.02518L20.2844 6.89369C20.2459 6.78316 20.2143 6.58816 20.2005 6.36452C20.1868 6.14391 20.1916 5.91608 20.2164 5.74578L19.8205 5.68816ZM19.9066 7.02518C20.011 7.32497 20.1706 7.56665 20.4197 7.76952C20.6639 7.96839 20.9854 8.12279 21.4019 8.26531L21.5314 7.88686C21.1343 7.75097 20.8636 7.61516 20.6723 7.45936C20.4859 7.30757 20.3667 7.13014 20.2844 6.8937L19.9066 7.02518ZM21.4019 8.26532C21.5821 8.32697 21.7127 8.37851 21.804 8.42282C21.8494 8.44488 21.8818 8.4636 21.9043 8.47896C21.9274 8.4948 21.9345 8.50334 21.9344 8.50323L22.2487 8.25588C22.1856 8.17565 22.0855 8.11489 21.9787 8.06301C21.8658 8.00817 21.7174 7.95048 21.5314 7.88685L21.4019 8.26532ZM21.9343 8.50314C21.9752 8.55514 21.9943 8.61245 21.9842 8.70253C21.9729 8.80292 21.9249 8.94143 21.8194 9.13867L22.1721 9.32741C22.2862 9.11419 22.362 8.92258 22.3817 8.74715C22.4026 8.56142 22.3598 8.39722 22.2488 8.25597L21.9343 8.50314ZM21.8194 9.13866C21.5151 9.70715 21.3858 10.2244 21.4806 10.7149C21.5755 11.2063 21.8874 11.6311 22.3801 12.031L22.6322 11.7205C22.1798 11.3533 21.9438 11.0038 21.8733 10.6391C21.8027 10.2735 21.8908 9.85297 22.1721 9.32742L21.8194 9.13866ZM22.3801 12.0311C22.5968 12.2069 22.6781 12.3145 22.7141 12.4089L23.0878 12.2663C23.0133 12.0709 22.8638 11.9084 22.6322 11.7205L22.3801 12.0311ZM22.7141 12.4089C22.7589 12.5262 22.7517 12.5761 22.7272 12.6244C22.6907 12.6961 22.5994 12.7927 22.3856 12.9551L22.6275 13.2736C22.8394 13.1127 23.0014 12.9679 23.0838 12.8055C23.1782 12.6197 23.1553 12.443 23.0878 12.2662L22.7141 12.4089ZM22.3856 12.9551C21.8851 13.3352 21.5686 13.7617 21.4728 14.2633C21.3774 14.7624 21.508 15.2976 21.8196 15.8809L22.1724 15.6924C21.8843 15.1531 21.7939 14.7139 21.8657 14.3384C21.9369 13.9654 22.1756 13.6169 22.6275 13.2736L22.3856 12.9551ZM21.8196 15.8809C21.9644 16.1519 21.9946 16.3095 21.9771 16.4027C21.9637 16.4736 21.9124 16.5523 21.7224 16.634L21.8805 17.0015C22.127 16.8954 22.3212 16.7358 22.3701 16.4768C22.4148 16.2401 22.324 15.976 22.1724 15.6923L21.8196 15.8809ZM21.7224 16.634C21.6593 16.6612 21.5956 16.6858 21.5448 16.7033C21.5193 16.7121 21.4988 16.7185 21.4843 16.7225C21.477 16.7245 21.4729 16.7254 21.4714 16.7257C21.468 16.7264 21.4755 16.7245 21.4886 16.7242L21.4969 17.1242C21.5336 17.1234 21.5709 17.1135 21.5898 17.1083C21.6156 17.1013 21.6449 17.0919 21.6752 17.0814C21.7363 17.0604 21.8093 17.0321 21.8805 17.0015L21.7224 16.634ZM21.4887 16.7242C21.4445 16.7251 21.3995 16.7359 21.3648 16.7457C21.3265 16.7566 21.2844 16.7712 21.2412 16.7878C21.1544 16.8211 21.0537 16.8659 20.9532 16.915C20.7573 17.0106 20.5383 17.1339 20.4185 17.2322L20.672 17.5415C20.7536 17.4746 20.937 17.3681 21.1287 17.2744C21.2221 17.2288 21.3116 17.1892 21.3844 17.1612C21.4209 17.1472 21.451 17.137 21.4738 17.1306C21.5003 17.1231 21.5054 17.124 21.4969 17.1242L21.4887 16.7242ZM20.4184 17.2322C20.0438 17.5393 19.8382 18.0163 19.8021 18.5792L20.2013 18.6048C20.2322 18.1217 20.4045 17.7609 20.672 17.5415L20.4184 17.2322ZM19.8021 18.5792C19.7869 18.8163 19.794 19.1509 19.8204 19.3316L20.2162 19.2738C20.195 19.129 20.1872 18.824 20.2013 18.6048L19.8021 18.5792ZM19.8204 19.3315C19.8444 19.4964 19.8419 19.6166 19.8243 19.6969C19.807 19.776 19.7806 19.7955 19.7719 19.8005L19.9704 20.1477C20.1098 20.068 20.1829 19.9292 20.215 19.7825C20.2469 19.637 20.2439 19.4637 20.2162 19.2738L19.8204 19.3315ZM19.7719 19.8005C19.7845 19.7933 19.782 19.798 19.7417 19.8052C19.707 19.8115 19.6571 19.8174 19.5892 19.8225C19.4537 19.8327 19.2608 19.8382 19.0017 19.839L19.003 20.239C19.265 20.2382 19.4691 20.2326 19.619 20.2214C19.6938 20.2158 19.7588 20.2086 19.8125 20.1989C19.8607 20.1902 19.9204 20.1763 19.9705 20.1477L19.7719 19.8005ZM19.0017 19.839C18.3338 19.8412 18.1753 19.8531 17.8888 19.9663L18.0359 20.3383C18.2438 20.2561 18.3314 20.2412 19.003 20.239L19.0017 19.839ZM17.8888 19.9663C17.2863 20.2045 16.8627 20.7925 16.6694 21.5643L17.0574 21.6615C17.2311 20.9682 17.5919 20.5138 18.0359 20.3383L17.8888 19.9663ZM16.6694 21.5643C16.6215 21.7556 16.5637 21.8728 16.5067 21.9392C16.4567 21.9975 16.4069 22.0185 16.344 22.0185V22.4185C16.53 22.4185 16.6886 22.3416 16.8103 22.1996C16.9252 22.0656 17.0027 21.88 17.0574 21.6615L16.6694 21.5643ZM16.344 22.0185C16.3479 22.0185 16.3322 22.0178 16.2869 22.0062C16.2468 21.996 16.1954 21.9804 16.1353 21.9599C16.0154 21.9189 15.8688 21.8614 15.7236 21.7964L15.5603 22.1616C15.7156 22.231 15.8735 22.2932 16.0061 22.3384C16.0724 22.361 16.1343 22.3801 16.1877 22.3937C16.2358 22.4061 16.2936 22.4185 16.344 22.4185V22.0185ZM15.7236 21.7964C15.0378 21.4899 14.6614 21.3942 14.2332 21.4831L14.3146 21.8748C14.6112 21.8132 14.8868 21.8605 15.5603 22.1616L15.7236 21.7964ZM14.2332 21.4831C13.826 21.5677 13.3878 21.8993 12.9946 22.3652L13.3003 22.6232C13.6724 22.1823 14.0378 21.9323 14.3146 21.8748L14.2332 21.4831ZM12.9946 22.3652C12.8346 22.5548 12.7422 22.6503 12.672 22.7013C12.6167 22.7414 12.5795 22.7515 12.5135 22.7523L12.5185 23.1523C12.6568 23.1506 12.7768 23.1194 12.9069 23.0251C13.022 22.9416 13.1432 22.8093 13.3003 22.6232L12.9946 22.3652ZM12.5135 22.7523C12.3837 22.7539 12.2298 22.6838 11.9772 22.3754L11.6677 22.6288C11.9376 22.9583 12.1966 23.1563 12.5185 23.1523L12.5135 22.7523ZM11.9772 22.3754C11.8153 22.1777 11.6223 21.9944 11.4291 21.8487C11.2387 21.7051 11.0354 21.5883 10.8523 21.537L10.7444 21.9222C10.8597 21.9545 11.0171 22.0389 11.1883 22.1681C11.3567 22.2951 11.5265 22.4564 11.6677 22.6288L11.9772 22.3754ZM10.8523 21.537C10.6842 21.4899 10.4273 21.4752 10.1927 21.4903L10.2183 21.8894C10.4305 21.8758 10.6371 21.8921 10.7443 21.9222L10.8523 21.537ZM10.1927 21.4903C10.0273 21.5009 9.89984 21.517 9.7522 21.563C9.60992 21.6073 9.45499 21.6776 9.23198 21.7861L9.40695 22.1458C9.63101 22.0368 9.76118 21.9792 9.87121 21.9449C9.97587 21.9123 10.0679 21.8991 10.2183 21.8894L10.1927 21.4903ZM9.23198 21.7861C9.09382 21.8533 8.95366 21.9141 8.84025 21.9576C8.78336 21.9794 8.73536 21.9961 8.69891 22.0069C8.65455 22.0202 8.64748 22.0185 8.66107 22.0185V22.4185C8.71293 22.4185 8.77161 22.4027 8.81325 22.3903C8.86281 22.3755 8.92107 22.355 8.98352 22.3311C9.10877 22.283 9.25953 22.2175 9.40695 22.1458L9.23198 21.7861ZM8.66107 22.0185C8.61726 22.0185 8.56253 22.0005 8.49553 21.9291C8.42577 21.8548 8.35219 21.7314 8.28358 21.547L7.90869 21.6865C7.98731 21.8978 8.08406 22.0753 8.20389 22.2029C8.32649 22.3335 8.48061 22.4185 8.66107 22.4185V22.0185ZM8.28358 21.547C7.94528 20.6379 7.71634 20.2543 7.24863 20.0141L7.06589 20.3699C7.38547 20.534 7.57135 20.78 7.90869 21.6865L8.28358 21.547ZM7.24866 20.0141C6.92747 19.8491 6.45149 19.7986 5.87214 19.8343L5.89674 20.2335C6.45695 20.199 6.84324 20.2555 7.06586 20.3699L7.24866 20.0141ZM5.87213 19.8343C5.40866 19.8628 5.34326 19.8459 5.28069 19.8135L5.0968 20.1687C5.27634 20.2617 5.46324 20.2602 5.89674 20.2335L5.87213 19.8343ZM5.28061 19.8135C5.24955 19.7974 5.21698 19.7769 5.19111 19.7579C5.17824 19.7484 5.16897 19.7407 5.1633 19.7355C5.1554 19.7283 5.16064 19.7316 5.1689 19.7443L4.83308 19.9616C4.86584 20.0123 4.91977 20.0549 4.95407 20.0801C4.99625 20.1111 5.04659 20.1428 5.09688 20.1688L5.28061 19.8135ZM5.16894 19.7444C5.17781 19.7581 5.18269 19.7696 5.18479 19.7749C5.1872 19.781 5.18856 19.7855 5.18914 19.7875C5.19025 19.7914 5.19028 19.7924 5.18962 19.7888C5.18834 19.7819 5.18643 19.7687 5.18423 19.748C5.17991 19.7072 5.17567 19.6488 5.17194 19.576C5.16451 19.4309 5.15952 19.2373 5.15889 19.0307L4.75889 19.0319C4.75954 19.2434 4.76464 19.4436 4.77246 19.5964C4.77636 19.6725 4.78104 19.739 4.78646 19.7902C4.78914 19.8154 4.79231 19.84 4.79627 19.8614C4.79822 19.872 4.80091 19.8848 4.8047 19.898C4.80727 19.907 4.81507 19.9338 4.83304 19.9616L5.16894 19.7444ZM5.15889 19.0308C5.15704 18.3853 5.14411 18.2014 5.0411 17.9451L4.66996 18.0942C4.74005 18.2687 4.75701 18.3764 4.75889 19.0319L5.15889 19.0308ZM5.0411 17.9451C4.79785 17.3398 4.35086 16.9822 3.61661 16.7514L3.49665 17.133C4.14878 17.338 4.48261 17.6281 4.66996 18.0942L5.0411 17.9451ZM3.61659 16.7514C3.33795 16.6638 3.20065 16.6158 3.12154 16.5743C3.08631 16.5559 3.07087 16.5427 3.06217 16.5336C3.05316 16.5241 3.04318 16.5106 3.02725 16.4797L2.67189 16.6634C2.69661 16.7112 2.72704 16.7618 2.77286 16.8098C2.81897 16.8581 2.87277 16.8956 2.93583 16.9286C3.05332 16.9902 3.2289 17.0488 3.49667 17.133L3.61659 16.7514ZM3.02724 16.4797C2.98951 16.4067 2.97858 16.3466 2.98845 16.2747C2.99954 16.1939 3.03852 16.0869 3.12656 15.9266L2.77597 15.7341C2.67969 15.9093 2.61317 16.0672 2.59217 16.2203C2.56995 16.3822 2.60034 16.5249 2.6719 16.6634L3.02724 16.4797ZM3.12655 15.9266C3.49828 15.25 3.6253 14.6026 3.43335 14.0583L3.05612 14.1914C3.19469 14.5843 3.12028 15.1073 2.77598 15.734L3.12655 15.9266ZM3.43334 14.0583C3.31098 13.7114 2.96782 13.2879 2.58506 12.9774L2.33307 13.288C2.68476 13.5733 2.96755 13.9403 3.05612 14.1914L3.43334 14.0583ZM2.58505 12.9774C2.40307 12.8298 2.29713 12.7042 2.24693 12.6038C2.20036 12.5107 2.20578 12.4502 2.22955 12.4013L1.86982 12.2264C1.78097 12.4091 1.79894 12.6022 1.88914 12.7827C1.97571 12.9558 2.13077 13.1239 2.33307 13.288L2.58505 12.9774ZM2.22957 12.4012C2.22848 12.4035 2.23489 12.3915 2.25858 12.3624C2.27975 12.3364 2.30841 12.3043 2.34314 12.2681C2.41256 12.1959 2.50057 12.1133 2.58924 12.039L2.33251 11.7323C2.23294 11.8156 2.13429 11.9081 2.05465 11.9911C2.01485 12.0325 1.97837 12.073 1.94831 12.11C1.92077 12.1438 1.88983 12.1852 1.8698 12.2264L2.22957 12.4012ZM2.58922 12.0391C3.08653 11.623 3.40114 11.1996 3.49526 10.7114C3.58936 10.2233 3.45498 9.71222 3.14859 9.13879L2.79579 9.32729C3.08159 9.86217 3.17192 10.2755 3.10249 10.6357C3.0331 10.9957 2.79596 11.3445 2.33253 11.7323L2.58922 12.0391ZM3.14859 9.13878C3.04327 8.9417 2.99944 8.82064 2.98924 8.73239C2.98061 8.65769 2.99469 8.59558 3.04732 8.50922L2.70574 8.30108C2.61667 8.44724 2.57103 8.59781 2.59188 8.7783C2.61117 8.94524 2.68601 9.12186 2.7958 9.3273L3.14859 9.13878ZM3.04728 8.50928C3.07334 8.46655 3.0918 8.4488 3.11634 8.43353C3.1482 8.4137 3.20097 8.39184 3.30968 8.36167L3.20272 7.97624C3.08702 8.00835 2.98791 8.04233 2.90501 8.09391C2.8148 8.15004 2.75563 8.21926 2.70577 8.30103L3.04728 8.50928ZM3.30972 8.36166C4.02529 8.16294 4.50557 7.90078 4.80564 7.49257L4.48335 7.25566C4.26098 7.55815 3.88301 7.78731 3.20268 7.97625L3.30972 8.36166ZM4.80564 7.49257C4.94853 7.29817 5.04296 7.13516 5.09562 6.89946C5.14536 6.67677 5.15594 6.3962 5.15776 5.97276L4.75777 5.97103C4.75591 6.40044 4.74409 6.63835 4.70524 6.81225C4.6693 6.97313 4.60893 7.08481 4.48334 7.25566L4.80564 7.49257ZM5.15776 5.97277L5.16114 5.19636L4.76115 5.19462L4.75777 5.97102L5.15776 5.97277ZM5.09167 5.34703L5.22699 5.23047L4.96593 4.9274L4.83062 5.04396L5.09167 5.34703ZM5.22698 5.23048C5.25945 5.20251 5.26911 5.19628 5.2767 5.19252C5.28218 5.18981 5.29657 5.18347 5.33946 5.1783C5.43632 5.16664 5.60643 5.16758 5.97585 5.17271L5.98141 4.77275C5.6278 4.76783 5.42235 4.76543 5.29164 4.78117C5.22075 4.78971 5.15836 4.80475 5.09912 4.8341C5.04199 4.86241 4.999 4.89893 4.96594 4.9274L5.22698 5.23048ZM5.97584 5.17271C6.61252 5.18159 6.79259 5.17158 7.05667 5.0736L6.91753 4.69858C6.73308 4.76702 6.62526 4.78172 5.98142 4.77275L5.97584 5.17271ZM7.05667 5.0736C7.34199 4.96774 7.56705 4.81364 7.7586 4.56345C7.94475 4.32033 8.09295 3.99448 8.24321 3.55754L7.86496 3.42745C7.71882 3.85239 7.58734 4.12915 7.44101 4.32028C7.30008 4.50434 7.13985 4.61609 6.91753 4.69858L7.05667 5.0736ZM8.24321 3.55755C8.30502 3.37786 8.36229 3.24925 8.41915 3.15988C8.47527 3.07169 8.52307 3.03419 8.56188 3.01742C8.64066 2.98337 8.78465 2.99305 9.1145 3.16977L9.3034 2.81719C8.98088 2.64439 8.67499 2.53279 8.4032 2.65023C8.26673 2.70921 8.16408 2.81564 8.08167 2.94515C8.00002 3.07348 7.9307 3.23634 7.86496 3.42744L8.24321 3.55755ZM9.1145 3.16977C9.63233 3.44721 10.0377 3.56095 10.4854 3.5288L10.4567 3.12983C10.1098 3.15475 9.78114 3.07314 9.3034 2.81719L9.1145 3.16977ZM10.4854 3.5288C10.7612 3.50897 10.9997 3.44156 11.24 3.29482C11.4749 3.15145 11.7031 2.93746 11.9677 2.6398L11.6687 2.37403C11.4133 2.66139 11.2162 2.84075 11.0316 2.9534C10.8526 3.06268 10.6775 3.11396 10.4567 3.12983L10.4854 3.5288ZM11.9677 2.63983C12.0426 2.55555 12.122 2.47267 12.1888 2.40767C12.2223 2.37511 12.2514 2.34818 12.2745 2.32829C12.3011 2.30534 12.3098 2.30031 12.3054 2.30279L12.1088 1.95445C12.0754 1.97331 12.0405 2.00184 12.0131 2.0255C11.9821 2.05222 11.9469 2.08496 11.9099 2.12096C11.8357 2.1931 11.7497 2.28299 11.6688 2.37401L11.9677 2.63983ZM12.3054 2.30279C12.3329 2.28725 12.3922 2.27074 12.4718 2.26961C12.5496 2.2685 12.6203 2.28255 12.665 2.30293L12.8308 1.93892C12.7187 1.88785 12.586 1.86794 12.4661 1.86965C12.348 1.87132 12.2152 1.89438 12.1088 1.95445L12.3054 2.30279ZM11.3236 5.07865C9.68205 5.35571 8.2835 6.07947 7.1323 7.24907L7.41737 7.52966C8.50855 6.42105 9.83023 5.73636 11.3902 5.47307L11.3236 5.07865ZM7.1323 7.24907C5.73062 8.67315 4.98169 10.5055 4.98169 12.5098H5.38169C5.38169 10.6101 6.08962 8.87864 7.41737 7.52966L7.1323 7.24907ZM4.98169 12.5098C4.98169 16.0663 7.43131 19.0914 10.9364 19.8703L11.0232 19.4799C7.69824 18.7409 5.38169 15.8759 5.38169 12.5098H4.98169ZM10.9364 19.8703C11.6694 20.0333 12.9386 20.0567 13.7186 19.9232L13.6511 19.529C12.9192 19.6542 11.7025 19.6308 11.0232 19.4799L10.9364 19.8703ZM13.7186 19.9232C15.2949 19.6535 16.6858 18.9312 17.8031 17.8015L17.5187 17.5202C16.4606 18.59 15.1458 19.2732 13.6511 19.529L13.7186 19.9232ZM17.8031 17.8015C18.8494 16.7436 19.5153 15.5155 19.8478 14.0336L19.4575 13.946C19.141 15.3564 18.511 16.5169 17.5187 17.5202L17.8031 17.8015ZM19.8478 14.0336C19.9434 13.6076 19.9592 13.3661 19.9592 12.5098H19.5592C19.5592 13.3609 19.5429 13.5655 19.4575 13.946L19.8478 14.0336ZM19.9592 12.5098C19.9592 11.6536 19.9434 11.412 19.8478 10.986L19.4575 11.0736C19.5429 11.4542 19.5592 11.6587 19.5592 12.5098H19.9592ZM19.8478 10.9861C19.6911 10.2878 19.5148 9.78884 19.2024 9.16008L18.8442 9.33807C19.142 9.93751 19.3077 10.4061 19.4575 11.0736L19.8478 10.9861ZM19.2024 9.16007C18.142 7.02613 16.0974 5.50416 13.7505 5.10197L13.683 5.49623C15.9039 5.87682 17.8405 7.31836 18.8442 9.33808L19.2024 9.16007ZM13.7505 5.10197C13.083 4.98756 11.9337 4.97567 11.3236 5.07865L11.3902 5.47307C11.9515 5.37834 13.0551 5.38862 13.683 5.49623L13.7505 5.10197ZM13.7629 6.57039C14.9467 6.8404 15.8935 7.36504 16.7598 8.23184L17.0427 7.94907C16.1236 7.02946 15.1098 6.46732 13.8518 6.1804L13.7629 6.57039ZM16.7598 8.23184C17.6424 9.11481 18.1808 10.104 18.4441 11.3261L18.8352 11.2419C18.5557 9.94463 17.9797 8.88652 17.0427 7.94907L16.7598 8.23184ZM18.4441 11.3261C18.5024 11.5965 18.5338 12.0469 18.5338 12.5098C18.5338 12.9728 18.5024 13.4231 18.4441 13.6935L18.8352 13.7778C18.9025 13.4654 18.9338 12.9813 18.9338 12.5098C18.9338 12.0383 18.9025 11.5542 18.8352 11.2419L18.4441 11.3261ZM18.4441 13.6935C18.1808 14.9157 17.6424 15.9048 16.7598 16.7878L17.0427 17.0706C17.9797 16.1331 18.5557 15.075 18.8352 13.7778L18.4441 13.6935ZM16.7598 16.7878C15.8776 17.6705 14.8908 18.2083 13.667 18.4733L13.7517 18.8642C15.0504 18.5831 16.106 18.0078 17.0427 17.0706L16.7598 16.7878ZM13.667 18.4733C13.3795 18.5356 12.9168 18.5666 12.4431 18.5628C11.9692 18.5591 11.5089 18.5208 11.2257 18.4542L11.1341 18.8435C11.4606 18.9204 11.956 18.959 12.4399 18.9628C12.924 18.9666 13.4212 18.9358 13.7517 18.8642L13.667 18.4733ZM11.2257 18.4542C9.99072 18.1636 9.0803 17.6601 8.20838 16.7878L7.92547 17.0706C8.85142 17.9969 9.82865 18.5363 11.1341 18.8435L11.2257 18.4542ZM8.20838 16.7878C7.32585 15.9048 6.7874 14.9157 6.52407 13.6935L6.13305 13.7778C6.41255 15.075 6.98848 16.1331 7.92547 17.0706L8.20838 16.7878ZM6.52407 13.6935C6.46581 13.4231 6.43439 12.9728 6.43439 12.5098C6.43439 12.0469 6.46581 11.5965 6.52407 11.3261L6.13305 11.2419C6.06574 11.5542 6.03439 12.0383 6.03439 12.5098C6.03439 12.9813 6.06574 13.4654 6.13305 13.7778L6.52407 13.6935ZM6.52407 11.3261C6.78996 10.0921 7.31484 9.12916 8.21005 8.2335L7.92714 7.95073C6.97772 8.90062 6.41518 9.9324 6.13305 11.2419L6.52407 11.3261ZM8.21005 8.2335C8.91103 7.53218 9.57425 7.10495 10.4389 6.79421L10.3036 6.41779C9.37951 6.74989 8.66675 7.21076 7.92714 7.95073L8.21005 8.2335ZM10.4389 6.79421C10.7988 6.66484 11.4671 6.50311 11.7967 6.4646L11.7503 6.0673C11.3866 6.10979 10.6885 6.27944 10.3036 6.41779L10.4389 6.79421ZM11.7967 6.4646C11.9901 6.44198 12.3796 6.44457 12.7829 6.46627C13.1861 6.48797 13.5735 6.52718 13.7629 6.57039L13.8518 6.1804C13.6259 6.12887 13.2082 6.08858 12.8044 6.06685C12.4005 6.04511 11.9808 6.04035 11.7502 6.0673L11.7967 6.4646Z" fill="#197AFF" mask="url(#path-1-outside-1_0_1595)"/>
<mask id="mask0_0_1595" style="mask-type:alpha" maskUnits="userSpaceOnUse" x="6" y="7" width="12" height="11">
<path d="M10.9446 16.5406L7.52565 12.8108L7.21484 12.1892L9.07971 10.946L11.2554 10.0135L14.3635 8.45947L16.85 9.70272L16.5392 11.2568L14.3635 15.9189L10.9446 16.5406Z" fill="#C4C4C4" stroke="#197AFF"/>
</mask>
<g mask="url(#mask0_0_1595)">
<mask id="path-4-inside-2_0_1595" fill="white">
<path fill-rule="evenodd" clip-rule="evenodd" d="M12.1607 1.03281C11.7423 1.13299 11.3247 1.45097 10.7879 2.07787C10.6069 2.28935 10.569 2.31078 10.3757 2.31078C10.2241 2.31078 10.098 2.2694 9.93797 2.16716C9.50125 1.88826 9.21567 1.80279 8.70842 1.79921C8.29527 1.79632 8.21499 1.81064 7.99582 1.9264C7.54327 2.1654 7.19648 2.64048 7.01578 3.26905C6.83356 3.90291 6.69183 4.00559 6.10209 3.93106C5.67208 3.87668 5.11592 3.9365 4.8154 4.06953C4.11927 4.37761 3.78164 5.12155 3.90206 6.08212C3.94175 6.39893 3.93867 6.51975 3.88765 6.64175C3.79595 6.86132 3.72307 6.90795 3.30453 7.01504C2.6359 7.18612 2.16977 7.49538 1.90869 7.94105C1.80587 8.11659 1.77553 8.24187 1.75926 8.55809C1.73589 9.01248 1.83302 9.37377 2.12017 9.90044C2.34003 10.3037 2.35135 10.5906 2.1534 10.7425C2.07925 10.7995 1.90438 10.9328 1.76475 11.0389C1.27966 11.4075 0.997998 11.9604 0.998047 12.5441C0.998047 12.8408 1.02265 12.9472 1.15189 13.2098C1.29862 13.5081 1.48304 13.7096 2.08513 14.2298C2.36027 14.4675 2.36262 14.6676 2.0962 15.1661C1.75137 15.8116 1.65977 16.398 1.82709 16.8893C1.99725 17.389 2.56003 17.8153 3.29057 17.998C3.70122 18.1007 3.7787 18.147 3.88559 18.3537C3.94474 18.4682 3.94817 18.5649 3.90529 18.9101C3.7663 20.0296 4.1669 20.7604 5.06231 21.0208C5.2904 21.0871 5.47115 21.0988 5.95075 21.0781C6.51113 21.0538 6.56381 21.0594 6.71167 21.1587C6.82165 21.2325 6.89031 21.3328 6.93477 21.4845C7.22784 22.4854 7.61713 22.9915 8.23523 23.1752C8.717 23.3183 9.21724 23.2316 9.83564 22.8977C10.4016 22.5923 10.5664 22.6224 10.9415 23.1002C11.3978 23.6812 11.9488 24.003 12.4822 24C13.0953 23.9964 13.518 23.7274 14.2273 22.889C14.4387 22.6391 14.6518 22.6423 15.1639 22.9031C16.0857 23.3725 16.7509 23.3583 17.2986 22.8575C17.608 22.5746 17.8263 22.1903 17.9677 21.68C18.0293 21.4574 18.1164 21.2664 18.1898 21.193C18.3077 21.075 18.3278 21.0723 19.1087 21.0693C19.8795 21.0663 19.9167 21.0615 20.1845 20.9299C20.8685 20.5938 21.2008 19.8261 21.0682 18.888C21.0208 18.553 21.0229 18.4617 21.0808 18.3498C21.183 18.1522 21.2406 18.1175 21.7383 17.9547C22.2694 17.7811 22.5491 17.6268 22.8151 17.3607C23.0844 17.0913 23.1833 16.8609 23.206 16.4503C23.2295 16.0267 23.1382 15.6777 22.8677 15.1559C22.7403 14.9101 22.6761 14.722 22.6761 14.5941C22.6761 14.4233 22.7048 14.3769 22.9325 14.179C23.8714 13.3634 24.1445 12.7951 23.9281 12.107C23.8208 11.7657 23.4418 11.2592 23.091 10.9885C22.9403 10.8722 22.7854 10.7317 22.7466 10.6764C22.6234 10.5003 22.6619 10.2394 22.8681 9.85351C22.9737 9.65591 23.095 9.3744 23.1377 9.22789C23.2252 8.92746 23.239 8.44869 23.1674 8.19877C23.0451 7.77217 22.5867 7.36529 21.9735 7.13895C21.7804 7.06765 21.5243 6.97238 21.4042 6.92722C21.2597 6.87279 21.1551 6.79203 21.0943 6.68798C21.011 6.54525 21.0079 6.49597 21.0603 6.15028C21.2863 4.65852 20.3781 3.72433 18.8957 3.92395C18.5857 3.96567 18.4716 3.96307 18.348 3.91134C18.137 3.82313 18.1004 3.76728 17.9736 3.34049C17.767 2.64529 17.4064 2.13127 16.9679 1.90699C16.723 1.78166 16.2627 1.74267 15.9049 1.81701C15.7534 1.84844 15.4341 1.9724 15.1953 2.09238C14.6621 2.36026 14.4481 2.37781 14.255 2.16947C14.1829 2.09175 14.0409 1.91684 13.9394 1.78072C13.5179 1.21566 12.7483 0.892084 12.1607 1.03281ZM12.746 2.12092C12.8127 2.15137 12.9833 2.31926 13.1251 2.49407C13.5815 3.05693 14.0554 3.3475 14.5169 3.3475C14.8571 3.3475 15.1072 3.27596 15.673 3.01677C16.2199 2.76621 16.4274 2.74556 16.6358 2.92101C16.7401 3.00878 16.7947 3.11704 16.8401 3.32554C17.0058 4.08728 17.484 4.70383 18.0518 4.88785C18.2884 4.96449 18.4628 4.97881 19.045 4.9692C19.8381 4.95616 19.9477 4.9893 20.0187 5.2637C20.0411 5.35029 20.0402 5.55427 20.0165 5.71697C19.9617 6.09306 19.9986 6.68656 20.0936 6.95944C20.2802 7.49567 20.6511 7.79767 21.4647 8.07609C21.8309 8.20137 22.0227 8.29453 22.0896 8.37956C22.2415 8.5728 22.2134 8.82258 21.9938 9.23304C21.4082 10.3271 21.5592 11.1086 22.5042 11.8758C22.7283 12.0577 22.8437 12.1927 22.899 12.3376C23.0113 12.6316 22.9303 12.791 22.5046 13.1144C21.5522 13.8378 21.3943 14.6641 21.9941 15.7866C22.2905 16.3413 22.236 16.6299 21.7995 16.8177C21.6652 16.8756 21.5263 16.9235 21.4908 16.9242C21.348 16.9271 20.7448 17.2217 20.5433 17.3868C20.2222 17.6501 20.0332 18.069 19.9997 18.592C19.9851 18.8201 19.9926 19.1399 20.0163 19.3027C20.0681 19.6575 20.0173 19.8894 19.8692 19.9741C19.7944 20.0169 19.5215 20.0373 19.0004 20.039C18.3307 20.0412 18.2076 20.0546 17.9604 20.1523C17.4371 20.3592 17.0449 20.8803 16.8614 21.6129C16.7588 22.0227 16.5909 22.2185 16.3421 22.2185C16.2488 22.2185 15.9405 22.1134 15.64 21.979C14.9604 21.6752 14.6344 21.6037 14.2719 21.679C13.9299 21.75 13.5282 22.0408 13.1455 22.4942C12.8284 22.8699 12.7183 22.9498 12.5141 22.9523C12.2882 22.9551 12.0817 22.8211 11.8205 22.5021C11.5174 22.1319 11.0949 21.8132 10.7964 21.7296C10.6587 21.691 10.4269 21.6755 10.2036 21.6898C9.88774 21.7101 9.76458 21.7485 9.31751 21.966C9.03193 22.1049 8.73567 22.2185 8.65912 22.2185C8.43485 22.2185 8.24141 22.0124 8.09418 21.6167C7.75636 20.7089 7.54895 20.3942 7.15531 20.192C6.8834 20.0523 6.45227 19.9988 5.88248 20.0339C5.434 20.0615 5.30785 20.0538 5.18679 19.9911C5.10544 19.949 5.02099 19.8869 4.99904 19.853C4.97713 19.8191 4.95821 19.4493 4.95694 19.0313C4.95508 18.3808 4.94013 18.235 4.85358 18.0197C4.63828 17.484 4.24787 17.1601 3.55468 16.9422C3.00827 16.7705 2.92892 16.7289 2.84762 16.5715C2.73833 16.3601 2.76499 16.1659 2.94931 15.8303C3.30733 15.1787 3.40804 14.5935 3.24278 14.1249C3.13731 13.8258 2.82434 13.4306 2.45711 13.1327C2.07283 12.821 1.93511 12.5455 2.04773 12.3138C2.08562 12.2359 2.27068 12.0432 2.45892 11.8857C3.41966 11.0818 3.56242 10.3414 2.97024 9.23304C2.75514 8.83052 2.73289 8.63767 2.87457 8.40515C2.95049 8.28065 3.02983 8.23123 3.25425 8.16896C3.95219 7.97512 4.38132 7.72946 4.64254 7.37412C4.91102 7.00886 4.95213 6.82474 4.95581 5.97189L4.95919 5.19549L5.09451 5.07894C5.22556 4.96606 5.25364 4.96268 5.97668 4.97273C6.61694 4.98166 6.76088 4.9693 6.98515 4.88609C7.49279 4.69775 7.75572 4.35437 8.05213 3.4925C8.30723 2.75091 8.55463 2.64397 9.20699 2.99348C9.70478 3.26017 10.0718 3.35785 10.4691 3.32931C10.9657 3.29362 11.2962 3.09194 11.8163 2.50692C11.9722 2.33162 12.1471 2.16137 12.2052 2.12862C12.3391 2.05301 12.5891 2.04948 12.746 2.12092ZM11.3549 5.27586C9.75418 5.54604 8.39407 6.25026 7.27288 7.38937C5.90816 8.7759 5.17973 10.5578 5.17973 12.5098C5.17973 15.9711 7.56282 18.9161 10.9779 19.6751C11.684 19.8321 12.927 19.8555 13.6829 19.7261C15.2184 19.4633 16.5713 18.7606 17.659 17.6608C18.6782 16.6302 19.3262 15.436 19.6507 13.9898C19.7412 13.5866 19.7572 13.3635 19.7572 12.5098C19.7572 11.6561 19.7412 11.4331 19.6507 11.0298C19.4975 10.3469 19.3265 9.86317 19.0213 9.24907C17.9893 7.17224 15.9987 5.69049 13.7148 5.2991C13.0671 5.18809 11.9406 5.17701 11.3549 5.27586ZM13.8054 6.37539C15.0263 6.65386 16.0066 7.19725 16.8993 8.09045C17.8091 9.00067 18.3663 10.0243 18.6377 11.284C18.7633 11.8667 18.7633 13.1529 18.6377 13.7357C18.3663 14.9953 17.8091 16.019 16.8993 16.9292C15.9898 17.8392 14.9687 18.3957 13.7074 18.6688C13.0894 18.8026 11.7876 18.7924 11.178 18.6489C9.90773 18.35 8.96391 17.8285 8.06497 16.9292C7.15521 16.019 6.59802 14.9953 6.32661 13.7357C6.20104 13.1529 6.20104 11.8667 6.32661 11.284C6.60062 10.0122 7.14433 9.01489 8.06664 8.09212C8.78693 7.37147 9.47493 6.92742 10.3693 6.606C10.7417 6.47214 11.4249 6.30645 11.7715 6.26595C12.1954 6.21638 13.39 6.28066 13.8054 6.37539ZM13.428 11.8828L11.455 13.8546L10.535 12.9432C9.85245 12.2669 9.57461 12.023 9.45812 11.9977C9.10858 11.9219 8.75816 12.2724 8.83339 12.6225C8.85883 12.7406 9.13559 13.0505 9.95179 13.8746C10.5483 14.4769 11.0959 15.0009 11.1687 15.0391C11.2415 15.0773 11.3843 15.1086 11.486 15.1086C11.6643 15.1086 11.7483 15.0314 13.8459 12.9389C15.1349 11.6531 16.0498 10.7025 16.0919 10.6055C16.2365 10.2717 15.9817 9.91103 15.6013 9.91103C15.403 9.91103 15.3819 9.9302 13.428 11.8828Z"/>
</mask>
<path fill-rule="evenodd" clip-rule="evenodd" d="M12.1607 1.03281C11.7423 1.13299 11.3247 1.45097 10.7879 2.07787C10.6069 2.28935 10.569 2.31078 10.3757 2.31078C10.2241 2.31078 10.098 2.2694 9.93797 2.16716C9.50125 1.88826 9.21567 1.80279 8.70842 1.79921C8.29527 1.79632 8.21499 1.81064 7.99582 1.9264C7.54327 2.1654 7.19648 2.64048 7.01578 3.26905C6.83356 3.90291 6.69183 4.00559 6.10209 3.93106C5.67208 3.87668 5.11592 3.9365 4.8154 4.06953C4.11927 4.37761 3.78164 5.12155 3.90206 6.08212C3.94175 6.39893 3.93867 6.51975 3.88765 6.64175C3.79595 6.86132 3.72307 6.90795 3.30453 7.01504C2.6359 7.18612 2.16977 7.49538 1.90869 7.94105C1.80587 8.11659 1.77553 8.24187 1.75926 8.55809C1.73589 9.01248 1.83302 9.37377 2.12017 9.90044C2.34003 10.3037 2.35135 10.5906 2.1534 10.7425C2.07925 10.7995 1.90438 10.9328 1.76475 11.0389C1.27966 11.4075 0.997998 11.9604 0.998047 12.5441C0.998047 12.8408 1.02265 12.9472 1.15189 13.2098C1.29862 13.5081 1.48304 13.7096 2.08513 14.2298C2.36027 14.4675 2.36262 14.6676 2.0962 15.1661C1.75137 15.8116 1.65977 16.398 1.82709 16.8893C1.99725 17.389 2.56003 17.8153 3.29057 17.998C3.70122 18.1007 3.7787 18.147 3.88559 18.3537C3.94474 18.4682 3.94817 18.5649 3.90529 18.9101C3.7663 20.0296 4.1669 20.7604 5.06231 21.0208C5.2904 21.0871 5.47115 21.0988 5.95075 21.0781C6.51113 21.0538 6.56381 21.0594 6.71167 21.1587C6.82165 21.2325 6.89031 21.3328 6.93477 21.4845C7.22784 22.4854 7.61713 22.9915 8.23523 23.1752C8.717 23.3183 9.21724 23.2316 9.83564 22.8977C10.4016 22.5923 10.5664 22.6224 10.9415 23.1002C11.3978 23.6812 11.9488 24.003 12.4822 24C13.0953 23.9964 13.518 23.7274 14.2273 22.889C14.4387 22.6391 14.6518 22.6423 15.1639 22.9031C16.0857 23.3725 16.7509 23.3583 17.2986 22.8575C17.608 22.5746 17.8263 22.1903 17.9677 21.68C18.0293 21.4574 18.1164 21.2664 18.1898 21.193C18.3077 21.075 18.3278 21.0723 19.1087 21.0693C19.8795 21.0663 19.9167 21.0615 20.1845 20.9299C20.8685 20.5938 21.2008 19.8261 21.0682 18.888C21.0208 18.553 21.0229 18.4617 21.0808 18.3498C21.183 18.1522 21.2406 18.1175 21.7383 17.9547C22.2694 17.7811 22.5491 17.6268 22.8151 17.3607C23.0844 17.0913 23.1833 16.8609 23.206 16.4503C23.2295 16.0267 23.1382 15.6777 22.8677 15.1559C22.7403 14.9101 22.6761 14.722 22.6761 14.5941C22.6761 14.4233 22.7048 14.3769 22.9325 14.179C23.8714 13.3634 24.1445 12.7951 23.9281 12.107C23.8208 11.7657 23.4418 11.2592 23.091 10.9885C22.9403 10.8722 22.7854 10.7317 22.7466 10.6764C22.6234 10.5003 22.6619 10.2394 22.8681 9.85351C22.9737 9.65591 23.095 9.3744 23.1377 9.22789C23.2252 8.92746 23.239 8.44869 23.1674 8.19877C23.0451 7.77217 22.5867 7.36529 21.9735 7.13895C21.7804 7.06765 21.5243 6.97238 21.4042 6.92722C21.2597 6.87279 21.1551 6.79203 21.0943 6.68798C21.011 6.54525 21.0079 6.49597 21.0603 6.15028C21.2863 4.65852 20.3781 3.72433 18.8957 3.92395C18.5857 3.96567 18.4716 3.96307 18.348 3.91134C18.137 3.82313 18.1004 3.76728 17.9736 3.34049C17.767 2.64529 17.4064 2.13127 16.9679 1.90699C16.723 1.78166 16.2627 1.74267 15.9049 1.81701C15.7534 1.84844 15.4341 1.9724 15.1953 2.09238C14.6621 2.36026 14.4481 2.37781 14.255 2.16947C14.1829 2.09175 14.0409 1.91684 13.9394 1.78072C13.5179 1.21566 12.7483 0.892084 12.1607 1.03281ZM12.746 2.12092C12.8127 2.15137 12.9833 2.31926 13.1251 2.49407C13.5815 3.05693 14.0554 3.3475 14.5169 3.3475C14.8571 3.3475 15.1072 3.27596 15.673 3.01677C16.2199 2.76621 16.4274 2.74556 16.6358 2.92101C16.7401 3.00878 16.7947 3.11704 16.8401 3.32554C17.0058 4.08728 17.484 4.70383 18.0518 4.88785C18.2884 4.96449 18.4628 4.97881 19.045 4.9692C19.8381 4.95616 19.9477 4.9893 20.0187 5.2637C20.0411 5.35029 20.0402 5.55427 20.0165 5.71697C19.9617 6.09306 19.9986 6.68656 20.0936 6.95944C20.2802 7.49567 20.6511 7.79767 21.4647 8.07609C21.8309 8.20137 22.0227 8.29453 22.0896 8.37956C22.2415 8.5728 22.2134 8.82258 21.9938 9.23304C21.4082 10.3271 21.5592 11.1086 22.5042 11.8758C22.7283 12.0577 22.8437 12.1927 22.899 12.3376C23.0113 12.6316 22.9303 12.791 22.5046 13.1144C21.5522 13.8378 21.3943 14.6641 21.9941 15.7866C22.2905 16.3413 22.236 16.6299 21.7995 16.8177C21.6652 16.8756 21.5263 16.9235 21.4908 16.9242C21.348 16.9271 20.7448 17.2217 20.5433 17.3868C20.2222 17.6501 20.0332 18.069 19.9997 18.592C19.9851 18.8201 19.9926 19.1399 20.0163 19.3027C20.0681 19.6575 20.0173 19.8894 19.8692 19.9741C19.7944 20.0169 19.5215 20.0373 19.0004 20.039C18.3307 20.0412 18.2076 20.0546 17.9604 20.1523C17.4371 20.3592 17.0449 20.8803 16.8614 21.6129C16.7588 22.0227 16.5909 22.2185 16.3421 22.2185C16.2488 22.2185 15.9405 22.1134 15.64 21.979C14.9604 21.6752 14.6344 21.6037 14.2719 21.679C13.9299 21.75 13.5282 22.0408 13.1455 22.4942C12.8284 22.8699 12.7183 22.9498 12.5141 22.9523C12.2882 22.9551 12.0817 22.8211 11.8205 22.5021C11.5174 22.1319 11.0949 21.8132 10.7964 21.7296C10.6587 21.691 10.4269 21.6755 10.2036 21.6898C9.88774 21.7101 9.76458 21.7485 9.31751 21.966C9.03193 22.1049 8.73567 22.2185 8.65912 22.2185C8.43485 22.2185 8.24141 22.0124 8.09418 21.6167C7.75636 20.7089 7.54895 20.3942 7.15531 20.192C6.8834 20.0523 6.45227 19.9988 5.88248 20.0339C5.434 20.0615 5.30785 20.0538 5.18679 19.9911C5.10544 19.949 5.02099 19.8869 4.99904 19.853C4.97713 19.8191 4.95821 19.4493 4.95694 19.0313C4.95508 18.3808 4.94013 18.235 4.85358 18.0197C4.63828 17.484 4.24787 17.1601 3.55468 16.9422C3.00827 16.7705 2.92892 16.7289 2.84762 16.5715C2.73833 16.3601 2.76499 16.1659 2.94931 15.8303C3.30733 15.1787 3.40804 14.5935 3.24278 14.1249C3.13731 13.8258 2.82434 13.4306 2.45711 13.1327C2.07283 12.821 1.93511 12.5455 2.04773 12.3138C2.08562 12.2359 2.27068 12.0432 2.45892 11.8857C3.41966 11.0818 3.56242 10.3414 2.97024 9.23304C2.75514 8.83052 2.73289 8.63767 2.87457 8.40515C2.95049 8.28065 3.02983 8.23123 3.25425 8.16896C3.95219 7.97512 4.38132 7.72946 4.64254 7.37412C4.91102 7.00886 4.95213 6.82474 4.95581 5.97189L4.95919 5.19549L5.09451 5.07894C5.22556 4.96606 5.25364 4.96268 5.97668 4.97273C6.61694 4.98166 6.76088 4.9693 6.98515 4.88609C7.49279 4.69775 7.75572 4.35437 8.05213 3.4925C8.30723 2.75091 8.55463 2.64397 9.20699 2.99348C9.70478 3.26017 10.0718 3.35785 10.4691 3.32931C10.9657 3.29362 11.2962 3.09194 11.8163 2.50692C11.9722 2.33162 12.1471 2.16137 12.2052 2.12862C12.3391 2.05301 12.5891 2.04948 12.746 2.12092ZM11.3549 5.27586C9.75418 5.54604 8.39407 6.25026 7.27288 7.38937C5.90816 8.7759 5.17973 10.5578 5.17973 12.5098C5.17973 15.9711 7.56282 18.9161 10.9779 19.6751C11.684 19.8321 12.927 19.8555 13.6829 19.7261C15.2184 19.4633 16.5713 18.7606 17.659 17.6608C18.6782 16.6302 19.3262 15.436 19.6507 13.9898C19.7412 13.5866 19.7572 13.3635 19.7572 12.5098C19.7572 11.6561 19.7412 11.4331 19.6507 11.0298C19.4975 10.3469 19.3265 9.86317 19.0213 9.24907C17.9893 7.17224 15.9987 5.69049 13.7148 5.2991C13.0671 5.18809 11.9406 5.17701 11.3549 5.27586ZM13.8054 6.37539C15.0263 6.65386 16.0066 7.19725 16.8993 8.09045C17.8091 9.00067 18.3663 10.0243 18.6377 11.284C18.7633 11.8667 18.7633 13.1529 18.6377 13.7357C18.3663 14.9953 17.8091 16.019 16.8993 16.9292C15.9898 17.8392 14.9687 18.3957 13.7074 18.6688C13.0894 18.8026 11.7876 18.7924 11.178 18.6489C9.90773 18.35 8.96391 17.8285 8.06497 16.9292C7.15521 16.019 6.59802 14.9953 6.32661 13.7357C6.20104 13.1529 6.20104 11.8667 6.32661 11.284C6.60062 10.0122 7.14433 9.01489 8.06664 8.09212C8.78693 7.37147 9.47493 6.92742 10.3693 6.606C10.7417 6.47214 11.4249 6.30645 11.7715 6.26595C12.1954 6.21638 13.39 6.28066 13.8054 6.37539ZM13.428 11.8828L11.455 13.8546L10.535 12.9432C9.85245 12.2669 9.57461 12.023 9.45812 11.9977C9.10858 11.9219 8.75816 12.2724 8.83339 12.6225C8.85883 12.7406 9.13559 13.0505 9.95179 13.8746C10.5483 14.4769 11.0959 15.0009 11.1687 15.0391C11.2415 15.0773 11.3843 15.1086 11.486 15.1086C11.6643 15.1086 11.7483 15.0314 13.8459 12.9389C15.1349 11.6531 16.0498 10.7025 16.0919 10.6055C16.2365 10.2717 15.9817 9.91103 15.6013 9.91103C15.403 9.91103 15.3819 9.9302 13.428 11.8828Z" fill="#4A90E2" stroke="#197AFF" stroke-width="2" mask="url(#path-4-inside-2_0_1595)"/>
</g>
</svg>
