<svg width="299" height="16" viewBox="0 0 299 16" fill="none" xmlns="http://www.w3.org/2000/svg">
<path d="M1.44713 0H21.3307C21.7145 0 22.0826 0.148914 22.3539 0.413983C22.6253 0.679052 22.7778 1.03856 22.7778 1.41343V14.5866C22.7778 14.9614 22.6253 15.3209 22.3539 15.586C22.0826 15.8511 21.7145 16 21.3307 16H1.44713C1.06333 16 0.695243 15.8511 0.423854 15.586C0.152465 15.3209 0 14.9614 0 14.5866V1.41343C0 1.03856 0.152465 0.679052 0.423854 0.413983C0.695243 0.148914 1.06333 0 1.44713 0V0Z" fill="#26A6D1"/>
<path d="M3.66888 5.55467L1.44754 10.4098H4.11026L4.4431 9.63948H5.21007L5.54291 10.4098H8.50229V9.82323L8.76277 10.4098H10.2967L10.5644 9.80909V10.4098H16.722L17.4455 9.66068L18.1691 10.4098H21.3311L19.0736 7.99284L21.3311 5.54761H18.2198L17.4962 6.25432L16.816 5.54761H10.1303L9.55869 6.79849L8.96537 5.54761H6.26648V6.12005L5.96258 5.54761L3.66888 5.55467ZM4.18985 6.26139H5.4995L6.99004 9.54054V6.24725H8.43717L9.58764 8.60768L10.6368 6.24725H12.0839V9.73135H11.2157V6.99637L9.94218 9.73135H9.14626L7.87279 6.99637V9.73135H6.08559L5.74551 8.9469H3.90766L3.57482 9.73135H2.61248L4.18985 6.26139ZM12.8726 6.26139H16.4036L17.489 7.3992L18.596 6.24725H19.6814L18.0389 7.9999L19.6814 9.73135H18.5454L17.4672 8.57234L16.3457 9.73135H12.8654V6.24725L12.8726 6.26139ZM4.82658 6.83383L4.22603 8.24725H5.42714L4.82658 6.83383ZM13.7481 6.9681V7.60414H15.68V8.31086H13.7481V9.01757H15.9188L16.9173 7.9999L15.9188 6.9681H13.7481Z" fill="white"/>
<path d="M43.6815 3.36009C43.4984 3.58489 43.2648 3.76556 42.9988 3.8881C42.7328 4.01065 42.4416 4.07179 42.1475 4.0668C42.1295 3.78609 42.1688 3.50469 42.2632 3.23898C42.3576 2.97326 42.5052 2.72855 42.6974 2.5191C43.0755 2.0823 43.6125 1.80609 44.1952 1.74878C44.2364 2.33326 44.0446 2.91066 43.6598 3.36009H43.6815ZM44.1952 4.17987C43.3486 4.1304 42.6251 4.64631 42.2271 4.64631C41.8291 4.64631 41.2213 4.20108 40.5774 4.21521C40.1336 4.21685 39.6983 4.33434 39.3167 4.55552C38.935 4.7767 38.6208 5.09352 38.4067 5.47316C37.495 7.00673 38.1679 9.27528 39.0507 10.5191C39.4848 11.1339 39.9985 11.8124 40.6787 11.7912C41.3588 11.77 41.6048 11.3884 42.379 11.3884C43.1533 11.3884 43.392 11.7982 44.0722 11.7841C44.7523 11.77 45.2227 11.1693 45.6496 10.5474C45.9579 10.112 46.2015 9.6361 46.3731 9.13394C45.9661 8.96011 45.6195 8.67456 45.3754 8.31199C45.1314 7.94943 45.0004 7.52544 44.9983 7.09154C45.0041 6.70748 45.1093 6.3311 45.3042 5.99745C45.499 5.66381 45.7771 5.38377 46.1126 5.18341C45.896 4.88099 45.6096 4.63259 45.2765 4.45826C44.9434 4.28393 44.573 4.18857 44.1952 4.17987V4.17987ZM49.0792 2.45549V11.7134H50.5264V8.5615H52.5668C52.9897 8.58991 53.4139 8.53056 53.8116 8.38734C54.2094 8.24413 54.5715 8.0203 54.8743 7.73057C55.1771 7.44085 55.4136 7.09179 55.5684 6.70637C55.7232 6.32095 55.7926 5.90789 55.7722 5.49436C55.7919 5.08959 55.7247 4.68527 55.5748 4.30739C55.425 3.92952 55.1958 3.58645 54.9021 3.30024C54.6084 3.01403 54.2566 2.79102 53.8694 2.64554C53.4821 2.50005 53.068 2.43532 52.6537 2.45549H49.0792ZM50.5264 3.67104H52.2268C52.4872 3.63565 52.7525 3.65755 53.0032 3.73512C53.2539 3.8127 53.4837 3.94399 53.6758 4.11942C53.8679 4.29485 54.0174 4.50997 54.1135 4.74907C54.2095 4.98818 54.2497 5.24522 54.231 5.50143C54.2508 5.75913 54.2113 6.01789 54.1154 6.25872C54.0194 6.49956 53.8695 6.71637 53.6766 6.89326C53.4837 7.07014 53.2527 7.2026 53.0006 7.28094C52.7485 7.35927 52.4816 7.38148 52.2195 7.34595H50.5626L50.5264 3.67104ZM58.4566 11.7841C58.8934 11.7947 59.3251 11.6908 59.7068 11.4833C60.0886 11.2757 60.4064 10.9721 60.6273 10.6039V10.6039V11.7134H61.9876V7.10567C61.9876 5.76998 60.895 4.90779 59.2091 4.90779C57.6752 4.90779 56.4958 5.78412 56.4958 6.97846H57.8199C57.8965 6.68453 58.0793 6.42754 58.3346 6.25482C58.5899 6.08211 58.9005 6.00529 59.2091 6.03853C60.1136 6.03853 60.6129 6.44843 60.6129 7.19754V7.71344L58.7678 7.85479C57.0529 7.95373 56.134 8.63924 56.134 9.82652C56.134 11.0138 57.0891 11.7841 58.4566 11.7841ZM58.8474 10.6816C58.0659 10.6816 57.5667 10.3142 57.5667 9.74878C57.5667 9.18341 58.0442 8.82298 58.9631 8.77351L60.5984 8.67457V9.19754C60.5886 9.40914 60.5348 9.61658 60.4404 9.80724C60.3459 9.99791 60.2128 10.1678 60.049 10.3066C59.8852 10.4455 59.6942 10.5503 59.4876 10.6148C59.2811 10.6792 59.0632 10.702 58.8474 10.6816V10.6816ZM63.8327 14.2152C65.2798 14.2152 65.9455 13.6852 66.5316 12.0597L69.1147 5.02793H67.6242L65.9021 10.4696L64.1294 5.02793H62.5882L65.0845 11.7629L64.947 12.1728C64.8977 12.4473 64.7463 12.6943 64.522 12.8664C64.2976 13.0386 64.0161 13.1238 63.7314 13.1057C63.5868 13.1132 63.4419 13.1132 63.2973 13.1057V14.2152C63.4817 14.2417 63.668 14.2535 63.8544 14.2505L63.8327 14.2152Z" fill="black"/>
<path d="M97.8843 7.88369V11.1416H96.8206V3.0851H99.6281C99.9647 3.07933 100.299 3.13881 100.612 3.26012C100.925 3.38142 101.21 3.56214 101.451 3.79181C101.688 4.00986 101.875 4.27432 102 4.56784C102.124 4.86137 102.184 5.17733 102.175 5.49499C102.187 5.81407 102.129 6.13194 102.004 6.42703C101.879 6.72212 101.691 6.98753 101.451 7.20524C101.21 7.43428 100.925 7.61458 100.612 7.73585C100.299 7.85711 99.9646 7.91695 99.6281 7.91196L97.8843 7.88369ZM97.8843 4.08157V6.90842H99.657C99.9373 6.90914 100.212 6.83038 100.447 6.6817C100.682 6.53301 100.868 6.3208 100.982 6.07084C101.097 5.82088 101.134 5.54391 101.09 5.27358C101.046 5.00325 100.923 4.75119 100.735 4.548C100.735 4.548 100.735 4.548 100.735 4.548C100.602 4.40768 100.439 4.29714 100.258 4.22395C100.077 4.15077 99.8818 4.11666 99.686 4.12397L97.8843 4.08157ZM104.65 5.43846C105.327 5.40167 105.994 5.62194 106.509 6.0533C106.739 6.26994 106.919 6.53216 107.036 6.82229C107.153 7.11242 107.206 7.42374 107.189 7.73528V11.1275H106.176V10.3855H106.126C105.943 10.6784 105.686 10.9198 105.379 11.0858C105.072 11.2519 104.726 11.3369 104.375 11.3325C103.804 11.3503 103.248 11.1558 102.819 10.7883C102.617 10.6239 102.456 10.4172 102.347 10.1835C102.238 9.94982 102.184 9.69517 102.189 9.43846C102.179 9.17715 102.233 8.91722 102.348 8.68091C102.463 8.4446 102.634 8.23895 102.848 8.08157C103.363 7.72043 103.988 7.541 104.621 7.57273C105.16 7.55292 105.696 7.66978 106.176 7.91196V7.67167C106.177 7.49722 106.137 7.32487 106.061 7.16716C105.985 7.00945 105.873 6.87036 105.735 6.76001C105.455 6.51425 105.091 6.37833 104.715 6.37839C104.438 6.36882 104.164 6.42879 103.918 6.55255C103.672 6.6763 103.463 6.85969 103.311 7.0851L102.378 6.51266C102.63 6.15824 102.972 5.87325 103.37 5.68512C103.768 5.49698 104.208 5.41204 104.65 5.43846ZM103.282 9.44552C103.277 9.58201 103.306 9.71769 103.366 9.84082C103.427 9.96396 103.517 10.0708 103.629 10.1522C103.865 10.3304 104.156 10.4251 104.454 10.4208C104.901 10.4194 105.33 10.2469 105.648 9.94022C105.813 9.79768 105.946 9.62261 106.037 9.42651C106.128 9.23042 106.175 9.01773 106.176 8.80242C105.774 8.52323 105.287 8.38614 104.794 8.41372C104.411 8.40181 104.034 8.50814 103.716 8.71761C103.585 8.80014 103.477 8.91297 103.401 9.04611C103.326 9.17925 103.285 9.32858 103.282 9.48086V9.44552ZM113 5.61514L109.469 13.5586H108.369L109.686 10.7812L107.356 5.61514H108.506L110.192 9.5798L111.827 5.61514H113Z" fill="#5F6368"/>
<path d="M93.5981 7.17675C93.5971 6.86187 93.5704 6.54758 93.5185 6.23682H89.0469V8.01774H91.6083C91.5555 8.30341 91.4444 8.57578 91.2815 8.81861C91.1187 9.06144 90.9075 9.26976 90.6604 9.43116V10.5902H92.2016C92.6743 10.1535 93.0474 9.62452 93.2968 9.0376C93.5461 8.45068 93.666 7.81903 93.6487 7.18381L93.5981 7.17675Z" fill="#4285F4"/>
<path d="M89.0496 11.6999C90.2088 11.7367 91.3382 11.3369 92.2043 10.5833L90.6776 9.42432C90.3095 9.64837 89.8946 9.78876 89.4636 9.83513C89.0325 9.8815 88.5963 9.83266 88.1871 9.69221C87.778 9.55177 87.4063 9.32331 87.0998 9.02373C86.7932 8.72415 86.5594 8.36111 86.4158 7.96143H84.8167V9.14871C85.2103 9.91579 85.8147 10.5607 86.5623 11.0113C87.3099 11.4619 88.1711 11.7003 89.0496 11.6999V11.6999Z" fill="#34A853"/>
<path d="M86.4147 7.96136C86.2198 7.38539 86.2198 6.76348 86.4147 6.18751V4.99316H84.8156C84.4835 5.63774 84.3105 6.34931 84.3105 7.0709C84.3105 7.7925 84.4835 8.50407 84.8156 9.14864L86.4147 7.96136Z" fill="#FBBC04"/>
<path d="M89.0475 4.27926C89.3831 4.27364 89.7164 4.33323 90.0282 4.45455C90.34 4.57587 90.624 4.75651 90.8636 4.98597L92.2022 3.65029C91.3439 2.86497 90.2091 2.43226 89.033 2.4418C88.1549 2.44302 87.2943 2.68213 86.5471 3.13253C85.7998 3.58294 85.1951 4.22699 84.8002 4.99304L86.4137 6.18739C86.5964 5.64212 86.9479 5.16569 87.4197 4.82389C87.8914 4.4821 88.4602 4.29179 89.0475 4.27926Z" fill="#EA4335"/>
<path d="M141.214 13.5585C142.361 12.5433 143.166 11.2133 143.525 9.74315C143.884 8.27295 143.78 6.73111 143.226 5.31982C142.672 3.90852 141.695 2.69366 140.422 1.83454C139.148 0.975416 137.639 0.51215 136.092 0.505487C135.066 0.474694 134.045 0.6454 133.088 1.00748C132.131 1.36956 131.258 1.91563 130.522 2.61331C129.785 3.31099 129.2 4.14606 128.8 5.06898C128.4 5.9919 128.194 6.98387 128.194 7.98605C128.194 8.98823 128.4 9.98021 128.8 10.9031C129.2 11.8261 129.785 12.6611 130.522 13.3588C131.258 14.0565 132.131 14.6025 133.088 14.9646C134.045 15.3267 135.066 15.4974 136.092 15.4666C137.986 15.4909 139.818 14.8084 141.214 13.5585V13.5585Z" fill="#07A9E2"/>
<path d="M128.414 7.99652C128.419 9.98021 129.231 11.8805 130.671 13.2799C132.11 14.6792 134.06 15.4632 136.091 15.4594C137.991 15.4784 139.825 14.7825 141.214 13.516V13.516C142.354 12.5013 143.155 11.1739 143.511 9.70747C143.866 8.24104 143.76 6.70389 143.207 5.2972C142.653 3.89051 141.678 2.67981 140.408 1.82357C139.138 0.967321 137.634 0.505411 136.091 0.498291" fill="#009DDD"/>
<path d="M141.214 2.44175C139.812 1.19579 137.986 0.50313 136.091 0.498291H135.729C134.507 1.34465 133.509 2.4641 132.819 3.76339C132.129 5.06269 131.766 6.50422 131.762 7.96793C131.758 9.43165 132.112 10.8752 132.794 12.1783C133.477 13.4814 134.468 14.6063 135.686 15.4594H136.055C137.952 15.4773 139.784 14.7814 141.171 13.516C141.962 12.8169 142.596 11.9642 143.03 11.0123C143.465 10.0605 143.692 9.03052 143.696 7.98822C143.7 6.94592 143.482 5.91426 143.054 4.95921C142.627 4.00415 142 3.14673 141.214 2.44175V2.44175Z" fill="#0284CC"/>
<path d="M146.374 0.498401C144.465 0.48822 142.623 1.18232 141.215 2.44186C140.937 2.68639 140.679 2.95097 140.441 3.23338H141.99C142.2 3.48104 142.389 3.74584 142.554 4.0249H139.819C139.656 4.28347 139.506 4.55002 139.37 4.82349H142.988C143.115 5.07968 143.224 5.34415 143.314 5.61501H139.095C139.016 5.89063 138.929 6.13091 138.849 6.40653H143.567C143.683 6.92875 143.736 7.46237 143.726 7.99663C143.736 8.80764 143.599 9.61394 143.321 10.3783H139.095C139.185 10.6491 139.294 10.9136 139.421 11.1698H143.039C142.912 11.4479 142.762 11.715 142.59 11.9684H139.87C140.034 12.2474 140.223 12.5122 140.434 12.7599H141.99C141.752 13.0447 141.494 13.3117 141.215 13.5585C142.632 14.8039 144.468 15.4958 146.374 15.5019C148.41 15.5019 150.363 14.7119 151.803 13.3058C153.243 11.8996 154.051 9.99236 154.051 8.0037C154.051 6.01505 153.243 4.10784 151.803 2.70165C150.363 1.29546 148.41 0.505469 146.374 0.505469V0.498401Z" fill="#FF2957"/>
<path d="M146.374 0.498401C144.465 0.48822 142.623 1.18232 141.215 2.44186C140.937 2.68639 140.679 2.95097 140.441 3.23338H141.99C142.2 3.48104 142.389 3.74584 142.554 4.0249H139.819C139.656 4.28347 139.506 4.55002 139.37 4.82349H142.988C143.115 5.07968 143.224 5.34415 143.314 5.61501H139.095C139.016 5.89063 138.929 6.13091 138.849 6.40653H143.567C143.683 6.92875 143.736 7.46237 143.726 7.99664C143.736 8.80764 143.599 9.61394 143.321 10.3783H139.095C139.185 10.6491 139.294 10.9136 139.421 11.1698H143.039C142.912 11.4479 142.762 11.715 142.59 11.9684H139.87C140.034 12.2474 140.223 12.5122 140.434 12.7599H141.99C141.752 13.0447 141.494 13.3117 141.215 13.5585C142.632 14.8039 144.468 15.4958 146.374 15.5019C147.378 15.5038 148.372 15.3123 149.299 14.9383C150.226 14.5644 151.069 14.0154 151.779 13.3228C152.489 12.6301 153.052 11.8075 153.435 10.9021C153.819 9.9966 154.016 9.02608 154.015 8.04611" fill="#ED1C2E"/>
<path d="M141.215 13.5585C142.008 12.8551 142.641 11.9975 143.074 11.0409C143.508 10.0843 143.732 9.04981 143.732 8.00375C143.732 6.95768 143.508 5.92316 143.074 4.96657C142.641 4.00998 142.008 3.15244 141.215 2.44897V13.5585Z" fill="#0466B5"/>
<path d="M151.395 9.62183C151.404 9.56606 151.434 9.51549 151.479 9.47904C151.523 9.44259 151.579 9.42261 151.637 9.42261C151.695 9.42261 151.751 9.44259 151.795 9.47904C151.84 9.51549 151.869 9.56606 151.879 9.62183C151.885 9.65635 151.884 9.69175 151.874 9.72557C151.865 9.75939 151.848 9.7908 151.825 9.8176C151.802 9.8444 151.773 9.86595 151.741 9.88073C151.708 9.89551 151.673 9.90317 151.637 9.90317C151.601 9.90317 151.566 9.89551 151.533 9.88073C151.501 9.86595 151.472 9.8444 151.449 9.8176C151.426 9.7908 151.409 9.75939 151.399 9.72557C151.39 9.69175 151.388 9.65635 151.395 9.62183V9.62183ZM151.641 9.81971C151.756 9.81971 151.8 9.74198 151.8 9.62183C151.802 9.60087 151.799 9.57967 151.792 9.5598C151.785 9.53992 151.773 9.52187 151.758 9.50696C151.743 9.49206 151.724 9.48067 151.704 9.47365C151.684 9.46662 151.662 9.46413 151.641 9.46636C151.617 9.4634 151.593 9.46509 151.57 9.47133C151.546 9.47757 151.525 9.48823 151.506 9.50269C151.487 9.51716 151.471 9.53514 151.46 9.5556C151.448 9.57605 151.441 9.59857 151.438 9.62183C151.447 9.67094 151.472 9.71613 151.508 9.75145C151.544 9.78677 151.59 9.81057 151.641 9.81971V9.81971ZM151.641 9.69957H151.597V9.50169H151.72L151.756 9.54409C151.756 9.5865 151.756 9.5865 151.72 9.5865L151.756 9.66424H151.72L151.677 9.5865H151.641V9.69957V9.69957ZM151.641 9.5865H151.677V9.54409H151.641V9.5865Z" fill="white"/>
<path d="M141.215 2.44174C140.937 2.68626 140.679 2.95085 140.441 3.23326H141.99C142.2 3.48091 142.389 3.74572 142.554 4.02478H139.819C139.656 4.28335 139.506 4.54989 139.37 4.82336H142.988C143.115 5.07955 143.224 5.34402 143.314 5.61488H139.095C139.016 5.8905 138.929 6.13078 138.849 6.4064H143.567C143.683 6.92863 143.736 7.46224 143.726 7.99651C143.736 8.80751 143.599 9.61381 143.321 10.3781H139.095C139.185 10.649 139.294 10.9135 139.421 11.1697H143.039C142.912 11.4477 142.762 11.7149 142.59 11.9682H139.87C140.034 12.2473 140.223 12.5121 140.434 12.7598H141.99C141.752 13.0446 141.494 13.3116 141.215 13.5583C142.632 14.8037 144.468 15.4956 146.374 15.5018H146.743C147.955 14.6509 148.942 13.5307 149.623 12.2337C150.304 10.9366 150.659 9.5 150.659 8.04244C150.659 6.58489 150.304 5.14826 149.623 3.85121C148.942 2.55417 147.955 1.43395 146.743 0.58308H146.374C144.473 0.523004 142.622 1.18981 141.215 2.44174V2.44174Z" fill="#D1094B"/>
<path d="M135.115 9.86265H134.146L134.71 6.96513L133.415 9.86265H132.561L132.394 6.96513L131.83 9.86265H130.976L131.707 6.05347H133.212L133.292 8.43509L134.348 6.05347H135.889L135.115 9.86265Z" fill="white"/>
<path d="M134.181 8.19487L134.753 6.96519L134.304 9.26908C134.34 9.48553 134.396 9.6984 134.471 9.90512H135.122L135.846 6.08887H134.398C134.221 6.72494 134.126 7.38024 134.116 8.0394C134.181 8.07473 134.181 8.11714 134.181 8.19487Z" fill="#DCE5E5"/>
<path d="M145.765 9.81983C145.533 9.90094 145.288 9.9416 145.042 9.93997C144.557 9.93997 144.318 9.69969 144.318 9.23325C144.313 9.13712 144.327 9.04093 144.361 8.95057L144.405 8.63255V8.39933L144.882 6.08838H145.816L145.693 6.79509H146.185L146.062 7.50181H145.606L145.367 8.76682C145.36 8.80903 145.345 8.84969 145.324 8.88697C145.324 9.04951 145.447 9.12725 145.649 9.12725C145.852 9.12725 145.852 9.12725 145.895 9.08484L145.772 9.79156L145.765 9.81983Z" fill="#DCE5E5"/>
<path d="M148.565 6.80917C148.485 6.76677 148.485 6.76677 148.449 6.76677C148.413 6.76677 148.362 6.76677 148.362 6.72437H148.247C147.921 6.72437 147.718 6.84451 147.429 7.24027L147.509 6.76677H146.655L146.09 9.86218H147.053C147.378 7.95405 147.538 7.63603 147.986 7.63603H148.109L148.232 7.67843L148.551 6.80917H148.565Z" fill="#DCE5E5"/>
<path d="M141.988 7.75649C141.987 7.9594 142.058 8.15639 142.191 8.31281C142.323 8.46922 142.508 8.57503 142.712 8.61161C143.117 8.77416 143.16 8.80949 143.16 8.97204C143.16 9.13458 142.994 9.24765 142.589 9.24765C142.3 9.24589 142.013 9.20547 141.735 9.12751L141.612 9.83423H141.655L141.815 9.87663H142.061C142.235 9.90743 142.412 9.92163 142.589 9.91903C143.602 9.91903 144.094 9.60101 144.094 8.88723C144.094 8.44907 143.891 8.18052 143.37 8.0109C142.849 7.84129 142.922 7.81302 142.922 7.69288C142.922 7.57274 143.088 7.4526 143.414 7.4526C143.644 7.44789 143.874 7.46208 144.101 7.495L144.224 6.78829C143.941 6.75304 143.656 6.73886 143.37 6.74589C142.314 6.74589 141.923 7.22645 141.923 7.77769L141.988 7.75649Z" fill="#DCE5E5"/>
<path d="M138.204 9.86255H137.437V9.54452C137.302 9.6701 137.141 9.76695 136.966 9.82898C136.79 9.89101 136.603 9.91688 136.417 9.90495C136.303 9.91108 136.19 9.89371 136.083 9.85397C135.977 9.81423 135.88 9.75301 135.799 9.67432C135.719 9.59563 135.656 9.50122 135.616 9.39727C135.575 9.29331 135.557 9.18215 135.563 9.07103C135.563 8.31484 136.178 7.87668 137.235 7.87668H137.647C137.659 7.81121 137.659 7.74427 137.647 7.6788C137.647 7.48092 137.488 7.40318 137.039 7.40318C136.779 7.40396 136.52 7.43 136.265 7.48092L136.149 7.52332H136.063L136.186 6.81661C136.555 6.71442 136.937 6.66211 137.322 6.66113C138.139 6.66113 138.588 6.97915 138.588 7.57279C138.59 7.78775 138.561 8.00191 138.501 8.20884L138.327 9.31838L138.291 9.51626L138.248 9.67173V9.79187L138.204 9.83428V9.86255ZM137.481 8.44912H137.278C136.75 8.44912 136.461 8.61166 136.461 8.92968C136.457 8.97226 136.464 9.01501 136.479 9.05503C136.494 9.09506 136.518 9.1314 136.549 9.16159C136.58 9.19177 136.617 9.21509 136.658 9.22996C136.699 9.24482 136.743 9.25087 136.786 9.2477C136.89 9.24856 136.992 9.22773 137.087 9.18662C137.181 9.1455 137.266 9.08506 137.334 9.00937C137.403 8.93368 137.454 8.8445 137.484 8.74785C137.515 8.6512 137.523 8.54933 137.51 8.44912H137.481Z" fill="#DCE5E5"/>
<path d="M141.338 9.78432C141.019 9.86252 140.691 9.90286 140.361 9.90446C139.305 9.90446 138.733 9.4239 138.733 8.49103C138.71 8.26204 138.736 8.03085 138.809 7.81215C138.883 7.59344 139.002 7.39198 139.159 7.22055C139.316 7.04912 139.508 6.91145 139.722 6.81628C139.937 6.72112 140.169 6.67052 140.405 6.66771C140.564 6.64842 140.726 6.66289 140.88 6.71014C141.033 6.75739 141.174 6.83631 141.294 6.94155C141.413 7.04679 141.508 7.17589 141.572 7.32008C141.636 7.46427 141.667 7.62019 141.664 7.77725C141.656 8.03339 141.615 8.2875 141.541 8.53344H139.631V8.64651C139.631 9.00694 139.913 9.20482 140.441 9.20482C140.778 9.21852 141.114 9.15054 141.418 9.00694L141.338 9.76312V9.78432ZM140.846 7.95393V7.79846C140.849 7.74272 140.839 7.6871 140.817 7.63552C140.795 7.58394 140.762 7.53766 140.72 7.49992C140.678 7.46219 140.628 7.43393 140.574 7.41713C140.519 7.40033 140.461 7.3954 140.405 7.4027C140.252 7.40966 140.107 7.46867 139.995 7.56941C139.883 7.67015 139.81 7.80624 139.79 7.95393H140.846Z" fill="#DCE5E5"/>
<path d="M151.532 8.47016C151.509 8.68688 151.443 8.89709 151.337 9.0886C151.23 9.28011 151.086 9.44912 150.913 9.58584C150.739 9.72257 150.539 9.82428 150.325 9.88509C150.111 9.94591 149.887 9.96461 149.665 9.94013C149.467 9.96129 149.267 9.93975 149.078 9.87702C148.89 9.8143 148.718 9.71192 148.574 9.57711C148.431 9.4423 148.319 9.27836 148.248 9.09686C148.176 8.91536 148.146 8.72072 148.16 8.5267C148.145 8.28287 148.184 8.03873 148.273 7.81047C148.362 7.5822 148.499 7.37502 148.676 7.20263C148.854 7.03024 149.066 6.89659 149.3 6.81052C149.534 6.72445 149.784 6.68793 150.034 6.70338C150.231 6.68699 150.429 6.7119 150.614 6.77644C150.8 6.84099 150.97 6.94366 151.112 7.07757C151.254 7.21147 151.365 7.3735 151.437 7.55276C151.51 7.73201 151.542 7.92434 151.532 8.11681V8.51256V8.47016ZM150.519 8.0744C150.519 7.75638 150.396 7.48076 149.991 7.48076C149.585 7.48076 149.216 8.03907 149.216 8.55497C149.216 8.95073 149.419 9.22635 149.745 9.22635C149.929 9.1859 150.097 9.09213 150.226 8.95724C150.355 8.82236 150.439 8.65262 150.468 8.47016C150.502 8.3409 150.516 8.20766 150.512 8.0744H150.519Z" fill="white"/>
<path d="M148.204 8.87274C148.252 8.58284 148.279 8.28999 148.284 7.99641V7.90454C148.237 8.11364 148.21 8.3266 148.204 8.54058C148.181 8.59288 148.168 8.64946 148.168 8.70666C148.168 8.76387 148.181 8.82044 148.204 8.87274V8.87274Z" fill="white"/>
<path d="M184.977 8.02861C184.971 9.54674 184.505 11.0292 183.637 12.2888C182.769 13.5483 181.539 14.5285 180.101 15.1056C178.664 15.6827 177.083 15.8308 175.559 15.5312C174.036 15.2317 172.637 14.4978 171.54 13.4223C170.443 12.3469 169.696 10.978 169.395 9.48865C169.094 7.99927 169.252 6.45613 169.848 5.05408C170.444 3.65203 171.452 2.45393 172.745 1.61107C174.038 0.768206 175.557 0.31837 177.111 0.318359C178.147 0.318353 179.172 0.517986 180.128 0.905808C181.084 1.29363 181.952 1.86201 182.683 2.57834C183.414 3.29468 183.993 4.14487 184.386 5.08016C184.78 6.01545 184.98 7.01742 184.977 8.02861V8.02861Z" fill="#E2574C"/>
<path d="M186.553 0.318363C184.858 0.316815 183.21 0.855246 181.857 1.85193V1.85193C182.13 2.06886 182.386 2.30506 182.624 2.55865H180.989C180.728 2.81231 180.486 3.08392 180.265 3.37137H183.159C183.382 3.61223 183.585 3.86979 183.767 4.14168H179.751C179.604 4.38876 179.472 4.64357 179.353 4.90493H184.223C184.354 5.13217 184.467 5.36836 184.563 5.61165H179.064C178.973 5.87748 178.9 6.149 178.847 6.42437H184.795C184.851 6.67642 184.895 6.93118 184.925 7.18762H178.724C178.724 7.43497 178.688 7.69645 178.688 7.95087H184.968C184.963 8.23477 184.938 8.51804 184.896 8.79893H178.695C178.721 9.05773 178.762 9.31491 178.818 9.56924H184.758C184.693 9.81659 184.621 10.0639 184.534 10.3254H179.013C179.1 10.5869 179.201 10.8413 179.31 11.0957H184.194C184.059 11.3594 183.907 11.6143 183.738 11.859H179.708C179.866 12.1269 180.043 12.3843 180.236 12.6293L183.13 12.6717C182.864 12.9274 182.578 13.1636 182.277 13.3784H180.88C181.786 14.2811 182.906 14.9513 184.141 15.3298C185.376 15.7082 186.688 15.7832 187.959 15.548C189.231 15.3127 190.424 14.7746 191.432 13.9813C192.439 13.188 193.231 12.1641 193.736 11.0003C194.242 9.83658 194.446 8.56896 194.329 7.30991C194.213 6.05087 193.78 4.83931 193.07 3.78271C192.359 2.7261 191.393 1.8571 190.256 1.25278C189.119 0.648455 187.847 0.327495 186.553 0.318363V0.318363Z" fill="#F4B459"/>
<path d="M245.164 5.25098H242.675C242.595 5.2649 242.519 5.29887 242.456 5.34962C242.392 5.40036 242.343 5.46617 242.314 5.54073L241.286 11.8234C241.283 11.853 241.286 11.883 241.296 11.9111C241.306 11.9392 241.323 11.9648 241.344 11.9858C241.366 12.0069 241.392 12.0229 241.421 12.0327C241.449 12.0425 241.48 12.0459 241.51 12.0425H242.827C242.857 12.0461 242.888 12.0429 242.916 12.0331C242.945 12.0233 242.971 12.0071 242.992 11.9858C243.013 11.9646 243.029 11.9389 243.038 11.9107C243.047 11.8825 243.049 11.8526 243.044 11.8234L243.334 10.0425C243.345 9.95683 243.389 9.87868 243.458 9.82459C243.527 9.77051 243.615 9.74474 243.703 9.75274H244.506C246.194 9.75274 247.145 8.96829 247.357 7.39939C247.431 7.13213 247.443 6.85218 247.393 6.57967C247.343 6.30716 247.232 6.04888 247.067 5.82341C246.519 5.42573 245.847 5.2237 245.164 5.25098ZM245.461 7.6114C245.309 8.46652 244.651 8.46652 244.014 8.46652H243.58L243.869 6.82695C243.869 6.75628 243.942 6.67854 244.086 6.67854H244.238C244.672 6.67854 245.114 6.67854 245.331 6.96829C245.483 7.03896 245.483 7.25098 245.483 7.6114" fill="#139AD6"/>
<path d="M227.262 5.25101H224.773C224.691 5.26447 224.615 5.29817 224.55 5.3489C224.485 5.39962 224.435 5.46568 224.404 5.54077L223.384 11.8235C223.379 11.8527 223.382 11.8825 223.391 11.9107C223.4 11.9389 223.415 11.9646 223.437 11.9859C223.458 12.0071 223.483 12.0233 223.512 12.0331C223.54 12.043 223.571 12.0462 223.601 12.0425H224.773C224.918 12.0425 225.063 11.8941 225.135 11.7528L225.432 10.0425C225.441 9.95746 225.484 9.87934 225.552 9.8251C225.619 9.77086 225.706 9.74487 225.793 9.75278H226.604C228.282 9.75278 229.233 8.96833 229.455 7.39942C229.528 7.13166 229.539 6.85141 229.488 6.57888C229.436 6.30636 229.324 6.04834 229.158 5.82345C228.618 5.41361 227.944 5.21008 227.262 5.25101V5.25101ZM227.552 7.61144C227.407 8.46656 226.748 8.46656 226.105 8.46656H225.736L226.032 6.82698C226.032 6.75631 226.105 6.67858 226.249 6.67858H226.394C226.835 6.67858 227.277 6.67857 227.494 6.96833C227.553 7.06399 227.59 7.17105 227.602 7.2821C227.615 7.39315 227.603 7.50553 227.566 7.61144" fill="#263B80"/>
<path d="M234.782 7.54088H233.61C233.538 7.54088 233.393 7.61155 233.393 7.68222L233.321 8.04265L233.241 7.89424C233.062 7.71619 232.844 7.57941 232.604 7.49384C232.363 7.40827 232.107 7.37605 231.852 7.39954C231.189 7.4164 230.554 7.66198 230.058 8.09274C229.563 8.5235 229.24 9.11163 229.146 9.7529C229.077 10.0642 229.081 10.3865 229.158 10.6961C229.234 11.0056 229.381 11.2944 229.587 11.5409C229.781 11.7446 230.02 11.9022 230.286 12.0014C230.552 12.1007 230.838 12.139 231.121 12.1133C231.432 12.1206 231.741 12.0675 232.03 11.9571C232.32 11.8467 232.584 11.6812 232.807 11.4702L232.735 11.8236C232.73 11.8528 232.732 11.8826 232.741 11.9108C232.751 11.939 232.766 11.9647 232.787 11.986C232.808 12.0072 232.834 12.0234 232.863 12.0332C232.891 12.0431 232.922 12.0463 232.952 12.0426H234.052C234.196 12.0426 234.341 11.8942 234.413 11.7529L235.072 7.7529C235 7.68222 234.855 7.54088 234.782 7.54088V7.54088ZM233.097 9.82357C233.034 10.1407 232.862 10.4273 232.609 10.6356C232.356 10.8439 232.038 10.9614 231.707 10.9684C231.413 10.9755 231.126 10.8746 230.904 10.6858C230.747 10.4251 230.672 10.1255 230.687 9.82357C230.727 9.50932 230.883 9.22005 231.125 9.00948C231.367 8.79891 231.68 8.68137 232.004 8.67869C232.297 8.68832 232.578 8.78994 232.807 8.96844C233.009 9.2085 233.112 9.51331 233.097 9.82357" fill="#263B80"/>
<path d="M252.624 7.54095H251.452C251.38 7.54095 251.235 7.61163 251.235 7.6823L251.163 8.04272L251.09 7.89431C250.906 7.72242 250.686 7.59217 250.445 7.51278C250.203 7.4334 249.947 7.40683 249.694 7.43495C249.031 7.45181 248.396 7.69738 247.9 8.12815C247.405 8.55891 247.082 9.14704 246.988 9.7883C246.918 10.0991 246.921 10.4211 246.996 10.7306C247.071 11.0401 247.217 11.3292 247.422 11.5763C247.617 11.7802 247.858 11.9377 248.125 12.037C248.392 12.1362 248.679 12.1744 248.963 12.1487C249.273 12.1555 249.58 12.1021 249.869 11.9917C250.157 11.8813 250.42 11.7161 250.642 11.5056L250.57 11.859C250.565 11.8882 250.567 11.918 250.576 11.9462C250.585 11.9744 250.601 12.0002 250.622 12.0214C250.643 12.0426 250.669 12.0588 250.698 12.0686C250.726 12.0785 250.757 12.0817 250.787 12.0781H251.865C251.946 12.0634 252.022 12.0292 252.087 11.9786C252.151 11.9281 252.202 11.8627 252.234 11.7883L252.892 7.7883C252.813 7.71763 252.74 7.57629 252.596 7.57629L252.624 7.54095ZM250.917 9.85898C250.848 10.165 250.677 10.4401 250.431 10.6409C250.185 10.8418 249.877 10.957 249.557 10.9685C249.26 10.9753 248.971 10.8746 248.746 10.6858C248.59 10.4252 248.514 10.1255 248.529 9.82364C248.569 9.50939 248.725 9.22012 248.967 9.00955C249.209 8.79899 249.522 8.68144 249.846 8.67876C250.139 8.68581 250.422 8.78773 250.649 8.96852C250.78 9.06643 250.877 9.19993 250.93 9.35214C250.983 9.50435 250.988 9.66843 250.946 9.82364" fill="#139AD6"/>
<path d="M241.142 7.54099H239.898C239.842 7.54204 239.787 7.55527 239.737 7.57972C239.686 7.60417 239.643 7.63923 239.608 7.68233L237.995 10.1134L237.271 7.82368C237.245 7.75295 237.195 7.69318 237.129 7.65453C237.063 7.61588 236.985 7.60073 236.909 7.61166H235.73C235.585 7.61166 235.513 7.753 235.513 7.89435L236.83 11.6753L235.585 13.3926C235.513 13.5339 235.585 13.7459 235.73 13.7459H236.902C236.958 13.7449 237.013 13.7317 237.063 13.7072C237.113 13.6828 237.157 13.6477 237.191 13.6046L241.214 7.95088C241.439 7.73887 241.287 7.52686 241.142 7.52686" fill="#263B80"/>
<path d="M254.036 5.47019L253.016 11.8942C253.016 12.0426 253.088 12.1133 253.233 12.1133H254.26C254.405 12.1133 254.55 11.9649 254.622 11.8235L255.65 5.54086C255.655 5.51099 255.652 5.48038 255.643 5.45157C255.633 5.42276 255.617 5.39657 255.595 5.37517C255.573 5.35377 255.546 5.33776 255.517 5.32848C255.487 5.3192 255.456 5.3169 255.425 5.32178H254.26C254.181 5.25111 254.108 5.32178 254.036 5.47019Z" fill="#139AD6"/>
<path d="M217.958 3.10976C217.444 2.53732 216.511 2.25464 215.18 2.25464H211.518C211.401 2.27144 211.29 2.32006 211.2 2.39499C211.109 2.46993 211.041 2.5682 211.005 2.67867L209.558 12.0426C209.549 12.1278 209.576 12.2127 209.632 12.2788C209.687 12.3449 209.767 12.3871 209.854 12.396H212.119L212.705 8.89775V9.03909C212.74 8.92688 212.806 8.82669 212.897 8.75031C212.988 8.67393 213.1 8.62456 213.219 8.608H214.311C216.431 8.608 218.045 7.75287 218.559 5.39245V5.18043C218.624 4.81443 218.605 4.43894 218.503 4.08093C218.402 3.72291 218.221 3.39125 217.973 3.10976" fill="#263B80"/>
<path d="M218.465 5.18018V5.39219C217.958 7.82328 216.345 8.60774 214.225 8.60774H213.132C213.013 8.6243 212.902 8.67367 212.811 8.75005C212.72 8.82643 212.653 8.92662 212.618 9.03883L211.895 13.3993C211.891 13.4372 211.897 13.4754 211.91 13.5111C211.923 13.5469 211.945 13.5794 211.972 13.6063C212 13.6332 212.033 13.6539 212.07 13.667C212.106 13.6801 212.145 13.6852 212.184 13.6819H214.087C214.193 13.69 214.298 13.6577 214.38 13.5919C214.463 13.526 214.516 13.4317 214.528 13.3286V13.2508L214.89 11.0388V10.8975C214.901 10.7931 214.953 10.697 215.036 10.6297C215.118 10.5624 215.224 10.5291 215.332 10.5371H215.621C217.452 10.5371 218.913 9.83035 219.282 7.71021C219.378 7.35147 219.395 6.9769 219.331 6.61137C219.268 6.24584 219.125 5.89771 218.913 5.59007C218.869 5.50371 218.807 5.42716 218.731 5.36517C218.655 5.30318 218.567 5.25705 218.472 5.22965" fill="#139AD6"/>
<path d="M217.959 4.96879C217.886 4.96879 217.814 4.89812 217.734 4.89812C217.695 4.90274 217.655 4.8988 217.618 4.88658C217.58 4.87436 217.546 4.85416 217.517 4.82745C217.205 4.76609 216.887 4.74235 216.569 4.75678H213.711C213.672 4.75216 213.632 4.7561 213.595 4.76832C213.557 4.78054 213.523 4.80074 213.494 4.82745C213.428 4.86056 213.372 4.91124 213.334 4.97372C213.295 5.0362 213.276 5.10796 213.277 5.18081L212.691 8.89812V9.03946C212.726 8.92726 212.793 8.82706 212.884 8.75068C212.975 8.67431 213.086 8.62493 213.205 8.60837H214.297C216.417 8.60837 218.031 7.75324 218.545 5.39282C218.54 5.35446 218.544 5.31554 218.557 5.27888C218.569 5.24222 218.59 5.20873 218.617 5.18081C218.465 5.11014 218.393 5.03946 218.248 5.03946C218.103 5.03946 218.031 4.96879 217.959 4.96879" fill="#232C65"/>
<path d="M281.15 11.9388L282.575 4.09424H284.804L283.422 11.9388H281.15Z" fill="#3C58BF"/>
<path d="M281.15 11.9388L282.973 4.09424H284.804L283.422 11.9388H281.15Z" fill="#293688"/>
<path d="M291.496 4.1861C290.84 3.94363 290.143 3.82376 289.441 3.83275C287.213 3.83275 285.606 4.92815 285.606 6.48999C285.606 7.6702 286.721 8.27798 287.618 8.67374C288.515 9.0695 288.776 9.32391 288.776 9.6702C288.776 10.1932 288.052 10.4547 287.437 10.4547C286.689 10.4755 285.946 10.328 285.266 10.0236L284.955 9.88928L284.658 11.6773C285.471 11.972 286.331 12.1205 287.198 12.1154C289.564 12.1154 291.127 11.0271 291.127 9.36632C291.127 8.45465 290.541 7.75501 289.202 7.18964C288.407 6.80094 287.914 6.58186 287.914 6.1861C287.914 5.79034 288.312 5.47939 289.202 5.47939C289.785 5.46115 290.365 5.56476 290.903 5.78328L291.127 5.86808L291.482 4.17197L291.496 4.1861Z" fill="#3C58BF"/>
<path d="M291.496 4.1861C290.84 3.94363 290.143 3.82376 289.441 3.83275C287.213 3.83275 286.012 4.92815 286.012 6.48999C286.007 6.97344 286.16 7.44573 286.449 7.83837C286.738 8.23101 287.147 8.52361 287.618 8.67374C288.508 9.06243 288.776 9.32391 288.776 9.6702C288.776 10.1932 288.052 10.4547 287.437 10.4547C286.689 10.4755 285.946 10.328 285.266 10.0236L284.955 9.88928L284.658 11.6773C285.471 11.972 286.331 12.1205 287.198 12.1154C289.564 12.1154 291.127 11.0271 291.127 9.36632C291.127 8.45465 290.541 7.75501 289.202 7.18964C288.407 6.80094 287.914 6.58186 287.914 6.1861C287.914 5.79034 288.312 5.47939 289.202 5.47939C289.785 5.46115 290.365 5.56476 290.903 5.78328L291.127 5.86808L291.482 4.17197L291.496 4.1861Z" fill="#293688"/>
<path d="M295.332 4.09424C294.797 4.09424 294.399 4.14371 294.174 4.66668L290.824 11.9388H293.234L293.682 10.6313H296.533L296.801 11.9388H298.972L297.098 4.09424H295.332ZM294.305 9.32392C294.442 8.93523 295.202 7.01297 295.202 7.01297C295.202 7.01297 295.375 6.53947 295.513 6.22851L295.643 6.97056C295.643 6.97056 296.092 8.93523 296.179 9.36632H294.305V9.32392Z" fill="#3C58BF"/>
<path d="M295.867 4.09424C295.332 4.09424 294.934 4.14371 294.71 4.66668L290.824 11.9388H293.234L293.682 10.6313H296.533L296.801 11.9388H298.972L297.098 4.09424H295.867ZM294.305 9.32392C294.485 8.88576 295.202 7.01297 295.202 7.01297C295.202 7.01297 295.375 6.53947 295.513 6.22851L295.643 6.97056C295.643 6.97056 296.092 8.93523 296.179 9.36632H294.305V9.32392Z" fill="#293688"/>
<path d="M277.047 9.5853L276.823 8.45456C276.251 6.97715 275.136 5.7604 273.697 5.04113L275.708 12.0093H278.147L281.764 4.17188H279.355L277.047 9.5853Z" fill="#3C58BF"/>
<path d="M277.047 9.5853L276.823 8.45456C276.251 6.97715 275.136 5.7604 273.697 5.04113L275.708 12.0093H278.147L281.764 4.17188H279.804L277.047 9.5853Z" fill="#293688"/>
<path d="M270.846 4.09419L271.244 4.18606C274.139 4.83624 276.063 6.48995 276.823 8.42634L276.02 4.72316C275.882 4.20019 275.484 4.06592 274.992 4.06592L270.846 4.09419Z" fill="#FFBC00"/>
<path d="M270.846 4.09424C273.697 4.75148 276.063 6.4476 276.823 8.41226L276.063 5.31685C276.007 5.08075 275.871 4.87025 275.676 4.71997C275.482 4.5697 275.24 4.48859 274.992 4.49L270.846 4.09424Z" fill="#F7981D"/>
<path d="M270.846 4.09424C273.697 4.75148 276.063 6.4476 276.823 8.41226L276.287 6.70908C276.261 6.43543 276.159 6.17381 275.994 5.95137C275.828 5.72893 275.605 5.55377 275.347 5.44406L270.846 4.09424Z" fill="#ED7C00"/>
<path d="M279.276 9.32386L277.757 7.86802L277.033 9.52173L276.852 8.4334C276.292 6.94215 275.176 5.71279 273.727 4.9917L275.738 11.9599H278.148L279.276 9.32386Z" fill="#051244"/>
<path d="M283.422 11.9386L281.504 10.0234L281.15 11.9386H283.422Z" fill="#051244"/>
<path d="M288.551 9.23926C288.732 9.40887 288.819 9.54314 288.776 9.71982C288.776 10.2428 288.052 10.5043 287.437 10.5043C286.689 10.5229 285.946 10.373 285.266 10.0661L284.955 9.93184L284.658 11.7198C285.471 12.0146 286.331 12.1631 287.198 12.158C287.788 12.1976 288.38 12.1217 288.939 11.9348C289.498 11.7479 290.013 11.4538 290.454 11.0696L288.551 9.23926Z" fill="#051244"/>
<path d="M291.172 11.939H293.263L293.711 10.6316H296.562L296.83 11.939H299.001L298.277 8.7588L295.513 6.22876L295.643 6.93547C295.643 6.93547 296.092 8.89307 296.179 9.33123H294.305C294.486 8.89307 295.202 7.02028 295.202 7.02028C295.202 7.02028 295.376 6.54678 295.513 6.23583" fill="#051244"/>
</svg>
