<svg width="37" height="37" viewBox="0 0 37 37" fill="none" xmlns="http://www.w3.org/2000/svg">
<circle cx="18.5" cy="18.5" r="10.5" fill="#197AFF"/>
<path fill-rule="evenodd" clip-rule="evenodd" d="M17.9572 0.0527835C17.2842 0.213936 16.6124 0.725477 15.749 1.73396C15.4577 2.07418 15.3967 2.10865 15.0857 2.10865C14.842 2.10865 14.639 2.04207 14.3816 1.87761C13.6791 1.42893 13.2197 1.29145 12.4036 1.28569C11.739 1.28103 11.6099 1.30407 11.2573 1.4903C10.5293 1.87477 9.97139 2.63904 9.6807 3.65021C9.38757 4.6699 9.15956 4.83508 8.21086 4.71518C7.5191 4.6277 6.62441 4.72393 6.14096 4.93794C5.02109 5.43354 4.47795 6.63032 4.67167 8.17559C4.73553 8.68524 4.73056 8.8796 4.64849 9.07585C4.50098 9.42908 4.38374 9.50409 3.71043 9.67637C2.6348 9.95158 1.88494 10.4491 1.46495 11.166C1.29954 11.4484 1.25074 11.65 1.22456 12.1587C1.18696 12.8896 1.34322 13.4708 1.80515 14.3181C2.15883 14.9669 2.17705 15.4283 1.85861 15.6728C1.73932 15.7644 1.45801 15.9789 1.23339 16.1495C0.453023 16.7425 -7.88311e-05 17.632 1.02873e-08 18.571C1.02873e-08 19.0483 0.0395784 19.2194 0.247483 19.6419C0.483534 20.1217 0.780214 20.4459 1.74878 21.2828C2.1914 21.6652 2.19518 21.9869 1.7666 22.789C1.21187 23.8273 1.06452 24.7707 1.33368 25.5611C1.60742 26.3649 2.51275 27.0508 3.68796 27.3446C4.34858 27.5098 4.47322 27.5843 4.64518 27.9169C4.74034 28.1011 4.74586 28.2566 4.67687 28.8119C4.45328 30.6128 5.09773 31.7884 6.53816 32.2073C6.90509 32.3141 7.19585 32.3328 7.9674 32.2995C8.86887 32.2605 8.95362 32.2695 9.19149 32.4292C9.36841 32.5479 9.47886 32.7093 9.55037 32.9533C10.0218 34.5635 10.6481 35.3776 11.6424 35.6731C12.4174 35.9034 13.2222 35.7639 14.217 35.2268C15.1275 34.7354 15.3926 34.7839 15.9961 35.5524C16.7301 36.4872 17.6164 37.0049 18.4744 37C19.4608 36.9943 20.1407 36.5615 21.2819 35.2127C21.6219 34.8107 21.9647 34.8159 22.7885 35.2354C24.2714 35.9906 25.3415 35.9677 26.2226 35.162C26.7204 34.7069 27.0716 34.0888 27.299 33.2678C27.3982 32.9097 27.5383 32.6025 27.6562 32.4844C27.846 32.2946 27.8782 32.2902 29.1346 32.2854C30.3745 32.2806 30.4344 32.2729 30.8652 32.0612C31.9655 31.5205 32.5001 30.2855 32.2867 28.7764C32.2106 28.2374 32.214 28.0905 32.307 27.9106C32.4714 27.5926 32.5641 27.5368 33.3647 27.275C34.2191 26.9957 34.6692 26.7475 35.097 26.3195C35.5302 25.886 35.6893 25.5154 35.7259 24.8548C35.7636 24.1734 35.6168 23.612 35.1816 22.7725C34.9766 22.3772 34.8734 22.0745 34.8734 21.8688C34.8734 21.594 34.9195 21.5193 35.2859 21.2011C36.7962 19.8889 37.2355 18.9747 36.8875 17.8678C36.7149 17.3187 36.1051 16.5039 35.5408 16.0684C35.2985 15.8814 35.0492 15.6554 34.9868 15.5663C34.7886 15.2831 34.8506 14.8634 35.1823 14.2426C35.3521 13.9247 35.5472 13.4719 35.6159 13.2362C35.7567 12.7529 35.7789 11.9827 35.6637 11.5806C35.467 10.8944 34.7296 10.2398 33.7431 9.8757C33.4325 9.76101 33.0204 9.60774 32.8274 9.53509C32.5948 9.44754 32.4265 9.31762 32.3288 9.15024C32.1948 8.92062 32.1898 8.84134 32.274 8.28523C32.6377 5.88545 31.1766 4.38262 28.7919 4.70374C28.2933 4.77087 28.1096 4.76669 27.9107 4.68347C27.5713 4.54156 27.5124 4.45172 27.3085 3.76514C26.9761 2.64677 26.3961 1.81987 25.6907 1.45907C25.2967 1.25745 24.5562 1.19474 23.9806 1.31432C23.7369 1.36488 23.2232 1.56429 22.839 1.75731C21.9813 2.18824 21.6371 2.21648 21.3264 1.88131C21.2105 1.75629 20.982 1.47492 20.8187 1.25595C20.1406 0.346929 18.9025 -0.173604 17.9572 0.0527835ZM18.8988 1.80322C19.0062 1.85221 19.2806 2.12229 19.5087 2.4035C20.2429 3.30897 21.0052 3.77642 21.7477 3.77642C22.295 3.77642 22.6974 3.66133 23.6075 3.24437C24.4873 2.84129 24.8212 2.80808 25.1564 3.09032C25.3241 3.23151 25.4121 3.40568 25.4851 3.74108C25.7516 4.96649 26.5209 5.95833 27.4343 6.25437C27.8149 6.37766 28.0955 6.4007 29.0321 6.38524C30.308 6.36425 30.4842 6.41758 30.5985 6.85899C30.6345 6.9983 30.633 7.32644 30.5949 7.58816C30.5068 8.19318 30.5661 9.14795 30.7189 9.58692C31.0191 10.4496 31.6157 10.9354 32.9246 11.3833C33.5137 11.5848 33.8223 11.7347 33.9299 11.8715C34.1742 12.1823 34.1291 12.5841 33.7757 13.2445C32.8337 15.0044 33.0766 16.2617 34.5969 17.4958C34.9574 17.7884 35.1431 18.0056 35.232 18.2387C35.4126 18.7117 35.2823 18.9682 34.5975 19.4883C33.0654 20.6521 32.8114 21.9814 33.7762 23.7872C34.253 24.6795 34.1654 25.1437 33.4632 25.4459C33.2471 25.5389 33.0237 25.616 32.9667 25.6172C32.7368 25.6219 31.7665 26.0958 31.4423 26.3614C30.9258 26.7849 30.6218 27.4588 30.5679 28.3001C30.5444 28.6672 30.5564 29.1816 30.5946 29.4434C30.6779 30.0142 30.5962 30.3873 30.358 30.5236C30.2376 30.5924 29.7986 30.6252 28.9603 30.628C27.8829 30.6315 27.6849 30.6531 27.2872 30.8103C26.4455 31.143 25.8146 31.9814 25.5194 33.1599C25.3543 33.8191 25.0841 34.1342 24.6839 34.1342C24.5339 34.1342 24.0379 33.965 23.5544 33.7488C22.4611 33.2601 21.9367 33.1451 21.3536 33.2662C20.8035 33.3805 20.1571 33.8482 19.5415 34.5776C19.0314 35.182 18.8544 35.3105 18.5258 35.3146C18.1625 35.3191 17.8303 35.1034 17.4101 34.5903C16.9225 33.9949 16.2427 33.4821 15.7625 33.3476C15.5411 33.2856 15.1682 33.2606 14.8089 33.2837C14.3008 33.3162 14.1027 33.378 13.3835 33.7278C12.9241 33.9513 12.4475 34.1342 12.3243 34.1342C11.9636 34.1342 11.6524 33.8026 11.4155 33.1661C10.8721 31.7057 10.5384 31.1993 9.90516 30.8741C9.46775 30.6494 8.77418 30.5632 7.85757 30.6197C7.13609 30.6642 6.93315 30.6517 6.73842 30.5509C6.60754 30.4832 6.4717 30.3833 6.43638 30.3287C6.40113 30.2742 6.3707 29.6794 6.36865 29.0069C6.36565 27.9605 6.34161 27.7259 6.20237 27.3795C5.85602 26.5177 5.22797 25.9967 4.11284 25.6461C3.23384 25.3699 3.10619 25.303 2.9754 25.0499C2.79958 24.7097 2.84247 24.3973 3.13899 23.8575C3.71493 22.8092 3.87695 21.8678 3.61109 21.1139C3.44143 20.6329 2.93795 19.997 2.34719 19.5178C1.72899 19.0164 1.50745 18.5732 1.68863 18.2005C1.74957 18.0751 2.04727 17.7652 2.3501 17.5117C3.89563 16.2186 4.1253 15.0274 3.17266 13.2445C2.82662 12.5969 2.79083 12.2867 3.01876 11.9126C3.14088 11.7124 3.26853 11.6328 3.62954 11.5327C4.75232 11.2209 5.44266 10.8257 5.86288 10.254C6.29478 9.66643 6.36092 9.37023 6.36684 7.99826L6.37228 6.74927L6.58996 6.56177C6.80078 6.38019 6.84596 6.37474 8.0091 6.39092C9.03909 6.40527 9.27064 6.38539 9.63142 6.25153C10.4481 5.94855 10.871 5.39615 11.3479 4.00967C11.7582 2.81668 12.1562 2.64464 13.2057 3.2069C14.0065 3.63593 14.5969 3.79306 15.236 3.74715C16.035 3.68973 16.5665 3.36529 17.4032 2.42417C17.654 2.14217 17.9355 1.8683 18.0288 1.81561C18.2443 1.69397 18.6465 1.68829 18.8988 1.80322ZM16.6611 6.87856C14.086 7.31319 11.898 8.44607 10.0943 10.2785C7.89888 12.5091 6.72706 15.3756 6.72706 18.5158C6.72706 24.084 10.5607 28.8216 16.0545 30.0425C17.1904 30.295 19.19 30.3327 20.406 30.1246C22.8762 29.7019 25.0526 28.5714 26.8024 26.8022C28.442 25.1443 29.4844 23.2231 30.0064 20.8967C30.152 20.2479 30.1778 19.8891 30.1778 18.5158C30.1778 17.1425 30.152 16.7837 30.0064 16.135C29.7599 15.0364 29.4849 14.2581 28.994 13.2702C27.3338 9.92926 24.1315 7.54557 20.4574 6.91594C19.4154 6.73736 17.6033 6.71953 16.6611 6.87856ZM20.6031 8.64737C22.5672 9.09534 24.1442 9.96949 25.5803 11.4064C27.0439 12.8706 27.9402 14.5173 28.3768 16.5438C28.5788 17.4813 28.5788 19.5503 28.3768 20.4878C27.9402 22.5143 27.0439 24.161 25.5803 25.6252C24.1172 27.0891 22.4745 27.9844 20.4455 28.4237C19.4513 28.639 17.3572 28.6225 16.3764 28.3917C14.333 27.9108 12.8146 27.072 11.3685 25.6252C9.905 24.161 9.00865 22.5143 8.57203 20.4878C8.37004 19.5503 8.37004 17.4813 8.57203 16.5438C9.01283 14.4979 9.8875 12.8935 11.3712 11.4091C12.5299 10.2498 13.6367 9.53541 15.0755 9.01835C15.6746 8.803 16.7737 8.53647 17.3312 8.47131C18.0132 8.39156 19.9349 8.49498 20.6031 8.64737Z" fill="#11346F"/>
<mask id="mask0_0_226" style="mask-type:alpha" maskUnits="userSpaceOnUse" x="9" y="11" width="18" height="15">
<path d="M16 25L10.5 19L10 18L13 16L16.5 14.5L21.5 12L25.5 14L25 16.5L21.5 24L16 25Z" fill="#C4C4C4" stroke="black"/>
</mask>
<g mask="url(#mask0_0_226)">
<path fill-rule="evenodd" clip-rule="evenodd" d="M17.9572 0.0527835C17.2842 0.213936 16.6124 0.725477 15.749 1.73396C15.4577 2.07418 15.3967 2.10865 15.0857 2.10865C14.842 2.10865 14.639 2.04207 14.3816 1.87761C13.6791 1.42893 13.2197 1.29145 12.4036 1.28569C11.739 1.28103 11.6099 1.30407 11.2573 1.4903C10.5293 1.87477 9.97139 2.63904 9.6807 3.65021C9.38757 4.6699 9.15956 4.83508 8.21086 4.71518C7.5191 4.6277 6.62441 4.72393 6.14096 4.93794C5.02109 5.43354 4.47795 6.63032 4.67167 8.17559C4.73553 8.68524 4.73056 8.8796 4.64849 9.07585C4.50098 9.42908 4.38374 9.50409 3.71043 9.67637C2.6348 9.95158 1.88494 10.4491 1.46495 11.166C1.29954 11.4484 1.25074 11.65 1.22456 12.1587C1.18696 12.8896 1.34322 13.4708 1.80515 14.3181C2.15883 14.9669 2.17705 15.4283 1.85861 15.6728C1.73932 15.7644 1.45801 15.9789 1.23339 16.1495C0.453023 16.7425 -7.88311e-05 17.632 1.02873e-08 18.571C1.02873e-08 19.0483 0.0395784 19.2194 0.247483 19.6419C0.483534 20.1217 0.780214 20.4459 1.74878 21.2828C2.1914 21.6652 2.19518 21.9869 1.7666 22.789C1.21187 23.8273 1.06452 24.7707 1.33368 25.5611C1.60742 26.3649 2.51275 27.0508 3.68796 27.3446C4.34858 27.5098 4.47322 27.5843 4.64518 27.9169C4.74034 28.1011 4.74586 28.2566 4.67687 28.8119C4.45328 30.6128 5.09773 31.7884 6.53816 32.2073C6.90509 32.3141 7.19585 32.3328 7.9674 32.2995C8.86887 32.2605 8.95362 32.2695 9.19149 32.4292C9.36841 32.5479 9.47886 32.7093 9.55037 32.9533C10.0218 34.5635 10.6481 35.3776 11.6424 35.6731C12.4174 35.9034 13.2222 35.7639 14.217 35.2268C15.1275 34.7354 15.3926 34.7839 15.9961 35.5524C16.7301 36.4872 17.6164 37.0049 18.4744 37C19.4608 36.9943 20.1407 36.5615 21.2819 35.2127C21.6219 34.8107 21.9647 34.8159 22.7885 35.2354C24.2714 35.9906 25.3415 35.9677 26.2226 35.162C26.7204 34.7069 27.0716 34.0888 27.299 33.2678C27.3982 32.9097 27.5383 32.6025 27.6562 32.4844C27.846 32.2946 27.8782 32.2902 29.1346 32.2854C30.3745 32.2806 30.4344 32.2729 30.8652 32.0612C31.9655 31.5205 32.5001 30.2855 32.2867 28.7764C32.2106 28.2374 32.214 28.0905 32.307 27.9106C32.4714 27.5926 32.5641 27.5368 33.3647 27.275C34.2191 26.9957 34.6692 26.7475 35.097 26.3195C35.5302 25.886 35.6893 25.5154 35.7259 24.8548C35.7636 24.1734 35.6168 23.612 35.1816 22.7725C34.9766 22.3772 34.8734 22.0745 34.8734 21.8688C34.8734 21.594 34.9195 21.5193 35.2859 21.2011C36.7962 19.8889 37.2355 18.9747 36.8875 17.8678C36.7149 17.3187 36.1051 16.5039 35.5408 16.0684C35.2985 15.8814 35.0492 15.6554 34.9868 15.5663C34.7886 15.2831 34.8506 14.8634 35.1823 14.2426C35.3521 13.9247 35.5472 13.4719 35.6159 13.2362C35.7567 12.7529 35.7789 11.9827 35.6637 11.5806C35.467 10.8944 34.7296 10.2398 33.7431 9.8757C33.4325 9.76101 33.0204 9.60774 32.8274 9.53509C32.5948 9.44754 32.4265 9.31762 32.3288 9.15024C32.1948 8.92062 32.1898 8.84134 32.274 8.28523C32.6377 5.88545 31.1766 4.38262 28.7919 4.70374C28.2933 4.77087 28.1096 4.76669 27.9107 4.68347C27.5713 4.54156 27.5124 4.45172 27.3085 3.76514C26.9761 2.64677 26.3961 1.81987 25.6907 1.45907C25.2967 1.25745 24.5562 1.19474 23.9806 1.31432C23.7369 1.36488 23.2232 1.56429 22.839 1.75731C21.9813 2.18824 21.6371 2.21648 21.3264 1.88131C21.2105 1.75629 20.982 1.47492 20.8187 1.25595C20.1406 0.346929 18.9025 -0.173604 17.9572 0.0527835ZM18.8988 1.80322C19.0062 1.85221 19.2806 2.12229 19.5087 2.4035C20.2429 3.30897 21.0052 3.77642 21.7477 3.77642C22.295 3.77642 22.6974 3.66133 23.6075 3.24437C24.4873 2.84129 24.8212 2.80808 25.1564 3.09032C25.3241 3.23151 25.4121 3.40568 25.4851 3.74108C25.7516 4.96649 26.5209 5.95833 27.4343 6.25437C27.8149 6.37766 28.0955 6.4007 29.0321 6.38524C30.308 6.36425 30.4842 6.41758 30.5985 6.85899C30.6345 6.9983 30.633 7.32644 30.5949 7.58816C30.5068 8.19318 30.5661 9.14795 30.7189 9.58692C31.0191 10.4496 31.6157 10.9354 32.9246 11.3833C33.5137 11.5848 33.8223 11.7347 33.9299 11.8715C34.1742 12.1823 34.1291 12.5841 33.7757 13.2445C32.8337 15.0044 33.0766 16.2617 34.5969 17.4958C34.9574 17.7884 35.1431 18.0056 35.232 18.2387C35.4126 18.7117 35.2823 18.9682 34.5975 19.4883C33.0654 20.6521 32.8114 21.9814 33.7762 23.7872C34.253 24.6795 34.1654 25.1437 33.4632 25.4459C33.2471 25.5389 33.0237 25.616 32.9667 25.6172C32.7368 25.6219 31.7665 26.0958 31.4423 26.3614C30.9258 26.7849 30.6218 27.4588 30.5679 28.3001C30.5444 28.6672 30.5564 29.1816 30.5946 29.4434C30.6779 30.0142 30.5962 30.3873 30.358 30.5236C30.2376 30.5924 29.7986 30.6252 28.9603 30.628C27.8829 30.6315 27.6849 30.6531 27.2872 30.8103C26.4455 31.143 25.8146 31.9814 25.5194 33.1599C25.3543 33.8191 25.0841 34.1342 24.6839 34.1342C24.5339 34.1342 24.0379 33.965 23.5544 33.7488C22.4611 33.2601 21.9367 33.1451 21.3536 33.2662C20.8035 33.3805 20.1571 33.8482 19.5415 34.5776C19.0314 35.182 18.8544 35.3105 18.5258 35.3146C18.1625 35.3191 17.8303 35.1034 17.4101 34.5903C16.9225 33.9949 16.2427 33.4821 15.7625 33.3476C15.5411 33.2856 15.1682 33.2606 14.8089 33.2837C14.3008 33.3162 14.1027 33.378 13.3835 33.7278C12.9241 33.9513 12.4475 34.1342 12.3243 34.1342C11.9636 34.1342 11.6524 33.8026 11.4155 33.1661C10.8721 31.7057 10.5384 31.1993 9.90516 30.8741C9.46775 30.6494 8.77418 30.5632 7.85757 30.6197C7.13609 30.6642 6.93315 30.6517 6.73842 30.5509C6.60754 30.4832 6.4717 30.3833 6.43638 30.3287C6.40113 30.2742 6.3707 29.6794 6.36865 29.0069C6.36565 27.9605 6.34161 27.7259 6.20237 27.3795C5.85602 26.5177 5.22797 25.9967 4.11284 25.6461C3.23384 25.3699 3.10619 25.303 2.9754 25.0499C2.79958 24.7097 2.84247 24.3973 3.13899 23.8575C3.71493 22.8092 3.87695 21.8678 3.61109 21.1139C3.44143 20.6329 2.93795 19.997 2.34719 19.5178C1.72899 19.0164 1.50745 18.5732 1.68863 18.2005C1.74957 18.0751 2.04727 17.7652 2.3501 17.5117C3.89563 16.2186 4.1253 15.0274 3.17266 13.2445C2.82662 12.5969 2.79083 12.2867 3.01876 11.9126C3.14088 11.7124 3.26853 11.6328 3.62954 11.5327C4.75232 11.2209 5.44266 10.8257 5.86288 10.254C6.29478 9.66643 6.36092 9.37023 6.36684 7.99826L6.37228 6.74927L6.58996 6.56177C6.80078 6.38019 6.84596 6.37474 8.0091 6.39092C9.03909 6.40527 9.27064 6.38539 9.63142 6.25153C10.4481 5.94855 10.871 5.39615 11.3479 4.00967C11.7582 2.81668 12.1562 2.64464 13.2057 3.2069C14.0065 3.63593 14.5969 3.79306 15.236 3.74715C16.035 3.68973 16.5665 3.36529 17.4032 2.42417C17.654 2.14217 17.9355 1.8683 18.0288 1.81561C18.2443 1.69397 18.6465 1.68829 18.8988 1.80322ZM16.6611 6.87856C14.086 7.31319 11.898 8.44607 10.0943 10.2785C7.89888 12.5091 6.72706 15.3756 6.72706 18.5158C6.72706 24.084 10.5607 28.8216 16.0545 30.0425C17.1904 30.295 19.19 30.3327 20.406 30.1246C22.8762 29.7019 25.0526 28.5714 26.8024 26.8022C28.442 25.1443 29.4844 23.2231 30.0064 20.8967C30.152 20.2479 30.1778 19.8891 30.1778 18.5158C30.1778 17.1425 30.152 16.7837 30.0064 16.135C29.7599 15.0364 29.4849 14.2581 28.994 13.2702C27.3338 9.92926 24.1315 7.54557 20.4574 6.91594C19.4154 6.73736 17.6033 6.71953 16.6611 6.87856ZM20.6031 8.64737C22.5672 9.09534 24.1442 9.96949 25.5803 11.4064C27.0439 12.8706 27.9402 14.5173 28.3768 16.5438C28.5788 17.4813 28.5788 19.5503 28.3768 20.4878C27.9402 22.5143 27.0439 24.161 25.5803 25.6252C24.1172 27.0891 22.4745 27.9844 20.4455 28.4237C19.4513 28.639 17.3572 28.6225 16.3764 28.3917C14.333 27.9108 12.8146 27.072 11.3685 25.6252C9.905 24.161 9.00865 22.5143 8.57203 20.4878C8.37004 19.5503 8.37004 17.4813 8.57203 16.5438C9.01283 14.4979 9.8875 12.8935 11.3712 11.4091C12.5299 10.2498 13.6367 9.53541 15.0755 9.01835C15.6746 8.803 16.7737 8.53647 17.3312 8.47131C18.0132 8.39156 19.9349 8.49498 20.6031 8.64737ZM19.996 17.5072L16.822 20.6792L15.3421 19.213C14.244 18.125 13.7971 17.7326 13.6097 17.692C13.0474 17.57 12.4837 18.1338 12.6047 18.697C12.6456 18.8871 13.0908 19.3856 14.4038 20.7113C15.3634 21.6802 16.2444 22.5232 16.3615 22.5847C16.4786 22.6461 16.7083 22.6965 16.8719 22.6965C17.1588 22.6965 17.2939 22.5722 20.6684 19.206C22.7419 17.1376 24.2138 15.6083 24.2813 15.4524C24.514 14.9153 24.1042 14.3351 23.4922 14.3351C23.1731 14.3351 23.1392 14.366 19.996 17.5072Z" fill="white"/>
</g>
</svg>
