<svg width="33" height="33" viewBox="0 0 33 33" fill="none" xmlns="http://www.w3.org/2000/svg">
<path d="M7.38158 26.0527L8.25 27.3554L15.6316 23.4475L24.3158 27.3554L25.1842 26.9212V25.1843L24.3158 17.8027L29.9605 11.7238V9.98694L20.8421 8.2501L17.0952 1.30273H15.6316L11.2895 8.68431L3.03947 10.4212V11.7238L8.68421 17.8027L7.38158 26.0527Z" fill="#197AFF" stroke="black"/>
<path fill-rule="evenodd" clip-rule="evenodd" d="M15.8468 0.0781048C15.4387 0.230479 15.0374 0.497489 14.8384 0.749145C14.7328 0.882682 13.8767 2.55093 12.9359 4.45644C11.5068 7.35091 11.2004 7.92705 11.0735 7.95757C10.9901 7.97763 9.24956 8.23696 7.20573 8.53384C4.5486 8.91981 3.40567 9.11076 3.19478 9.20404C2.79914 9.37906 2.33627 9.81676 2.12648 10.2143C1.97385 10.5036 1.95495 10.6106 1.95495 11.1846C1.95495 11.76 1.97366 11.8652 2.1281 12.1579C2.25776 12.4038 2.98647 13.1558 5.03101 15.1539C6.53237 16.621 7.79949 17.8814 7.84677 17.9547C7.92115 18.0699 7.84516 18.5985 7.2823 21.8814C6.92453 23.9679 6.63184 25.7573 6.63184 25.8579C6.63184 26.4755 7.10303 27.2806 7.67614 27.6425C8.03992 27.8721 8.64522 28.0108 9.05815 27.9592C9.47934 27.9067 9.76564 27.7674 13.4377 25.8293C15.0344 24.9866 16.4133 24.2969 16.502 24.2964C16.5907 24.2961 17.9986 25.0005 19.6307 25.8619C23.7052 28.0121 23.5834 27.9561 24.1777 27.9537C24.5708 27.952 24.7393 27.9167 25.0684 27.7671C25.8916 27.3928 26.4475 26.4747 26.3499 25.6509C26.3287 25.4715 26.0324 23.6964 25.6915 21.706C25.1559 18.5796 25.0832 18.0693 25.1574 17.9548C25.2045 17.882 26.4624 16.6319 27.9526 15.1769C31.1187 12.0855 31.0491 12.1752 31.0491 11.1846C31.0491 10.6095 31.0304 10.5044 30.8771 10.2169C30.6523 9.79509 30.2257 9.38732 29.8234 9.20991C29.5778 9.10147 28.6168 8.93942 25.7915 8.52991C23.7514 8.23419 22.0142 7.97627 21.9311 7.95679C21.8048 7.92718 21.4936 7.34207 20.0428 4.4069C18.1676 0.613285 18.1316 0.554968 17.4557 0.208932C17.0443 -0.00163035 16.2363 -0.0673667 15.8468 0.0781048ZM6.39309 1.15059C6.13434 1.30832 5.98674 1.58746 5.98674 1.91911C5.98674 2.11864 6.05454 2.27482 6.29316 2.62518C7.11845 3.83669 7.43545 4.11338 7.89832 4.02654C8.35067 3.94171 8.69096 3.44892 8.60464 3.00366C8.55213 2.73285 7.51441 1.3071 7.25444 1.14859C6.99407 0.989834 6.65539 0.990608 6.39309 1.15059ZM25.8094 1.11957C25.6661 1.18188 25.4209 1.45502 25.02 1.99885C24.2691 3.0176 24.2063 3.32248 24.6548 3.77102C25.12 4.2362 25.6138 4.10802 26.1652 3.37879C26.862 2.45739 27.0172 2.18864 27.017 1.90382C27.0166 1.55933 26.818 1.23568 26.534 1.11705C26.2593 1.00222 26.0779 1.00287 25.8094 1.11957ZM16.7767 1.84666C16.8754 1.95678 18.1377 4.45928 19.5345 7.31394C19.9251 8.11226 20.332 8.85194 20.4647 9.00464C20.6001 9.1605 20.8711 9.35951 21.1011 9.47195C21.4722 9.65342 21.7807 9.70832 25.3068 10.2203C28.1039 10.6265 29.1423 10.8002 29.2259 10.8758C29.2902 10.9341 29.3396 11.0701 29.3396 11.189C29.3396 11.3812 29.1017 11.6304 26.5635 14.0981C24.1511 16.4434 23.7624 16.8477 23.5969 17.1841C23.2602 17.8685 23.2611 17.8807 23.9841 22.0762C24.5957 25.6255 24.6315 25.8816 24.5366 26.0264C24.3183 26.3596 24.3348 26.3664 20.6863 24.4494C17.873 22.9711 17.176 22.6301 16.8729 22.5832C16.1117 22.4653 16.0528 22.4895 12.3201 24.4501C8.66883 26.368 8.68644 26.3608 8.46743 26.0266C8.37273 25.882 8.40879 25.6241 9.02016 22.0764C9.74313 17.8811 9.74403 17.8698 9.40748 17.1841C9.24214 16.8473 8.85656 16.4461 6.44089 14.0977C3.90427 11.6316 3.66435 11.3803 3.66435 11.1886C3.66435 11.0703 3.71357 10.9347 3.77725 10.8777C3.89143 10.7755 4.00336 10.7575 9.27678 9.99152C11.7767 9.62846 12.0758 9.53795 12.5392 9.00464C12.6719 8.85194 13.0788 8.11226 13.4695 7.31394C14.8662 4.45928 16.1285 1.95678 16.2272 1.84666C16.2829 1.78461 16.4065 1.73377 16.502 1.73377C16.5975 1.73377 16.7211 1.78461 16.7767 1.84666ZM1.23011 19.2374C0.650286 19.435 0.387405 19.56 0.239288 19.7082C-0.151904 20.0998 -0.0490742 20.7698 0.44282 21.0336C0.754987 21.201 0.881944 21.1862 1.89386 20.8636C3.02937 20.5017 3.18052 20.3753 3.18052 19.7875C3.18052 19.4221 3.16665 19.3871 2.93958 19.1789C2.72656 18.9837 2.65921 18.9587 2.35898 18.9632C2.14061 18.9664 1.73748 19.0644 1.23011 19.2374ZM30.0644 19.1789C29.8373 19.3871 29.8234 19.4221 29.8234 19.7875C29.8234 20.373 29.9747 20.5003 31.1015 20.8632C32.1021 21.1854 32.2467 21.2023 32.5611 21.0336C32.8683 20.8689 33.0323 20.5484 32.9947 20.186C32.9482 19.7368 32.6872 19.5417 31.7042 19.2219C30.6702 18.8855 30.3925 18.8783 30.0644 19.1789ZM16.07 29.3377C15.6648 29.5923 15.6311 29.7093 15.6311 30.8603C15.6311 32.0121 15.666 32.1328 16.07 32.3792C16.4591 32.6164 16.9897 32.4829 17.2526 32.0817C17.3818 31.8846 17.4538 30.7115 17.3753 30.0834C17.3107 29.5667 17.0415 29.2743 16.5947 29.2357C16.3529 29.2147 16.2265 29.2393 16.07 29.3377Z" fill="#11346F"/>
</svg>
